<svg xmlns="http://www.w3.org/2000/svg" xmlns:xlink="http://www.w3.org/1999/xlink" width="260" zoomAndPan="magnify" viewBox="0 0 194.87999 90" height="110" preserveAspectRatio="xMidYMid meet" version="1.0"><defs><clipPath id="ad8161698b"><path d="M 58 1.617188 L 137 1.617188 L 137 60 L 58 60 Z M 58 1.617188 " clip-rule="nonzero"/></clipPath></defs><path fill="#ffffff" d="M 69.636719 79.988281 L 67.28125 79.988281 L 66.339844 77.617188 L 62.035156 77.617188 L 61.144531 79.988281 L 58.835938 79.988281 L 63.023438 69.503906 L 65.324219 69.503906 Z M 65.640625 75.839844 L 64.15625 71.949219 L 62.699219 75.839844 Z M 65.640625 75.839844 " fill-opacity="1" fill-rule="nonzero"/><path fill="#ffffff" d="M 72.742188 79.992188 L 72.742188 69.503906 L 77.011719 69.503906 C 78.101562 69.503906 78.449219 69.46875 78.914062 69.65625 C 79.382812 69.847656 79.890625 70.257812 80.191406 70.722656 C 80.492188 71.1875 80.644531 71.742188 80.644531 72.390625 C 80.644531 73.210938 80.414062 73.871094 79.953125 74.371094 C 79.492188 74.875 79.152344 75.234375 78.308594 75.363281 C 78.742188 75.628906 79.101562 75.921875 79.386719 76.238281 C 79.667969 76.554688 80.054688 77.125 80.546875 77.945312 L 81.765625 79.992188 L 79.347656 79.992188 L 78.328125 78.554688 C 77.800781 77.730469 77.441406 77.324219 77.253906 77.117188 C 77.066406 76.910156 76.773438 76.707031 76.5625 76.625 C 76.351562 76.546875 75.953125 76.550781 75.488281 76.550781 L 74.765625 76.617188 L 74.765625 79.992188 Z M 74.746094 74.214844 L 76.042969 74.214844 C 76.839844 74.214844 77.34375 74.179688 77.558594 74.109375 C 77.777344 74.039062 77.953125 73.898438 78.085938 73.683594 C 78.222656 73.472656 78.289062 73.191406 78.289062 72.839844 C 78.289062 72.5 78.222656 72.226562 78.085938 72.023438 C 77.953125 71.820312 77.769531 71.675781 77.539062 71.601562 C 77.375 71.546875 76.902344 71.519531 76.117188 71.519531 L 74.746094 71.519531 Z M 74.746094 74.214844 " fill-opacity="1" fill-rule="nonzero"/><path fill="#ffffff" d="M 91.160156 76.117188 L 93.285156 76.757812 C 92.953125 77.914062 92.402344 78.761719 91.632812 79.292969 C 90.863281 79.828125 89.914062 80.09375 88.789062 80.09375 C 87.375 80.09375 86.230469 79.667969 85.351562 78.816406 C 84.339844 77.832031 83.832031 76.507812 83.832031 74.839844 C 83.832031 73.074219 84.34375 71.695312 85.363281 70.699219 C 86.246094 69.832031 87.4375 69.398438 88.929688 69.398438 C 90.148438 69.398438 91.164062 69.722656 91.984375 70.371094 C 92.566406 70.832031 92.996094 71.519531 93.265625 72.425781 L 91.101562 72.917969 C 90.960938 72.359375 90.683594 71.929688 90.273438 71.632812 C 89.859375 71.332031 89.375 71.183594 88.8125 71.183594 C 88.007812 71.183594 87.355469 71.457031 86.851562 72.003906 C 86.34375 72.550781 86.089844 73.449219 86.089844 74.703125 C 86.089844 76.007812 86.335938 76.933594 86.832031 77.484375 C 87.324219 78.035156 87.964844 78.3125 88.753906 78.3125 C 89.332031 78.3125 89.832031 78.136719 90.25 77.785156 C 90.671875 77.433594 90.976562 76.875 91.160156 76.117188 " fill-opacity="1" fill-rule="nonzero"/><path fill="#ffffff" d="M 95.199219 75.148438 C 95.199219 73.882812 95.429688 72.84375 95.886719 72.023438 C 96.347656 71.203125 96.945312 70.59375 97.683594 70.195312 C 98.425781 69.796875 99.320312 69.59375 100.371094 69.59375 C 101.898438 69.59375 103.140625 70.070312 104.105469 71.019531 C 105.066406 71.972656 105.546875 73.328125 105.546875 75.082031 C 105.546875 76.855469 105.035156 78.242188 104.019531 79.242188 C 103.128906 80.125 101.914062 80.570312 100.382812 80.570312 C 98.839844 80.570312 97.621094 80.128906 96.726562 79.257812 C 95.710938 78.257812 95.199219 76.886719 95.199219 75.148438 M 97.417969 75.074219 C 97.417969 76.296875 97.703125 77.210938 98.273438 77.820312 C 98.839844 78.433594 99.546875 78.738281 100.386719 78.738281 C 101.234375 78.738281 101.933594 78.433594 102.492188 77.828125 C 103.050781 77.222656 103.328125 76.292969 103.328125 75.035156 C 103.328125 73.808594 103.058594 72.898438 102.511719 72.308594 C 101.972656 71.71875 101.261719 71.425781 100.386719 71.425781 C 99.507812 71.425781 98.796875 71.722656 98.246094 72.316406 C 97.695312 72.910156 97.417969 73.828125 97.417969 75.074219 " fill-opacity="1" fill-rule="nonzero"/><path fill="#ffffff" d="M 109.203125 79.992188 L 109.203125 69.539062 L 111.46875 69.539062 L 116.191406 76.519531 L 116.191406 69.539062 L 118.359375 69.539062 L 118.359375 79.992188 L 116.019531 79.992188 L 111.371094 73.175781 L 111.371094 79.992188 Z M 109.203125 79.992188 " fill-opacity="1" fill-rule="nonzero"/><path fill="#ffffff" d="M 121.855469 69.539062 L 124.296875 69.539062 L 124.296875 80.1875 L 121.855469 80.1875 Z M 121.855469 69.539062 " fill-opacity="1" fill-rule="nonzero"/><path fill="#ffffff" d="M 134.085938 76.222656 L 136.046875 76.863281 C 135.738281 78.015625 135.230469 78.855469 134.523438 79.390625 C 133.8125 79.921875 132.9375 80.1875 131.898438 80.1875 C 130.59375 80.1875 129.535156 79.761719 128.726562 78.914062 C 127.792969 77.933594 127.328125 76.613281 127.328125 74.949219 C 127.328125 73.191406 127.792969 71.816406 128.734375 70.824219 C 129.550781 69.960938 130.648438 69.53125 132.027344 69.53125 C 133.148438 69.53125 134.089844 69.855469 134.847656 70.5 C 135.386719 70.960938 135.78125 71.640625 136.03125 72.546875 L 134.03125 73.039062 C 133.902344 72.480469 133.648438 72.054688 133.269531 71.757812 C 132.886719 71.457031 132.4375 71.308594 131.921875 71.308594 C 131.179688 71.308594 130.578125 71.582031 130.109375 72.125 C 129.640625 72.667969 129.410156 73.566406 129.410156 74.816406 C 129.410156 76.117188 129.636719 77.039062 130.089844 77.585938 C 130.546875 78.136719 131.136719 78.410156 131.863281 78.410156 C 132.398438 78.410156 132.859375 78.234375 133.246094 77.886719 C 133.636719 77.535156 133.917969 76.984375 134.085938 76.222656 " fill-opacity="1" fill-rule="nonzero"/><g clip-path="url(#ad8161698b)"><path fill="#ffffff" d="M 136.050781 24.507812 L 136.050781 47.441406 L 115.929688 59.140625 L 97.089844 48.84375 L 78.835938 59.140625 L 58.828125 47.558594 L 58.828125 24.507812 L 97.089844 1.925781 Z M 99.3125 24.476562 L 115.929688 33.984375 L 129.792969 25.558594 L 99.3125 7.453125 Z M 117.449219 54.007812 L 131.972656 45.539062 L 131.972656 28.777344 L 117.449219 37.15625 Z M 97.089844 27.636719 L 82.828125 36.191406 L 113.542969 54.007812 L 113.542969 37.15625 Z M 78.835938 38.253906 L 64.765625 46.707031 L 78.835938 55.046875 L 93.402344 46.707031 Z M 62.542969 43.226562 L 74.625 36.148438 L 62.542969 28.835938 Z M 78.835938 33.984375 L 95.464844 24.476562 L 95.464844 7.453125 L 64.765625 25.5 Z M 78.835938 33.984375 " fill-opacity="1" fill-rule="nonzero"/></g></svg>