<svg xmlns="http://www.w3.org/2000/svg" xmlns:xlink="http://www.w3.org/1999/xlink" width="260" zoomAndPan="magnify" viewBox="0 0 194.87999 90" height="110" preserveAspectRatio="xMidYMid meet" version="1.0"><defs><clipPath id="42424d87e1"><path d="M 130 9.40625 L 157 9.40625 L 157 46 L 130 46 Z M 130 9.40625 " clip-rule="nonzero"/></clipPath><clipPath id="17583de901"><path d="M 69 9.40625 L 91 9.40625 L 91 45 L 69 45 Z M 69 9.40625 " clip-rule="nonzero"/></clipPath><clipPath id="5c86316bb1"><path d="M 139 10 L 183 10 L 183 73.117188 L 139 73.117188 Z M 139 10 " clip-rule="nonzero"/></clipPath><clipPath id="ec59f01267"><path d="M 11.578125 9.40625 L 56 9.40625 L 56 73.117188 L 11.578125 73.117188 Z M 11.578125 9.40625 " clip-rule="nonzero"/></clipPath></defs><path fill="#ffffff" d="M 59.316406 26.664062 C 61.808594 27.335938 63.804688 28.597656 65.203125 30.613281 C 66.96875 33.15625 67.933594 35.980469 67.824219 39.128906 C 67.710938 42.371094 65.714844 44.433594 62.453125 44.492188 C 59.007812 44.558594 55.558594 44.515625 52.109375 44.503906 C 51.925781 44.503906 51.652344 44.367188 51.578125 44.214844 C 51.339844 43.710938 51.164062 43.171875 50.949219 42.59375 C 51.132812 42.550781 51.265625 42.519531 51.394531 42.480469 C 52.269531 42.214844 52.648438 41.769531 52.53125 40.855469 C 52.425781 40.011719 52.222656 39.160156 51.921875 38.363281 C 49.859375 32.851562 47.761719 27.347656 45.664062 21.847656 C 44.824219 19.65625 43.976562 17.464844 43.105469 15.285156 C 42.417969 13.558594 41.191406 12.46875 39.296875 12.195312 C 39.085938 12.164062 38.832031 11.941406 38.730469 11.742188 C 38.480469 11.238281 38.3125 10.699219 38.085938 10.113281 C 38.300781 10.089844 38.457031 10.0625 38.609375 10.0625 C 42.859375 10.0625 47.109375 10 51.355469 10.082031 C 54.859375 10.152344 57.859375 11.476562 59.921875 14.390625 C 61.769531 16.992188 62.582031 19.9375 62.132812 23.144531 C 61.941406 24.515625 61.179688 25.546875 59.992188 26.253906 C 59.796875 26.371094 59.605469 26.488281 59.316406 26.664062 Z M 52.726562 28.089844 C 53.253906 29.640625 53.777344 31.207031 54.316406 32.765625 C 55.109375 35.0625 55.867188 37.371094 56.714844 39.648438 C 57.496094 41.75 58.136719 42.152344 60.261719 42.117188 C 62.003906 42.089844 63.085938 41.0625 63.152344 39.300781 C 63.273438 36.097656 62.261719 33.226562 60.4375 30.640625 C 59.402344 29.171875 57.941406 28.261719 56.125 28.105469 C 55.027344 28.015625 53.910156 28.089844 52.726562 28.089844 Z M 47.363281 12.601562 C 47.507812 13.066406 47.589844 13.347656 47.683594 13.621094 C 48.253906 15.238281 48.828125 16.855469 49.398438 18.480469 C 50.15625 20.652344 50.917969 22.828125 51.65625 25.007812 C 51.800781 25.433594 52.011719 25.609375 52.46875 25.574219 C 53.179688 25.523438 53.898438 25.570312 54.609375 25.503906 C 56.632812 25.316406 57.457031 24.441406 57.457031 22.414062 C 57.460938 19.660156 56.539062 17.183594 54.945312 14.972656 C 54.230469 13.984375 53.238281 13.214844 52.023438 13.015625 C 50.527344 12.769531 48.996094 12.738281 47.363281 12.601562 Z M 47.363281 12.601562 " fill-opacity="1" fill-rule="evenodd"/><path fill="#ffffff" d="M 106.414062 11.996094 C 106.460938 11.402344 106.511719 10.777344 106.566406 10.101562 C 109.636719 10.101562 112.691406 10.101562 115.808594 10.101562 C 115.726562 10.6875 115.664062 11.242188 115.5625 11.796875 C 115.539062 11.90625 115.402344 12.066406 115.300781 12.082031 C 112.871094 12.507812 112.160156 14.335938 111.859375 16.40625 C 111.460938 19.144531 111.160156 21.902344 110.855469 24.65625 C 110.507812 27.808594 110.195312 30.964844 109.882812 34.121094 C 109.609375 36.902344 109.34375 39.683594 109.085938 42.464844 C 109.019531 43.132812 109.003906 43.808594 108.910156 44.472656 C 108.882812 44.640625 108.640625 44.886719 108.472656 44.90625 C 106.984375 45.0625 106.976562 45.050781 106.488281 43.644531 C 104.109375 36.828125 101.3125 30.191406 98.261719 23.652344 C 97.464844 21.941406 96.671875 20.234375 95.742188 18.542969 C 95.730469 18.726562 95.710938 18.914062 95.714844 19.101562 C 95.785156 24.949219 95.839844 30.792969 95.945312 36.636719 C 95.96875 37.890625 96.144531 39.148438 96.347656 40.386719 C 96.523438 41.476562 97.199219 42.203125 98.324219 42.398438 C 98.8125 42.480469 98.984375 42.703125 98.929688 43.195312 C 98.882812 43.605469 98.917969 44.027344 98.917969 44.480469 C 96.433594 44.480469 93.964844 44.480469 91.445312 44.480469 C 91.445312 43.84375 91.445312 43.242188 91.445312 42.652344 C 91.886719 42.425781 92.382812 42.246094 92.78125 41.9375 C 93.625 41.285156 93.785156 40.296875 93.785156 39.324219 C 93.78125 36.0625 93.753906 32.804688 93.683594 29.546875 C 93.585938 25.113281 93.457031 20.675781 93.304688 16.242188 C 93.28125 15.585938 93.109375 14.910156 92.894531 14.285156 C 92.5 13.136719 91.632812 12.449219 90.460938 12.238281 C 89.902344 12.136719 89.726562 11.921875 89.75 11.386719 C 89.769531 10.972656 89.6875 10.554688 89.640625 10.054688 C 89.910156 10.054688 90.136719 10.054688 90.359375 10.054688 C 92.613281 10.054688 94.859375 10.070312 97.113281 10.039062 C 97.621094 10.035156 97.898438 10.175781 98.109375 10.652344 C 100.246094 15.550781 102.445312 20.425781 104.542969 25.34375 C 105.679688 28 106.660156 30.722656 107.714844 33.414062 C 107.726562 33.449219 107.769531 33.46875 107.863281 33.554688 C 107.933594 32.800781 108 32.101562 108.0625 31.402344 C 108.476562 26.695312 108.910156 21.984375 109.292969 17.273438 C 109.367188 16.339844 109.308594 15.382812 109.195312 14.449219 C 109.042969 13.210938 108.296875 12.453125 107.054688 12.214844 C 106.890625 12.179688 106.726562 12.140625 106.566406 12.097656 C 106.527344 12.089844 106.5 12.054688 106.414062 11.996094 Z M 106.414062 11.996094 " fill-opacity="1" fill-rule="evenodd"/><path fill="#ffffff" d="M 125.117188 34.179688 C 125.160156 32.992188 125.253906 31.84375 125.234375 30.699219 C 125.207031 29.109375 124.414062 28.375 122.820312 28.355469 C 122.507812 28.351562 122.191406 28.355469 121.816406 28.355469 C 121.570312 29.679688 121.316406 30.976562 121.089844 32.269531 C 120.675781 34.625 120.28125 36.984375 119.875 39.339844 C 119.871094 39.359375 119.863281 39.378906 119.863281 39.402344 C 119.617188 41.648438 120.035156 42.066406 122.113281 42.136719 C 124.75 42.222656 126.628906 41.078125 127.84375 38.863281 C 128.699219 37.304688 129.386719 35.65625 130.070312 34.011719 C 130.304688 33.449219 130.515625 33.121094 131.167969 33.277344 C 131.363281 33.324219 131.582031 33.285156 131.898438 33.285156 C 131.71875 33.984375 131.566406 34.625 131.382812 35.25 C 130.523438 38.1875 129.648438 41.117188 128.796875 44.054688 C 128.699219 44.390625 128.574219 44.53125 128.203125 44.53125 C 123.113281 44.515625 118.023438 44.519531 112.9375 44.515625 C 112.8125 44.515625 112.691406 44.488281 112.546875 44.46875 C 112.574219 44.257812 112.597656 44.070312 112.613281 43.886719 C 112.671875 43.113281 112.753906 42.5 113.761719 42.230469 C 115.054688 41.882812 115.421875 40.613281 115.628906 39.453125 C 116.105469 36.746094 116.488281 34.023438 116.898438 31.304688 C 117.566406 26.90625 118.242188 22.511719 118.886719 18.109375 C 119.050781 16.96875 119.203125 15.816406 119.222656 14.664062 C 119.25 13.175781 118.679688 12.539062 117.238281 12.191406 C 117.101562 12.15625 116.964844 12.105469 116.773438 12.050781 C 116.875 11.402344 116.972656 10.769531 117.078125 10.097656 C 123.539062 10.097656 129.984375 10.097656 136.507812 10.097656 C 136.179688 11.714844 135.859375 13.292969 135.535156 14.867188 C 135.179688 16.59375 134.816406 18.316406 134.46875 20.042969 C 134.25 21.113281 134.257812 21.113281 133.175781 21.167969 C 132.988281 21.175781 132.804688 21.167969 132.554688 21.167969 C 132.597656 20.5 132.683594 19.859375 132.675781 19.21875 C 132.667969 18.066406 132.695312 16.902344 132.550781 15.761719 C 132.324219 14.015625 131.203125 13.023438 129.445312 12.839844 C 129.003906 12.792969 128.566406 12.746094 128.125 12.742188 C 126.988281 12.726562 125.855469 12.734375 124.609375 12.734375 C 123.8125 17.113281 123.011719 21.492188 122.214844 25.875 C 124.453125 25.964844 125.792969 25.519531 126.660156 23.691406 C 127.09375 22.765625 127.480469 21.804688 127.789062 20.832031 C 127.949219 20.335938 128.164062 20.136719 128.660156 20.175781 C 128.96875 20.199219 129.285156 20.179688 129.671875 20.179688 C 129.234375 22.085938 128.808594 23.921875 128.402344 25.757812 C 127.839844 28.277344 127.292969 30.796875 126.734375 33.3125 C 126.527344 34.25 126.519531 34.25 125.539062 34.21875 C 125.375 34.210938 125.214844 34.1875 125.117188 34.179688 Z M 125.117188 34.179688 " fill-opacity="1" fill-rule="evenodd"/><g clip-path="url(#42424d87e1)"><path fill="#ffffff" d="M 133.636719 42.773438 C 133.332031 43.15625 133.046875 43.484375 132.792969 43.835938 C 132.167969 44.703125 132.101562 44.734375 130.917969 44.5625 C 131.425781 42.679688 131.933594 40.800781 132.4375 38.925781 C 132.921875 37.121094 133.4375 35.328125 133.867188 33.515625 C 134.027344 32.839844 134.292969 32.535156 134.988281 32.644531 C 135.171875 32.675781 135.359375 32.648438 135.578125 32.648438 C 135.476562 33.910156 135.351562 35.132812 135.28125 36.355469 C 135.199219 37.792969 135.328125 39.210938 135.84375 40.570312 C 136.550781 42.429688 138 43.113281 139.8125 42.289062 C 140.570312 41.945312 141.304688 41.394531 141.847656 40.757812 C 143.261719 39.117188 144.105469 37.179688 144.257812 34.992188 C 144.363281 33.535156 143.742188 32.382812 142.625 31.484375 C 141.640625 30.699219 140.621094 29.957031 139.65625 29.152344 C 137.539062 27.382812 136.90625 25.042969 137.246094 22.40625 C 137.695312 18.941406 138.894531 15.753906 141.261719 13.132812 C 143.46875 10.691406 146.167969 9.21875 149.585938 9.421875 C 151.015625 9.507812 152.160156 10.121094 153.046875 11.230469 C 153.207031 11.421875 153.351562 11.625 153.554688 11.894531 C 153.898438 11.511719 154.265625 11.195312 154.511719 10.800781 C 155.027344 9.988281 155.726562 9.980469 156.601562 10.214844 C 156.085938 11.59375 155.578125 12.9375 155.078125 14.285156 C 154.210938 16.625 153.34375 18.960938 152.492188 21.304688 C 152.371094 21.640625 152.234375 21.839844 151.828125 21.796875 C 151.441406 21.757812 151.046875 21.789062 150.695312 21.789062 C 150.902344 20.34375 151.179688 18.984375 151.277344 17.617188 C 151.34375 16.601562 151.296875 15.546875 151.082031 14.554688 C 150.652344 12.53125 149.160156 11.726562 147.144531 12.277344 C 145.710938 12.667969 144.664062 13.574219 143.847656 14.765625 C 142.933594 16.101562 142.320312 17.566406 142.183594 19.195312 C 142.011719 21.1875 143.171875 22.445312 144.625 23.527344 C 145.417969 24.117188 146.242188 24.667969 147.027344 25.261719 C 149.078125 26.824219 149.84375 28.902344 149.421875 31.429688 C 148.777344 35.289062 147.179688 38.71875 144.621094 41.664062 C 143.191406 43.308594 141.457031 44.558594 139.273438 45.027344 C 137.050781 45.5 135.203125 44.929688 133.859375 43.011719 C 133.824219 42.964844 133.777344 42.921875 133.636719 42.773438 Z M 133.636719 42.773438 " fill-opacity="1" fill-rule="evenodd"/></g><g clip-path="url(#17583de901)"><path fill="#ffffff" d="M 90.433594 44.488281 C 87.496094 44.488281 84.640625 44.488281 81.71875 44.488281 C 81.625 43.890625 81.53125 43.285156 81.433594 42.679688 C 81.53125 42.628906 81.582031 42.582031 81.636719 42.578125 C 83.078125 42.445312 83.332031 41.464844 82.984375 40.371094 C 82.257812 38.078125 81.449219 35.808594 80.65625 33.535156 C 80.613281 33.421875 80.417969 33.292969 80.289062 33.292969 C 78.109375 33.277344 75.921875 33.28125 73.675781 33.28125 C 73.628906 34.289062 73.550781 35.246094 73.546875 36.207031 C 73.539062 37.546875 73.507812 38.898438 73.632812 40.230469 C 73.746094 41.46875 74.566406 42.214844 75.761719 42.5 C 76.183594 42.601562 76.414062 42.738281 76.425781 43.222656 C 76.4375 43.632812 76.578125 44.039062 76.667969 44.488281 C 74.332031 44.488281 72.046875 44.488281 69.703125 44.488281 C 69.558594 43.867188 69.410156 43.238281 69.253906 42.574219 C 70.570312 42.273438 71 41.296875 71.101562 40.148438 C 71.261719 38.394531 71.34375 36.628906 71.464844 34.867188 C 71.792969 30.089844 72.097656 25.308594 72.46875 20.53125 C 72.75 16.933594 73.117188 13.335938 73.457031 9.652344 C 74.441406 9.652344 75.378906 9.632812 76.3125 9.671875 C 76.429688 9.675781 76.578125 9.960938 76.648438 10.136719 C 78.414062 14.734375 80.21875 19.316406 81.914062 23.9375 C 83.792969 29.050781 85.546875 34.207031 87.410156 39.324219 C 87.734375 40.214844 88.316406 41.011719 88.804688 41.832031 C 88.90625 41.996094 89.128906 42.097656 89.308594 42.203125 C 89.625 42.382812 90.144531 42.480469 90.234375 42.730469 C 90.417969 43.265625 90.378906 43.875 90.433594 44.488281 Z M 79.625 30.738281 C 78.050781 26.613281 76.511719 22.578125 74.972656 18.542969 C 74.929688 18.542969 74.890625 18.546875 74.847656 18.546875 C 74.503906 22.601562 74.160156 26.652344 73.8125 30.738281 C 75.792969 30.738281 77.640625 30.738281 79.625 30.738281 Z M 79.625 30.738281 " fill-opacity="1" fill-rule="evenodd"/></g><path fill="#ffffff" d="M 59.988281 50.109375 C 59.988281 52.394531 59.984375 54.597656 59.992188 56.804688 C 59.992188 57.429688 60.066406 58.019531 60.785156 58.300781 C 60.933594 58.359375 60.972656 58.695312 61.097656 58.992188 C 60.085938 58.992188 59.191406 58.992188 58.253906 58.992188 C 58.1875 58.644531 58.132812 58.371094 58.589844 58.160156 C 58.835938 58.046875 59.066406 57.675781 59.105469 57.390625 C 59.214844 56.605469 59.25 55.804688 59.257812 55.007812 C 59.269531 53.242188 59.246094 51.476562 59.242188 49.710938 C 59.238281 49.203125 59.066406 48.847656 58.550781 48.632812 C 58.363281 48.554688 58.289062 48.199219 58.082031 47.824219 C 59.132812 47.824219 59.949219 47.804688 60.761719 47.847656 C 60.890625 47.855469 61.074219 48.140625 61.121094 48.328125 C 61.683594 50.582031 62.226562 52.84375 62.894531 55.125 C 63.054688 54.5 63.222656 53.882812 63.367188 53.257812 C 63.761719 51.609375 64.15625 49.957031 64.519531 48.296875 C 64.605469 47.902344 64.765625 47.796875 65.152344 47.816406 C 65.84375 47.855469 66.535156 47.828125 67.265625 47.828125 C 67.265625 48.089844 67.265625 48.308594 67.265625 48.589844 C 66.40625 48.585938 66.332031 49.203125 66.332031 49.855469 C 66.328125 52.253906 66.328125 54.648438 66.332031 57.046875 C 66.332031 57.667969 66.425781 58.238281 67.199219 58.335938 C 67.199219 58.570312 67.199219 58.753906 67.199219 58.992188 C 66.125 58.992188 65.0625 58.992188 63.957031 58.992188 C 63.890625 58.640625 63.820312 58.394531 64.3125 58.1875 C 64.570312 58.082031 64.785156 57.554688 64.792969 57.214844 C 64.835938 54.886719 64.8125 52.550781 64.8125 50.21875 C 64.785156 50.257812 64.710938 50.324219 64.691406 50.402344 C 64.054688 53.09375 63.425781 55.785156 62.78125 58.472656 C 62.734375 58.675781 62.550781 58.847656 62.433594 59.03125 C 62.300781 58.855469 62.097656 58.699219 62.050781 58.507812 C 61.390625 55.820312 60.757812 53.128906 60.113281 50.4375 C 60.089844 50.34375 60.042969 50.253906 59.988281 50.109375 Z M 59.988281 50.109375 " fill-opacity="1" fill-rule="evenodd"/><path fill="#ffffff" d="M 123.46875 53.625 C 122.5625 53.625 121.746094 53.625 120.832031 53.625 C 120.832031 54.410156 120.828125 55.179688 120.832031 55.949219 C 120.832031 56.367188 120.832031 56.789062 120.835938 57.210938 C 120.835938 57.785156 120.992188 58.25 121.675781 58.335938 C 121.675781 58.5625 121.675781 58.761719 121.675781 59.003906 C 120.59375 59.003906 119.53125 59.003906 118.445312 59.003906 C 118.445312 58.78125 118.445312 58.597656 118.445312 58.363281 C 119.261719 58.257812 119.332031 57.667969 119.324219 56.984375 C 119.308594 54.546875 119.3125 52.105469 119.324219 49.667969 C 119.328125 49.179688 119.210938 48.835938 118.710938 48.625 C 118.527344 48.546875 118.464844 48.195312 118.292969 47.863281 C 119.53125 47.863281 120.59375 47.863281 121.679688 47.863281 C 121.679688 48.101562 121.679688 48.304688 121.679688 48.554688 C 120.9375 48.664062 120.804688 49.179688 120.824219 49.839844 C 120.847656 50.757812 120.832031 51.679688 120.832031 52.628906 C 121.746094 52.628906 122.589844 52.628906 123.46875 52.628906 C 123.46875 51.484375 123.488281 50.394531 123.453125 49.304688 C 123.445312 49.105469 123.238281 48.789062 123.0625 48.738281 C 122.542969 48.589844 122.546875 48.289062 122.671875 47.855469 C 123.722656 47.855469 124.765625 47.855469 125.851562 47.855469 C 125.90625 48.21875 126.050781 48.542969 125.480469 48.71875 C 125.261719 48.785156 125.03125 49.234375 125.027344 49.511719 C 124.992188 52.140625 125.003906 54.765625 125.019531 57.394531 C 125.023438 57.800781 125.132812 58.164062 125.644531 58.296875 C 125.8125 58.339844 125.910156 58.679688 126.117188 59 C 124.8125 59 123.730469 59 122.644531 59 C 122.582031 58.644531 122.523438 58.386719 122.964844 58.230469 C 123.183594 58.15625 123.4375 57.808594 123.449219 57.578125 C 123.492188 56.28125 123.46875 54.980469 123.46875 53.625 Z M 123.46875 53.625 " fill-opacity="1" fill-rule="evenodd"/><path fill="#ffffff" d="M 83.964844 53.652344 C 83.964844 54.980469 83.945312 56.296875 83.984375 57.609375 C 83.992188 57.828125 84.261719 58.042969 84.425781 58.246094 C 84.585938 58.441406 84.769531 58.621094 84.941406 58.804688 C 84.894531 58.867188 84.847656 58.925781 84.800781 58.988281 C 83.726562 58.988281 82.648438 58.988281 81.570312 58.988281 C 81.492188 58.625 81.46875 58.367188 81.910156 58.179688 C 82.148438 58.078125 82.398438 57.664062 82.402344 57.386719 C 82.441406 54.738281 82.445312 52.089844 82.414062 49.445312 C 82.410156 49.1875 82.132812 48.921875 81.960938 48.675781 C 81.800781 48.453125 81.617188 48.246094 81.445312 48.03125 C 81.492188 47.976562 81.539062 47.921875 81.585938 47.867188 C 82.625 47.867188 83.660156 47.867188 84.738281 47.867188 C 84.878906 48.207031 84.90625 48.480469 84.441406 48.675781 C 84.234375 48.761719 83.992188 49.054688 83.984375 49.261719 C 83.941406 50.371094 83.960938 51.480469 83.960938 52.640625 C 84.828125 52.640625 85.675781 52.640625 86.589844 52.640625 C 86.589844 51.5 86.640625 50.390625 86.554688 49.292969 C 86.53125 48.992188 86.109375 48.71875 85.765625 48.507812 C 85.765625 48.300781 85.765625 48.09375 85.765625 47.855469 C 86.832031 47.855469 87.871094 47.855469 88.9375 47.855469 C 89.074219 48.242188 89.082031 48.5 88.613281 48.691406 C 88.390625 48.78125 88.148438 49.148438 88.144531 49.394531 C 88.109375 52.0625 88.105469 54.730469 88.140625 57.398438 C 88.144531 57.675781 88.375 58.113281 88.601562 58.191406 C 89.070312 58.351562 89.03125 58.621094 88.980469 59 C 87.917969 59 86.855469 59 85.765625 59 C 85.765625 58.777344 85.765625 58.578125 85.765625 58.34375 C 86.410156 58.210938 86.621094 57.777344 86.609375 57.15625 C 86.589844 56.003906 86.605469 54.851562 86.605469 53.652344 C 85.710938 53.652344 84.867188 53.652344 83.964844 53.652344 Z M 83.964844 53.652344 " fill-opacity="1" fill-rule="evenodd"/><path fill="#ffffff" d="M 93.613281 47.816406 C 94.421875 47.816406 95.113281 47.78125 95.796875 47.839844 C 95.984375 47.859375 96.210938 48.144531 96.308594 48.355469 C 97.339844 50.558594 98.34375 52.769531 99.429688 55.132812 C 99.460938 54.828125 99.492188 54.679688 99.488281 54.535156 C 99.457031 52.898438 99.429688 51.261719 99.390625 49.621094 C 99.375 49.132812 99.140625 48.832031 98.65625 48.644531 C 98.464844 48.574219 98.394531 48.203125 98.207031 47.859375 C 99.285156 47.859375 100.15625 47.859375 101.097656 47.859375 C 101.113281 48.085938 101.125 48.304688 101.140625 48.546875 C 100.449219 48.667969 100.222656 49.105469 100.214844 49.726562 C 100.195312 51.65625 100.160156 53.589844 100.140625 55.523438 C 100.128906 56.714844 100.140625 57.910156 100.140625 59.089844 C 99.601562 59.292969 99.378906 59.054688 99.1875 58.628906 C 98.007812 56.015625 96.804688 53.40625 95.609375 50.796875 C 95.5625 50.695312 95.5 50.597656 95.46875 50.539062 C 95.46875 52.730469 95.449219 54.945312 95.488281 57.160156 C 95.496094 57.667969 95.738281 58.113281 96.328125 58.296875 C 96.484375 58.347656 96.550781 58.6875 96.710938 58.996094 C 95.625 58.996094 94.691406 58.996094 93.699219 58.996094 C 93.660156 58.652344 93.585938 58.378906 94.042969 58.160156 C 94.300781 58.035156 94.542969 57.617188 94.566406 57.316406 C 94.660156 56.039062 94.679688 54.757812 94.699219 53.476562 C 94.71875 52.363281 94.714844 51.25 94.699219 50.132812 C 94.6875 49.488281 94.609375 48.882812 93.863281 48.589844 C 93.71875 48.535156 93.710938 48.140625 93.613281 47.816406 Z M 93.613281 47.816406 " fill-opacity="1" fill-rule="evenodd"/><path fill="#ffffff" d="M 125.949219 53.402344 C 126.167969 52.324219 126.367188 51.234375 126.621094 50.160156 C 126.707031 49.804688 126.898438 49.457031 127.09375 49.140625 C 127.660156 48.210938 128.425781 47.574219 129.597656 47.636719 C 130.730469 47.699219 131.460938 48.378906 131.933594 49.3125 C 132.753906 50.933594 132.976562 52.6875 132.742188 54.460938 C 132.605469 55.46875 132.335938 56.476562 131.96875 57.421875 C 131.546875 58.5 130.71875 59.226562 129.488281 59.265625 C 128.242188 59.300781 127.484375 58.523438 126.933594 57.519531 C 126.242188 56.25 126.070312 54.859375 126.101562 53.433594 C 126.050781 53.425781 126 53.414062 125.949219 53.402344 Z M 127.613281 53.550781 C 127.777344 54.644531 127.910156 55.894531 128.164062 57.121094 C 128.328125 57.902344 128.933594 58.414062 129.488281 58.371094 C 130.207031 58.320312 130.488281 57.769531 130.691406 57.164062 C 130.722656 57.066406 130.761719 56.96875 130.789062 56.867188 C 131.222656 55.242188 131.28125 53.582031 131.113281 51.925781 C 131.023438 51.042969 130.773438 50.160156 130.5 49.308594 C 130.351562 48.847656 129.96875 48.511719 129.390625 48.542969 C 128.835938 48.570312 128.507812 48.894531 128.300781 49.363281 C 128.179688 49.648438 128.0625 49.953125 128.015625 50.257812 C 127.871094 51.292969 127.757812 52.335938 127.613281 53.550781 Z M 127.613281 53.550781 " fill-opacity="1" fill-rule="evenodd"/><path fill="#ffffff" d="M 107.800781 55.082031 C 107.800781 56.546875 107.800781 57.757812 107.800781 59.003906 C 105.710938 59.003906 103.722656 59.003906 101.6875 59.003906 C 101.625 58.640625 101.554688 58.363281 102.058594 58.199219 C 102.277344 58.125 102.519531 57.730469 102.523438 57.480469 C 102.5625 54.789062 102.566406 52.097656 102.535156 49.410156 C 102.53125 49.15625 102.296875 48.78125 102.074219 48.683594 C 101.660156 48.503906 101.617188 48.265625 101.710938 47.863281 C 103.613281 47.863281 105.515625 47.863281 107.503906 47.863281 C 107.503906 48.980469 107.503906 50.085938 107.503906 51.375 C 107.300781 51.207031 107.140625 51.085938 106.992188 50.945312 C 106.953125 50.910156 106.960938 50.828125 106.953125 50.765625 C 106.628906 48.9375 106.101562 48.550781 104.121094 48.75 C 104.121094 50.03125 104.121094 51.320312 104.121094 52.621094 C 104.941406 52.855469 105.375 52.535156 105.527344 51.582031 C 105.5625 51.363281 105.375 50.9375 105.839844 51.007812 C 105.957031 51.027344 106.089844 51.425781 106.09375 51.652344 C 106.117188 52.851562 106.101562 54.050781 106.09375 55.246094 C 106.09375 55.304688 106.066406 55.367188 106.050781 55.429688 C 105.621094 55.605469 105.570312 55.371094 105.539062 55.019531 C 105.4375 53.933594 105.078125 53.574219 104.085938 53.636719 C 104.085938 54.269531 104.085938 54.910156 104.085938 55.550781 C 104.085938 55.949219 104.058594 56.351562 104.085938 56.746094 C 104.125 57.273438 103.84375 57.96875 104.664062 58.144531 C 105.714844 58.371094 106.507812 58.035156 106.828125 57.214844 C 107.03125 56.695312 107.121094 56.125 107.308594 55.59375 C 107.367188 55.425781 107.574219 55.308594 107.800781 55.082031 Z M 107.800781 55.082031 " fill-opacity="1" fill-rule="evenodd"/><g clip-path="url(#5c86316bb1)"><path fill="#ffffff" d="M 181.609375 18.3125 C 175.269531 15.652344 168.933594 12.992188 162.601562 10.320312 C 161.300781 9.769531 160.910156 9.910156 160.390625 11.207031 C 160.289062 11.464844 160.027344 12.085938 159.726562 12.804688 C 159.535156 13.25 159.367188 13.644531 159.179688 14.070312 C 159.1875 14.074219 159.191406 14.074219 159.195312 14.078125 C 159.070312 14.371094 158.953125 14.648438 158.847656 14.90625 C 158.84375 14.90625 158.839844 14.902344 158.835938 14.902344 C 158.675781 15.292969 158.515625 15.679688 158.355469 16.066406 C 158.355469 16.070312 158.351562 16.078125 158.351562 16.078125 C 156.644531 20.234375 154.960938 24.324219 153.28125 28.402344 C 154.148438 28.976562 154.242188 28.984375 154.949219 28.390625 C 156.089844 27.429688 157.390625 26.894531 158.894531 27.089844 C 159.714844 27.199219 160.542969 27.398438 161.324219 27.679688 C 162.898438 28.242188 162.898438 28.277344 162.355469 29.855469 C 160.96875 33.875 159.050781 37.652344 157.054688 41.390625 C 155.703125 43.914062 154.25 46.378906 152.371094 48.546875 C 150.714844 50.453125 148.648438 51.527344 146.058594 51.378906 C 145.136719 51.324219 144.660156 51.589844 144.308594 52.457031 C 144.046875 53.097656 143.78125 53.734375 143.515625 54.371094 C 142.265625 57.371094 141.003906 60.367188 139.765625 63.375 C 139.34375 64.410156 139.546875 64.914062 140.535156 65.429688 C 140.851562 65.59375 141.171875 65.761719 141.503906 65.878906 C 142.699219 66.304688 143.609375 67.023438 144.425781 68.035156 C 146.757812 70.917969 149.898438 72.136719 153.5625 71.859375 C 154.730469 71.773438 155.761719 71.964844 156.789062 72.4375 C 157.109375 72.585938 157.4375 72.730469 157.769531 72.859375 C 158.960938 73.308594 159.523438 73.085938 160.003906 71.917969 C 161.445312 68.429688 162.84375 64.925781 164.316406 61.449219 C 164.773438 60.363281 164.617188 59.585938 163.746094 58.769531 C 162.109375 57.234375 161.507812 55.226562 161.683594 53.042969 C 161.8125 51.457031 162.074219 49.871094 162.445312 48.328125 C 163.566406 43.648438 165.160156 39.117188 167.015625 34.679688 C 167.5625 33.375 168.25 32.125 168.925781 30.746094 C 169.902344 31.242188 170.785156 31.628906 171.601562 32.121094 C 173.226562 33.105469 174.164062 34.546875 174.316406 36.480469 C 174.398438 37.53125 174.5 37.609375 175.582031 37.851562 C 177.300781 33.625 179.019531 29.386719 180.753906 25.113281 C 180.882812 24.824219 182.539062 20.824219 182.621094 20.613281 C 183.144531 19.25 182.972656 18.886719 181.609375 18.3125 Z M 152.449219 67.652344 C 149.292969 67.722656 146.507812 65.109375 146.433594 62.007812 C 146.351562 58.609375 148.832031 55.925781 152.136719 55.839844 C 155.453125 55.75 158.179688 58.320312 158.277344 61.621094 C 158.371094 64.824219 155.710938 67.578125 152.449219 67.652344 Z M 167.855469 26.933594 C 166.617188 26.945312 165.53125 25.863281 165.511719 24.601562 C 165.496094 23.359375 166.566406 22.292969 167.839844 22.285156 C 169.148438 22.273438 170.148438 23.265625 170.164062 24.585938 C 170.175781 25.835938 169.113281 26.917969 167.855469 26.933594 Z M 167.855469 26.933594 " fill-opacity="1" fill-rule="evenodd"/></g><g clip-path="url(#ec59f01267)"><path fill="#ffffff" d="M 55.316406 63.753906 C 55.238281 63.429688 55.117188 63.109375 54.988281 62.804688 C 53.546875 59.382812 52.09375 55.96875 50.65625 52.546875 C 50.203125 51.472656 49.980469 51.289062 48.816406 51.339844 C 46.53125 51.441406 44.597656 50.636719 43.066406 48.984375 C 42.085938 47.925781 41.171875 46.78125 40.386719 45.570312 C 37.578125 41.25 35.285156 36.648438 33.320312 31.890625 C 32.820312 30.679688 32.457031 29.414062 32.015625 28.125 C 32.769531 27.824219 33.402344 27.558594 34.046875 27.320312 C 36.152344 26.539062 38.117188 26.664062 39.875 28.207031 C 40.570312 28.816406 40.761719 28.792969 41.578125 28.195312 C 39.890625 24.113281 38.203125 20.019531 36.488281 15.875 C 36.464844 15.820312 36.40625 15.675781 36.328125 15.480469 C 36.21875 15.222656 36.113281 14.96875 36.007812 14.707031 C 36.007812 14.707031 36.007812 14.707031 36.003906 14.707031 C 35.40625 13.265625 34.464844 11 34.371094 10.785156 C 33.957031 9.800781 33.484375 9.617188 32.488281 10.042969 C 26.203125 12.710938 19.921875 15.378906 13.636719 18.046875 C 11.753906 18.847656 11.617188 19.226562 12.511719 21.070312 C 12.511719 21.074219 12.679688 21.5 12.890625 22.042969 C 12.886719 22.042969 12.882812 22.046875 12.878906 22.046875 C 12.917969 22.132812 12.953125 22.214844 12.988281 22.292969 C 13.347656 23.199219 13.777344 24.285156 13.824219 24.347656 C 15.601562 28.636719 17.351562 32.855469 19.097656 37.074219 C 19.40625 37.816406 19.609375 37.898438 20.246094 37.378906 C 20.453125 37.210938 20.578125 36.859375 20.609375 36.578125 C 20.722656 35.523438 20.882812 34.515625 21.558594 33.628906 C 22.59375 32.269531 24.019531 31.503906 25.558594 30.898438 C 25.695312 30.847656 26.007812 30.976562 26.089844 31.109375 C 26.523438 31.824219 26.976562 32.542969 27.296875 33.3125 C 28.195312 35.480469 29.097656 37.648438 29.882812 39.855469 C 31.265625 43.746094 32.613281 47.652344 33.164062 51.777344 C 33.550781 54.664062 32.960938 57.203125 30.761719 59.238281 C 30.273438 59.695312 30.179688 60.238281 30.410156 60.84375 C 30.597656 61.335938 30.789062 61.824219 30.992188 62.304688 C 32.335938 65.558594 33.683594 68.8125 35.039062 72.0625 C 35.460938 73.078125 36.066406 73.316406 37.101562 72.894531 C 37.816406 72.601562 38.511719 72.238281 39.25 72.007812 C 39.753906 71.847656 40.324219 71.757812 40.84375 71.816406 C 44.523438 72.230469 47.6875 71.136719 50.167969 68.421875 C 51.238281 67.25 52.269531 66.160156 53.820312 65.679688 C 54.078125 65.597656 54.316406 65.453125 54.558594 65.332031 C 55.285156 64.972656 55.5 64.542969 55.316406 63.753906 Z M 27.050781 26.800781 C 25.742188 26.800781 24.746094 25.804688 24.730469 24.480469 C 24.714844 23.167969 25.703125 22.164062 27.023438 22.160156 C 28.355469 22.152344 29.328125 23.117188 29.335938 24.453125 C 29.34375 25.753906 28.324219 26.804688 27.050781 26.800781 Z M 42.535156 67.65625 C 39.242188 67.597656 36.53125 64.867188 36.671875 61.585938 C 36.820312 58.03125 39.636719 55.800781 42.648438 55.820312 C 45.972656 55.84375 48.566406 58.542969 48.5 61.875 C 48.4375 65.058594 45.703125 67.710938 42.535156 67.65625 Z M 42.535156 67.65625 " fill-opacity="1" fill-rule="evenodd"/></g><path fill="#ffffff" d="M 133.152344 47.828125 C 134.410156 47.828125 135.625 47.785156 136.839844 47.839844 C 137.972656 47.890625 138.683594 48.550781 139.019531 49.625 C 139.3125 50.558594 139.300781 51.488281 138.976562 52.402344 C 138.523438 53.679688 137.710938 54.234375 136.351562 54.234375 C 136.101562 54.234375 135.855469 54.234375 135.546875 54.234375 C 135.546875 55.375 135.488281 56.488281 135.585938 57.585938 C 135.613281 57.898438 136.089844 58.167969 136.359375 58.460938 C 136.414062 58.421875 136.46875 58.382812 136.523438 58.34375 C 136.523438 58.542969 136.523438 58.746094 136.523438 58.992188 C 135.386719 58.992188 134.265625 58.992188 133.132812 58.992188 C 132.988281 58.585938 133.082031 58.351562 133.5 58.164062 C 133.710938 58.070312 133.941406 57.738281 133.945312 57.511719 C 133.980469 54.820312 133.988281 52.132812 133.960938 49.445312 C 133.960938 49.191406 133.726562 48.796875 133.511719 48.71875 C 133.03125 48.542969 133.03125 48.273438 133.152344 47.828125 Z M 135.566406 53.304688 C 136.710938 53.421875 137.277344 53.09375 137.460938 52.0625 C 137.582031 51.378906 137.585938 50.640625 137.46875 49.957031 C 137.289062 48.890625 136.691406 48.566406 135.566406 48.78125 C 135.566406 50.269531 135.566406 51.765625 135.566406 53.304688 Z M 135.566406 53.304688 " fill-opacity="1" fill-rule="evenodd"/><path fill="#ffffff" d="M 112.636719 54.914062 C 113.035156 54.808594 113.191406 54.9375 113.277344 55.316406 C 113.425781 55.945312 113.609375 56.570312 113.867188 57.164062 C 114.019531 57.515625 114.289062 57.855469 114.589844 58.089844 C 115.273438 58.628906 116.167969 58.351562 116.503906 57.550781 C 116.964844 56.457031 116.558594 55.199219 115.535156 54.589844 C 115.265625 54.429688 114.992188 54.273438 114.710938 54.136719 C 112.582031 53.089844 112.390625 51.074219 113.039062 49.238281 C 113.621094 47.589844 115.058594 47.234375 116.777344 48.207031 C 116.996094 48.054688 117.210938 47.902344 117.425781 47.75 C 117.5 47.789062 117.566406 47.828125 117.640625 47.867188 C 117.640625 48.953125 117.652344 50.042969 117.621094 51.128906 C 117.617188 51.273438 117.359375 51.40625 117.128906 51.632812 C 116.984375 51.019531 116.921875 50.582031 116.769531 50.179688 C 116.609375 49.753906 116.425781 49.308594 116.136719 48.964844 C 115.507812 48.207031 114.476562 48.441406 114.148438 49.371094 C 113.796875 50.371094 114.136719 51.304688 115.0625 51.855469 C 115.546875 52.144531 116.042969 52.421875 116.535156 52.699219 C 118.667969 53.902344 118.308594 57.546875 116.949219 58.691406 C 116.175781 59.351562 115.035156 59.46875 114.132812 58.921875 C 113.9375 58.804688 113.753906 58.664062 113.621094 58.566406 C 113.320312 58.761719 113.046875 58.941406 112.636719 59.207031 C 112.636719 57.636719 112.636719 56.296875 112.636719 54.914062 Z M 112.636719 54.914062 " fill-opacity="1" fill-rule="evenodd"/><path fill="#ffffff" d="M 71.945312 55.226562 C 71.308594 55.226562 70.703125 55.214844 70.097656 55.238281 C 69.96875 55.242188 69.757812 55.367188 69.734375 55.472656 C 69.574219 56.164062 69.410156 56.859375 69.339844 57.566406 C 69.320312 57.78125 69.589844 58.035156 69.742188 58.261719 C 69.882812 58.46875 70.050781 58.664062 70.203125 58.863281 C 70.15625 58.910156 70.105469 58.957031 70.058594 59.007812 C 69.246094 59.007812 68.433594 59.007812 67.394531 59.007812 C 67.617188 58.660156 67.777344 58.433594 67.917969 58.195312 C 68.136719 57.824219 68.4375 57.46875 68.542969 57.066406 C 69.292969 54.148438 70 51.214844 70.734375 48.289062 C 70.796875 48.046875 70.90625 47.695312 71.082031 47.625 C 71.445312 47.484375 71.761719 47.554688 71.886719 48.09375 C 72.519531 50.851562 73.1875 53.597656 73.882812 56.339844 C 74.070312 57.078125 74.050781 57.957031 74.953125 58.355469 C 75.070312 58.40625 75.058594 58.746094 75.121094 59.003906 C 73.957031 59.003906 72.898438 59.003906 71.777344 59.003906 C 71.785156 58.679688 71.605469 58.375 72.125 58.222656 C 72.304688 58.167969 72.496094 57.707031 72.460938 57.464844 C 72.347656 56.726562 72.132812 56.003906 71.945312 55.226562 Z M 70.957031 50.710938 C 70.90625 50.707031 70.855469 50.699219 70.804688 50.695312 C 70.535156 51.886719 70.265625 53.078125 69.984375 54.304688 C 70.597656 54.304688 71.144531 54.304688 71.761719 54.304688 C 71.484375 53.066406 71.21875 51.890625 70.957031 50.710938 Z M 70.957031 50.710938 " fill-opacity="1" fill-rule="evenodd"/><path fill="#ffffff" d="M 80.796875 51.9375 C 80.609375 51.9375 80.449219 51.9375 80.261719 51.9375 C 80.238281 51.859375 80.210938 51.785156 80.191406 51.710938 C 79.96875 50.929688 79.785156 50.132812 79.511719 49.367188 C 79.332031 48.867188 78.921875 48.5625 78.347656 48.554688 C 77.789062 48.546875 77.402344 48.871094 77.230469 49.332031 C 76.960938 50.050781 76.660156 50.804688 76.632812 51.554688 C 76.582031 52.992188 76.679688 54.4375 76.792969 55.875 C 76.828125 56.3125 77.058594 56.761719 77.28125 57.15625 C 77.949219 58.335938 79.171875 58.351562 79.871094 57.183594 C 80.167969 56.691406 80.335938 56.121094 80.570312 55.585938 C 81.09375 55.671875 81.148438 55.988281 80.964844 56.4375 C 80.804688 56.828125 80.710938 57.238281 80.535156 57.617188 C 80.074219 58.597656 79.363281 59.265625 78.214844 59.273438 C 77.0625 59.28125 76.21875 58.675781 75.78125 57.671875 C 75.390625 56.785156 75.085938 55.816406 74.960938 54.855469 C 74.71875 53.046875 74.875 51.25 75.652344 49.554688 C 76.273438 48.199219 77.335938 47.476562 78.539062 47.679688 C 79.054688 47.769531 79.53125 48.070312 80.023438 48.273438 C 80.195312 48.121094 80.417969 47.929688 80.636719 47.738281 C 80.691406 47.777344 80.746094 47.8125 80.796875 47.851562 C 80.796875 49.203125 80.796875 50.558594 80.796875 51.9375 Z M 80.796875 51.9375 " fill-opacity="1" fill-rule="evenodd"/><path fill="#ffffff" d="M 89.777344 47.851562 C 90.839844 47.851562 91.902344 47.851562 93.015625 47.851562 C 93.035156 48.070312 93.050781 48.269531 93.070312 48.515625 C 92.257812 48.648438 92.132812 49.1875 92.140625 49.894531 C 92.167969 52.285156 92.152344 54.679688 92.152344 57.074219 C 92.152344 57.617188 92.175781 58.121094 92.855469 58.3125 C 92.992188 58.351562 93.039062 58.707031 93.160156 58.992188 C 91.9375 58.992188 90.839844 58.992188 89.722656 58.992188 C 89.65625 58.628906 89.667969 58.398438 90.078125 58.191406 C 90.347656 58.054688 90.605469 57.605469 90.609375 57.292969 C 90.652344 54.691406 90.648438 52.085938 90.613281 49.484375 C 90.609375 49.214844 90.3125 48.9375 90.128906 48.679688 C 89.96875 48.457031 89.773438 48.257812 89.589844 48.046875 C 89.65625 47.980469 89.71875 47.914062 89.777344 47.851562 Z M 89.777344 47.851562 " fill-opacity="1" fill-rule="evenodd"/><path fill="#ffffff" d="M 107.640625 66.8125 C 108.082031 66.921875 108.121094 67.128906 107.984375 67.480469 C 107.628906 68.414062 107.019531 69.066406 106.023438 69.238281 C 104.828125 69.449219 103.820312 69.082031 103.082031 68.089844 C 102.066406 66.722656 102.058594 64.363281 103.066406 62.988281 C 103.921875 61.8125 105.367188 61.457031 106.710938 62.015625 C 107.007812 62.140625 107.402344 62.035156 107.914062 62.035156 C 107.914062 62.746094 107.921875 63.550781 107.902344 64.359375 C 107.898438 64.449219 107.726562 64.597656 107.628906 64.605469 C 107.53125 64.613281 107.367188 64.496094 107.324219 64.398438 C 107.207031 64.109375 107.160156 63.789062 107.042969 63.5 C 106.761719 62.78125 106.175781 62.363281 105.527344 62.378906 C 104.878906 62.394531 104.382812 62.792969 104.128906 63.550781 C 103.75 64.675781 103.710938 65.820312 104.058594 66.957031 C 104.335938 67.859375 105 68.386719 105.757812 68.40625 C 106.457031 68.417969 106.964844 68.113281 107.296875 67.507812 C 107.414062 67.285156 107.519531 67.058594 107.640625 66.8125 Z M 107.640625 66.8125 " fill-opacity="1" fill-rule="evenodd"/><path fill="#ffffff" d="M 96.078125 69.109375 C 96.242188 68.867188 96.3125 68.648438 96.417969 68.628906 C 96.90625 68.539062 97.007812 68.207031 97.011719 67.796875 C 97.019531 66.261719 97.046875 64.726562 97.003906 63.195312 C 96.996094 62.941406 96.664062 62.695312 96.476562 62.449219 C 96.375 62.316406 96.253906 62.195312 96.027344 61.945312 C 97.21875 61.945312 98.183594 61.945312 99.363281 61.945312 C 99.183594 62.175781 99.101562 62.386719 98.960938 62.4375 C 98.5625 62.582031 98.410156 62.84375 98.414062 63.25 C 98.425781 64.804688 98.4375 66.363281 98.429688 67.917969 C 98.429688 68.34375 98.582031 68.503906 99.023438 68.515625 C 100.523438 68.550781 100.800781 68.367188 101.214844 66.929688 C 101.335938 66.507812 101.335938 66.507812 101.71875 66.628906 C 101.71875 67.464844 101.71875 68.273438 101.71875 69.109375 C 99.847656 69.109375 98.0625 69.109375 96.078125 69.109375 Z M 96.078125 69.109375 " fill-opacity="1" fill-rule="evenodd"/><path fill="#ffffff" d="M 89.878906 61.941406 C 91.074219 61.941406 92.035156 61.941406 93.226562 61.941406 C 93.011719 62.195312 92.921875 62.386719 92.785156 62.433594 C 92.347656 62.582031 92.222656 62.890625 92.226562 63.308594 C 92.234375 64.796875 92.253906 66.289062 92.238281 67.78125 C 92.234375 68.3125 92.40625 68.523438 92.964844 68.519531 C 94.375 68.507812 94.722656 68.257812 95.082031 66.894531 C 95.121094 66.753906 95.324219 66.652344 95.453125 66.53125 C 95.527344 66.675781 95.671875 66.824219 95.664062 66.96875 C 95.632812 67.675781 95.5625 68.378906 95.503906 69.105469 C 93.667969 69.105469 91.886719 69.105469 89.898438 69.105469 C 90.082031 68.871094 90.160156 68.664062 90.296875 68.617188 C 90.664062 68.484375 90.835938 68.269531 90.835938 67.875 C 90.835938 66.34375 90.859375 64.808594 90.859375 63.273438 C 90.859375 62.867188 90.734375 62.542969 90.269531 62.429688 C 90.144531 62.398438 90.0625 62.183594 89.878906 61.941406 Z M 89.878906 61.941406 " fill-opacity="1" fill-rule="evenodd"/></svg>