<svg xmlns="http://www.w3.org/2000/svg" xmlns:xlink="http://www.w3.org/1999/xlink" width="260" zoomAndPan="magnify" viewBox="0 0 194.87999 90" height="110" preserveAspectRatio="xMidYMid meet" version="1.0"><defs><clipPath id="923c785d24"><path d="M 157 19.585938 L 191.738281 19.585938 L 191.738281 54 L 157 54 Z M 157 19.585938 " clip-rule="nonzero"/></clipPath><clipPath id="1d8e076054"><path d="M 3 19.585938 L 37 19.585938 L 37 54 L 3 54 Z M 3 19.585938 " clip-rule="nonzero"/></clipPath><clipPath id="3e533500b7"><path d="M 123 19.585938 L 158 19.585938 L 158 54 L 123 54 Z M 123 19.585938 " clip-rule="nonzero"/></clipPath><clipPath id="dcb8621e7d"><path d="M 32 19.585938 L 66 19.585938 L 66 54 L 32 54 Z M 32 19.585938 " clip-rule="nonzero"/></clipPath><clipPath id="7e2e55b1a5"><path d="M 84 19.585938 L 102 19.585938 L 102 31 L 84 31 Z M 84 19.585938 " clip-rule="nonzero"/></clipPath><clipPath id="4ab992c4b9"><path d="M 69 19.585938 L 82 19.585938 L 82 31 L 69 31 Z M 69 19.585938 " clip-rule="nonzero"/></clipPath><clipPath id="fc06406f2e"><path d="M 102 19.585938 L 114 19.585938 L 114 31 L 102 31 Z M 102 19.585938 " clip-rule="nonzero"/></clipPath><clipPath id="7734065744"><path d="M 27 58 L 32 58 L 32 63.058594 L 27 63.058594 Z M 27 58 " clip-rule="nonzero"/></clipPath><clipPath id="115f0dc92d"><path d="M 76 58 L 80 58 L 80 63.058594 L 76 63.058594 Z M 76 58 " clip-rule="nonzero"/></clipPath></defs><g clip-path="url(#923c785d24)"><path fill="#1c59a7" d="M 182.433594 40.730469 C 182.894531 40.800781 183.339844 40.832031 183.765625 40.9375 C 184.238281 41.054688 184.722656 41.191406 185.164062 41.398438 C 186.476562 42.015625 187.117188 43.109375 187.253906 44.527344 C 187.363281 45.660156 187.15625 46.765625 186.917969 47.867188 C 186.554688 49.535156 186.203125 51.210938 185.847656 52.878906 C 185.816406 53.019531 185.78125 53.160156 185.75 53.285156 C 185.441406 53.375 177.214844 53.386719 176.796875 53.304688 C 176.796875 53.222656 176.78125 53.132812 176.796875 53.050781 C 177.074219 51.722656 177.367188 50.394531 177.636719 49.066406 C 177.78125 48.335938 177.875 47.597656 177.859375 46.847656 C 177.828125 45.253906 176.894531 44.546875 175.578125 44.5 C 173.214844 44.421875 170.84375 44.441406 168.476562 44.425781 C 168.089844 44.421875 168.070312 44.449219 167.976562 44.871094 C 167.527344 46.976562 167.082031 49.085938 166.632812 51.191406 C 166.503906 51.804688 166.371094 52.417969 166.242188 53.027344 C 166.171875 53.34375 166.15625 53.355469 165.78125 53.355469 C 164.125 53.359375 162.472656 53.355469 160.820312 53.355469 C 159.792969 53.355469 158.765625 53.355469 157.738281 53.355469 C 157.613281 53.355469 157.484375 53.34375 157.316406 53.335938 C 157.410156 52.886719 157.488281 52.476562 157.570312 52.074219 C 158.476562 47.796875 159.382812 43.519531 160.289062 39.242188 C 161.054688 35.628906 161.828125 32.019531 162.59375 28.40625 C 163.175781 25.671875 163.75 22.941406 164.332031 20.210938 C 164.410156 19.832031 164.417969 19.828125 164.789062 19.828125 C 170.671875 19.828125 176.550781 19.8125 182.433594 19.847656 C 184.015625 19.855469 185.605469 19.949219 187.148438 20.367188 C 188.96875 20.863281 190.316406 21.910156 191.039062 23.691406 C 191.390625 24.566406 191.515625 25.484375 191.453125 26.421875 C 191.246094 29.578125 190.523438 32.609375 189.316406 35.527344 C 189.039062 36.207031 188.683594 36.84375 188.246094 37.433594 C 187.519531 38.410156 186.574219 39.078125 185.433594 39.457031 C 184.550781 39.753906 183.644531 39.984375 182.742188 40.242188 C 182.417969 40.335938 182.414062 40.332031 182.433594 40.730469 Z M 169.664062 36.90625 C 169.878906 36.917969 170.019531 36.929688 170.160156 36.929688 C 172.382812 36.929688 174.609375 36.933594 176.832031 36.925781 C 177.261719 36.925781 177.691406 36.902344 178.117188 36.839844 C 179.167969 36.6875 180.007812 36.199219 180.492188 35.210938 C 180.652344 34.886719 180.804688 34.546875 180.890625 34.195312 C 181.191406 32.980469 181.476562 31.761719 181.738281 30.535156 C 181.839844 30.054688 181.875 29.558594 181.800781 29.058594 C 181.679688 28.257812 181.21875 27.785156 180.457031 27.625 C 180.011719 27.53125 179.554688 27.46875 179.105469 27.464844 C 176.75 27.449219 174.398438 27.453125 172.042969 27.453125 C 171.917969 27.453125 171.789062 27.46875 171.632812 27.476562 C 170.976562 30.613281 170.328125 33.726562 169.664062 36.90625 Z M 169.664062 36.90625 " fill-opacity="1" fill-rule="evenodd"/></g><g clip-path="url(#1d8e076054)"><path fill="#1c59a7" d="M 27.453125 30.207031 C 27.453125 29.96875 27.460938 29.789062 27.453125 29.609375 C 27.445312 29.324219 27.457031 29.03125 27.402344 28.753906 C 27.296875 28.195312 26.964844 27.792969 26.453125 27.535156 C 25.875 27.238281 25.246094 27.113281 24.613281 27.078125 C 23.585938 27.019531 22.558594 26.984375 21.53125 27 C 20.636719 27.015625 19.746094 27.109375 18.863281 27.285156 C 17.078125 27.644531 15.894531 28.699219 15.207031 30.367188 C 14.75 31.484375 14.4375 32.640625 14.183594 33.816406 C 13.769531 35.742188 13.355469 37.671875 12.976562 39.605469 C 12.742188 40.792969 12.527344 41.992188 12.546875 43.214844 C 12.550781 43.5 12.582031 43.789062 12.648438 44.066406 C 12.828125 44.847656 13.316406 45.382812 14.042969 45.695312 C 14.574219 45.925781 15.132812 46.039062 15.703125 46.109375 C 16.949219 46.261719 18.199219 46.214844 19.445312 46.171875 C 20.324219 46.140625 21.203125 46.023438 22.054688 45.761719 C 23.292969 45.378906 24.148438 44.582031 24.652344 43.394531 C 25.011719 42.546875 25.21875 41.660156 25.371094 40.757812 C 25.378906 40.71875 25.363281 40.679688 25.351562 40.589844 C 25.210938 40.578125 25.0625 40.558594 24.914062 40.558594 C 23.183594 40.558594 21.453125 40.558594 19.71875 40.558594 C 19.582031 40.558594 19.4375 40.558594 19.269531 40.558594 C 19.261719 40.441406 19.238281 40.351562 19.253906 40.269531 C 19.636719 38.441406 20.019531 36.617188 20.40625 34.789062 C 20.46875 34.503906 20.5 34.488281 20.808594 34.476562 C 20.898438 34.472656 20.988281 34.476562 21.082031 34.476562 C 25.660156 34.476562 30.242188 34.476562 34.824219 34.476562 C 35.003906 34.476562 35.183594 34.476562 35.382812 34.476562 C 35.394531 34.609375 35.425781 34.699219 35.410156 34.777344 C 34.789062 37.902344 34.253906 41.046875 33.457031 44.128906 C 33.125 45.421875 32.707031 46.6875 32.046875 47.855469 C 30.671875 50.273438 28.636719 51.863281 26.015625 52.722656 C 24.9375 53.074219 23.824219 53.253906 22.695312 53.363281 C 19.515625 53.671875 16.328125 53.621094 13.144531 53.570312 C 11.652344 53.542969 10.160156 53.433594 8.703125 53.039062 C 7.113281 52.609375 5.753906 51.808594 4.714844 50.511719 C 3.941406 49.546875 3.535156 48.402344 3.300781 47.195312 C 3.050781 45.910156 3.105469 44.621094 3.28125 43.332031 C 3.839844 39.253906 4.726562 35.238281 5.804688 31.269531 C 6.203125 29.792969 6.660156 28.335938 7.363281 26.96875 C 8.964844 23.851562 11.445312 21.773438 14.722656 20.621094 C 15.945312 20.191406 17.203125 19.945312 18.488281 19.816406 C 21.144531 19.546875 23.8125 19.574219 26.480469 19.597656 C 27.636719 19.609375 28.792969 19.664062 29.945312 19.757812 C 31.230469 19.867188 32.488281 20.132812 33.679688 20.660156 C 35.566406 21.488281 36.535156 22.960938 36.757812 24.984375 C 36.941406 26.640625 36.746094 28.269531 36.445312 29.894531 C 36.390625 30.191406 36.375 30.199219 36.058594 30.207031 C 35.707031 30.210938 35.355469 30.207031 35.003906 30.207031 C 32.660156 30.207031 30.320312 30.207031 27.976562 30.207031 C 27.820312 30.207031 27.667969 30.207031 27.453125 30.207031 Z M 27.453125 30.207031 " fill-opacity="1" fill-rule="evenodd"/></g><g clip-path="url(#3e533500b7)"><path fill="#1c59a7" d="M 136.691406 53.582031 C 135.882812 53.582031 135.074219 53.617188 134.269531 53.578125 C 132.503906 53.488281 130.742188 53.367188 129.046875 52.800781 C 127.40625 52.25 126.046875 51.308594 125.089844 49.835938 C 124.394531 48.773438 124.078125 47.585938 123.960938 46.332031 C 123.839844 45.03125 123.988281 43.75 124.179688 42.46875 C 124.582031 39.78125 125.132812 37.125 125.765625 34.484375 C 126.214844 32.59375 126.679688 30.699219 127.335938 28.867188 C 128.105469 26.722656 129.21875 24.789062 130.96875 23.285156 C 132.667969 21.824219 134.625 20.851562 136.789062 20.300781 C 138.039062 19.980469 139.3125 19.832031 140.597656 19.730469 C 142.480469 19.585938 144.367188 19.578125 146.25 19.59375 C 147.875 19.609375 149.5 19.679688 151.105469 19.980469 C 152.785156 20.300781 154.304688 20.96875 155.574219 22.152344 C 156.71875 23.21875 157.316406 24.5625 157.578125 26.089844 C 157.808594 27.445312 157.714844 28.792969 157.523438 30.144531 C 157.015625 33.753906 156.273438 37.320312 155.390625 40.855469 C 154.988281 42.476562 154.527344 44.082031 153.824219 45.605469 C 152.882812 47.644531 151.617188 49.425781 149.761719 50.726562 C 148.316406 51.742188 146.726562 52.4375 145.019531 52.859375 C 143.765625 53.167969 142.5 53.371094 141.210938 53.4375 C 139.707031 53.515625 138.199219 53.582031 136.695312 53.652344 C 136.691406 53.628906 136.691406 53.605469 136.691406 53.582031 Z M 142.613281 27.167969 C 141.808594 27.226562 140.78125 27.273438 139.761719 27.386719 C 138.855469 27.488281 138.019531 27.808594 137.335938 28.445312 C 136.671875 29.074219 136.160156 29.804688 135.871094 30.683594 C 135.726562 31.113281 135.585938 31.550781 135.480469 31.996094 C 134.765625 35.003906 134.019531 38.007812 133.558594 41.070312 C 133.449219 41.800781 133.367188 42.550781 133.386719 43.289062 C 133.421875 44.519531 133.792969 45.339844 135.367188 45.710938 C 135.832031 45.824219 136.3125 45.910156 136.789062 45.941406 C 138.359375 46.042969 139.933594 46.085938 141.5 45.875 C 142.132812 45.789062 142.75 45.640625 143.332031 45.359375 C 144.296875 44.898438 144.910156 44.109375 145.367188 43.171875 C 145.976562 41.917969 146.335938 40.578125 146.679688 39.238281 C 147.351562 36.59375 147.878906 33.917969 148.230469 31.210938 C 148.300781 30.644531 148.339844 30.070312 148.257812 29.492188 C 148.128906 28.601562 147.703125 27.941406 146.839844 27.644531 C 146.378906 27.484375 145.890625 27.363281 145.402344 27.316406 C 144.550781 27.230469 143.691406 27.21875 142.613281 27.167969 Z M 142.613281 27.167969 " fill-opacity="1" fill-rule="evenodd"/></g><g clip-path="url(#dcb8621e7d)"><path fill="#1c59a7" d="M 65.785156 53.332031 C 62.777344 53.332031 59.816406 53.332031 56.820312 53.332031 C 56.789062 53.1875 56.742188 53.054688 56.730469 52.917969 C 56.617188 51.578125 56.511719 50.234375 56.398438 48.894531 C 56.371094 48.554688 56.347656 48.21875 56.308594 47.878906 C 56.277344 47.609375 56.226562 47.574219 55.964844 47.554688 C 55.875 47.550781 55.78125 47.554688 55.691406 47.554688 C 52.023438 47.554688 48.351562 47.554688 44.683594 47.554688 C 44.667969 47.554688 44.65625 47.554688 44.644531 47.554688 C 44.285156 47.496094 44.078125 47.648438 43.925781 47.984375 C 43.554688 48.804688 43.148438 49.609375 42.753906 50.417969 C 42.332031 51.289062 41.90625 52.15625 41.492188 53.027344 C 41.386719 53.253906 41.265625 53.363281 40.996094 53.363281 C 38.144531 53.351562 35.296875 53.355469 32.445312 53.355469 C 32.367188 53.355469 32.292969 53.347656 32.160156 53.339844 C 32.230469 53.171875 32.285156 53.035156 32.351562 52.902344 C 33.824219 50.019531 35.296875 47.136719 36.769531 44.253906 C 40.859375 36.242188 44.949219 28.230469 49.027344 20.214844 C 49.183594 19.914062 49.363281 19.820312 49.691406 19.820312 C 53.878906 19.832031 58.070312 19.828125 62.261719 19.828125 C 62.339844 19.828125 62.417969 19.832031 62.496094 19.828125 C 62.671875 19.820312 62.75 19.902344 62.761719 20.082031 C 62.835938 20.953125 62.917969 21.824219 63 22.695312 C 63.09375 23.710938 63.191406 24.722656 63.285156 25.738281 C 63.371094 26.703125 63.453125 27.664062 63.542969 28.625 C 63.636719 29.652344 63.730469 30.679688 63.828125 31.707031 C 63.886719 32.371094 63.945312 33.035156 64.007812 33.695312 C 64.105469 34.761719 64.203125 35.828125 64.300781 36.894531 C 64.386719 37.859375 64.46875 38.820312 64.558594 39.78125 C 64.652344 40.808594 64.75 41.835938 64.84375 42.863281 C 64.902344 43.527344 64.960938 44.191406 65.023438 44.851562 C 65.121094 45.917969 65.21875 46.984375 65.316406 48.050781 C 65.402344 49.027344 65.488281 50.003906 65.574219 50.980469 C 65.636719 51.667969 65.699219 52.355469 65.761719 53.046875 C 65.769531 53.125 65.773438 53.199219 65.785156 53.332031 Z M 47.5 41.125 C 47.988281 41.207031 55.527344 41.183594 55.847656 41.09375 C 55.847656 40.9375 55.855469 40.773438 55.847656 40.605469 C 55.832031 40.34375 55.804688 40.085938 55.78125 39.824219 C 55.71875 38.980469 55.660156 38.132812 55.597656 37.289062 C 55.527344 36.402344 55.457031 35.519531 55.390625 34.632812 C 55.328125 33.785156 55.265625 32.941406 55.203125 32.09375 C 55.136719 31.246094 55.066406 30.402344 55.003906 29.558594 C 54.941406 28.699219 54.882812 27.839844 54.816406 26.980469 C 54.808594 26.832031 54.769531 26.683594 54.734375 26.453125 C 54.628906 26.597656 54.566406 26.660156 54.527344 26.734375 C 53.375 28.875 47.574219 40.738281 47.5 41.125 Z M 47.5 41.125 " fill-opacity="1" fill-rule="evenodd"/></g><path fill="#1c59a7" d="M 122.195312 45.804688 C 122.105469 46.257812 122.023438 46.664062 121.9375 47.066406 C 121.527344 48.992188 121.113281 50.917969 120.699219 52.84375 C 120.695312 52.871094 120.6875 52.894531 120.679688 52.921875 C 120.582031 53.355469 120.582031 53.355469 120.152344 53.355469 C 112.800781 53.355469 105.449219 53.355469 98.097656 53.355469 C 97.984375 53.355469 97.867188 53.355469 97.707031 53.355469 C 97.71875 53.203125 97.71875 53.078125 97.742188 52.957031 C 98.335938 50.148438 98.933594 47.339844 99.527344 44.53125 C 99.605469 44.175781 99.621094 44.160156 99.996094 44.160156 C 102.6875 44.15625 105.382812 44.15625 108.074219 44.160156 C 108.1875 44.160156 108.300781 44.179688 108.472656 44.195312 C 108.375 44.710938 108.285156 45.191406 108.183594 45.722656 C 108.382812 45.742188 108.542969 45.769531 108.703125 45.773438 C 110.105469 45.777344 111.511719 45.773438 112.917969 45.773438 C 115.832031 45.773438 118.746094 45.773438 121.660156 45.773438 C 121.824219 45.777344 121.988281 45.792969 122.195312 45.804688 Z M 122.195312 45.804688 " fill-opacity="1" fill-rule="evenodd"/><g clip-path="url(#7e2e55b1a5)"><path fill="#1c59a7" d="M 101.914062 19.871094 C 101.390625 20.550781 100.890625 21.203125 100.390625 21.851562 C 98.285156 24.59375 96.175781 27.332031 94.078125 30.078125 C 93.875 30.34375 93.664062 30.449219 93.328125 30.445312 C 90.519531 30.433594 87.710938 30.4375 84.902344 30.4375 C 84.773438 30.4375 84.648438 30.4375 84.441406 30.4375 C 84.558594 30.253906 84.625 30.136719 84.703125 30.023438 C 86.757812 27.050781 88.8125 24.078125 90.867188 21.105469 C 91.101562 20.761719 91.34375 20.421875 91.574219 20.074219 C 91.6875 19.910156 91.816406 19.824219 92.023438 19.824219 C 95.277344 19.832031 98.527344 19.828125 101.777344 19.832031 C 101.804688 19.832031 101.828125 19.84375 101.914062 19.871094 Z M 101.914062 19.871094 " fill-opacity="1" fill-rule="evenodd"/></g><g clip-path="url(#4ab992c4b9)"><path fill="#1c59a7" d="M 69.128906 19.828125 C 69.316406 19.828125 69.441406 19.828125 69.566406 19.828125 C 72.640625 19.828125 75.710938 19.828125 78.78125 19.828125 C 79.214844 19.828125 79.214844 19.828125 79.324219 20.257812 C 80.140625 23.484375 80.957031 26.710938 81.773438 29.9375 C 81.8125 30.085938 81.835938 30.234375 81.871094 30.410156 C 81.730469 30.421875 81.628906 30.4375 81.527344 30.4375 C 78.664062 30.4375 75.800781 30.4375 72.9375 30.4375 C 72.574219 30.4375 72.570312 30.433594 72.449219 30.074219 C 71.375 26.789062 70.300781 23.5 69.222656 20.210938 C 69.191406 20.113281 69.175781 20.015625 69.128906 19.828125 Z M 69.128906 19.828125 " fill-opacity="1" fill-rule="evenodd"/></g><g clip-path="url(#fc06406f2e)"><path fill="#1c59a7" d="M 102.546875 30.414062 C 102.59375 30.152344 102.621094 29.933594 102.667969 29.722656 C 103.335938 26.566406 104.003906 23.414062 104.675781 20.257812 C 104.765625 19.832031 104.765625 19.828125 105.207031 19.828125 C 107.863281 19.828125 110.519531 19.828125 113.175781 19.828125 C 113.300781 19.828125 113.429688 19.839844 113.617188 19.851562 C 113.261719 21.652344 112.871094 23.40625 112.507812 25.160156 C 112.140625 26.910156 111.769531 28.652344 111.394531 30.414062 C 108.445312 30.414062 105.535156 30.414062 102.546875 30.414062 Z M 102.546875 30.414062 " fill-opacity="1" fill-rule="evenodd"/></g><path fill="#1c59a7" d="M 84.601562 44.160156 C 84.519531 44.589844 84.457031 44.945312 84.378906 45.300781 C 83.839844 47.867188 83.296875 50.433594 82.753906 53 C 82.683594 53.339844 82.671875 53.355469 82.320312 53.355469 C 79.613281 53.355469 76.90625 53.355469 74.199219 53.355469 C 74.089844 53.355469 73.976562 53.335938 73.828125 53.324219 C 73.9375 52.789062 74.039062 52.292969 74.140625 51.796875 C 74.636719 49.433594 75.132812 47.070312 75.628906 44.710938 C 75.746094 44.160156 75.746094 44.160156 76.304688 44.160156 C 78.90625 44.160156 81.511719 44.160156 84.113281 44.160156 C 84.253906 44.160156 84.394531 44.160156 84.601562 44.160156 Z M 84.601562 44.160156 " fill-opacity="1" fill-rule="evenodd"/><path fill="#1c59a7" d="M 101.570312 32.644531 C 101.730469 32.636719 101.832031 32.621094 101.933594 32.621094 C 103.09375 32.621094 104.25 32.625 105.410156 32.617188 C 105.648438 32.613281 105.828125 32.683594 105.992188 32.863281 C 106.28125 33.183594 106.582031 33.492188 106.882812 33.796875 C 107.011719 33.925781 107.082031 34.0625 107.046875 34.25 C 106.910156 35.035156 106.785156 35.820312 106.628906 36.601562 C 106.605469 36.71875 106.472656 36.832031 106.363281 36.910156 C 106.109375 37.089844 105.84375 37.246094 105.550781 37.429688 C 105.730469 37.761719 105.875 38.0625 106.050781 38.351562 C 106.199219 38.59375 106.253906 38.828125 106.195312 39.125 C 106.011719 40.046875 105.867188 40.972656 105.703125 41.898438 C 105.652344 42.191406 105.605469 42.234375 105.324219 42.242188 C 105.027344 42.25 104.726562 42.246094 104.425781 42.242188 C 104.363281 42.242188 104.300781 42.226562 104.1875 42.210938 C 104.199219 42.042969 104.203125 41.878906 104.230469 41.71875 C 104.421875 40.625 104.625 39.535156 104.816406 38.441406 C 104.84375 38.304688 104.847656 38.160156 104.867188 37.984375 C 104.761719 37.957031 104.667969 37.914062 104.570312 37.914062 C 103.867188 37.910156 103.167969 37.90625 102.464844 37.914062 C 102.160156 37.914062 102.117188 37.960938 102.058594 38.273438 C 101.871094 39.339844 101.6875 40.410156 101.496094 41.476562 C 101.472656 41.617188 101.449219 41.757812 101.421875 41.898438 C 101.363281 42.195312 101.332031 42.234375 101.046875 42.242188 C 100.6875 42.25 100.328125 42.234375 99.929688 42.230469 C 99.929688 42.070312 99.914062 41.957031 99.933594 41.847656 C 100.410156 39.148438 100.894531 36.449219 101.375 33.75 C 101.4375 33.394531 101.5 33.035156 101.570312 32.644531 Z M 102.3125 36.625 C 102.398438 36.660156 102.433594 36.6875 102.46875 36.6875 C 103.289062 36.691406 104.109375 36.691406 104.929688 36.695312 C 105.136719 36.699219 105.191406 36.574219 105.21875 36.402344 C 105.34375 35.617188 105.472656 34.832031 105.59375 34.042969 C 105.609375 33.957031 105.589844 33.867188 105.582031 33.734375 C 104.636719 33.730469 103.710938 33.71875 102.765625 33.746094 C 102.597656 34.738281 102.417969 35.679688 102.3125 36.625 Z M 102.3125 36.625 " fill-opacity="1" fill-rule="evenodd"/><path fill="#1c59a7" d="M 75.964844 32.699219 C 75.605469 32.996094 75.257812 33.304688 74.886719 33.585938 C 74.796875 33.652344 74.640625 33.65625 74.515625 33.660156 C 73.984375 33.667969 73.449219 33.660156 72.914062 33.664062 C 72.523438 33.667969 72.515625 33.675781 72.441406 34.070312 C 72.296875 34.828125 72.15625 35.585938 72.019531 36.34375 C 72.003906 36.414062 72.003906 36.492188 71.996094 36.605469 C 72.550781 36.730469 73.09375 36.652344 73.632812 36.667969 C 74.164062 36.679688 74.695312 36.667969 75.292969 36.667969 C 75.195312 36.800781 75.144531 36.882812 75.082031 36.953125 C 74.859375 37.210938 74.617188 37.449219 74.414062 37.71875 C 74.21875 37.976562 73.984375 38.058594 73.671875 38.042969 C 73.164062 38.027344 72.65625 38.039062 72.148438 38.039062 C 72.023438 38.039062 71.894531 38.039062 71.722656 38.039062 C 71.519531 38.949219 71.359375 39.839844 71.210938 40.785156 C 71.390625 40.808594 71.539062 40.835938 71.6875 40.839844 C 72.53125 40.84375 73.378906 40.839844 74.226562 40.839844 C 74.351562 40.839844 74.480469 40.839844 74.667969 40.839844 C 74.589844 40.960938 74.550781 41.035156 74.496094 41.097656 C 74.222656 41.414062 73.949219 41.726562 73.675781 42.046875 C 73.570312 42.171875 73.445312 42.242188 73.273438 42.242188 C 72.140625 42.242188 71.007812 42.242188 69.875 42.238281 C 69.804688 42.238281 69.730469 42.207031 69.625 42.179688 C 69.710938 41.691406 69.785156 41.214844 69.871094 40.742188 C 70.25 38.597656 70.632812 36.449219 71.011719 34.304688 C 71.09375 33.84375 71.175781 33.378906 71.253906 32.914062 C 71.285156 32.71875 71.371094 32.617188 71.585938 32.617188 C 73.03125 32.621094 74.476562 32.621094 75.917969 32.621094 C 75.933594 32.648438 75.949219 32.671875 75.964844 32.699219 Z M 75.964844 32.699219 " fill-opacity="1" fill-rule="evenodd"/><path fill="#1c59a7" d="M 88.074219 36.753906 C 87.730469 37.140625 87.398438 37.539062 87.035156 37.90625 C 86.941406 38.003906 86.753906 38.03125 86.609375 38.035156 C 86.023438 38.046875 85.4375 38.039062 84.851562 38.042969 C 84.535156 38.042969 84.523438 38.046875 84.464844 38.351562 C 84.3125 39.144531 84.167969 39.9375 84.011719 40.78125 C 84.199219 40.804688 84.34375 40.839844 84.492188 40.839844 C 85.335938 40.84375 86.183594 40.84375 87.027344 40.84375 C 87.15625 40.84375 87.289062 40.84375 87.46875 40.84375 C 87.398438 40.953125 87.363281 41.03125 87.3125 41.09375 C 87.039062 41.414062 86.765625 41.726562 86.492188 42.042969 C 86.386719 42.167969 86.265625 42.246094 86.09375 42.246094 C 84.945312 42.242188 83.800781 42.242188 82.65625 42.238281 C 82.597656 42.238281 82.535156 42.210938 82.441406 42.183594 C 82.523438 41.699219 82.597656 41.222656 82.683594 40.75 C 83.117188 38.296875 83.550781 35.84375 83.984375 33.386719 C 84.007812 33.246094 84.035156 33.105469 84.058594 32.964844 C 84.117188 32.652344 84.144531 32.625 84.46875 32.621094 C 85.394531 32.617188 86.316406 32.621094 87.238281 32.621094 C 87.683594 32.621094 88.125 32.621094 88.566406 32.621094 C 88.628906 32.621094 88.6875 32.632812 88.84375 32.648438 C 88.414062 33.003906 88.050781 33.316406 87.671875 33.605469 C 87.59375 33.667969 87.449219 33.660156 87.335938 33.660156 C 86.777344 33.667969 86.21875 33.660156 85.660156 33.664062 C 85.371094 33.667969 85.316406 33.707031 85.273438 33.949219 C 85.113281 34.792969 84.964844 35.640625 84.8125 36.492188 C 84.808594 36.515625 84.824219 36.539062 84.839844 36.617188 C 84.96875 36.632812 85.117188 36.667969 85.265625 36.667969 C 86.058594 36.675781 86.851562 36.671875 87.644531 36.671875 C 87.773438 36.671875 87.902344 36.671875 88.03125 36.671875 C 88.042969 36.699219 88.058594 36.726562 88.074219 36.753906 Z M 88.074219 36.753906 " fill-opacity="1" fill-rule="evenodd"/><path fill="#1c59a7" d="M 93.542969 42.214844 C 93.335938 42.230469 93.234375 42.242188 93.136719 42.242188 C 92.210938 42.246094 91.289062 42.234375 90.363281 42.25 C 90.085938 42.253906 89.902344 42.152344 89.738281 41.9375 C 89.445312 41.554688 89.144531 41.175781 88.828125 40.8125 C 88.664062 40.621094 88.636719 40.425781 88.675781 40.195312 C 88.914062 38.859375 89.152344 37.523438 89.390625 36.1875 C 89.507812 35.519531 89.636719 34.855469 89.746094 34.183594 C 89.777344 34.003906 89.84375 33.867188 89.984375 33.753906 C 90.375 33.433594 90.757812 33.097656 91.160156 32.785156 C 91.265625 32.699219 91.410156 32.628906 91.539062 32.628906 C 92.371094 32.613281 93.203125 32.621094 94.039062 32.625 C 94.085938 32.625 94.132812 32.644531 94.210938 32.664062 C 94.097656 33.058594 93.890625 33.386719 93.691406 33.710938 C 93.644531 33.78125 93.488281 33.808594 93.382812 33.8125 C 92.820312 33.824219 92.261719 33.816406 91.703125 33.820312 C 91.328125 33.820312 91.320312 33.824219 91.25 34.199219 C 90.992188 35.609375 90.742188 37.023438 90.492188 38.433594 C 90.367188 39.117188 90.25 39.796875 90.132812 40.476562 C 90.105469 40.628906 90.097656 40.785156 90.074219 40.980469 C 90.230469 40.992188 90.355469 41.007812 90.480469 41.007812 C 91.027344 41.011719 91.574219 41.019531 92.117188 41.007812 C 92.320312 41.003906 92.464844 41.066406 92.597656 41.210938 C 92.882812 41.527344 93.183594 41.832031 93.542969 42.214844 Z M 93.542969 42.214844 " fill-opacity="1" fill-rule="evenodd"/><path fill="#1c59a7" d="M 110.679688 40.984375 C 110.847656 40.992188 110.984375 41.007812 111.125 41.007812 C 111.65625 41.011719 112.191406 41.003906 112.722656 41.015625 C 112.847656 41.015625 113 41.042969 113.082031 41.121094 C 113.425781 41.449219 113.753906 41.800781 114.132812 42.195312 C 113.972656 42.21875 113.875 42.242188 113.78125 42.242188 C 112.832031 42.246094 111.882812 42.238281 110.933594 42.246094 C 110.691406 42.25 110.519531 42.183594 110.367188 41.980469 C 110.0625 41.574219 109.738281 41.179688 109.414062 40.789062 C 109.28125 40.628906 109.226562 40.476562 109.269531 40.257812 C 109.476562 39.15625 109.660156 38.046875 109.855469 36.941406 C 110.003906 36.105469 110.160156 35.273438 110.292969 34.4375 C 110.351562 34.085938 110.460938 33.800781 110.769531 33.585938 C 111.109375 33.351562 111.40625 33.050781 111.738281 32.796875 C 111.855469 32.707031 112.015625 32.628906 112.15625 32.628906 C 112.988281 32.613281 113.820312 32.621094 114.652344 32.621094 C 114.699219 32.621094 114.746094 32.644531 114.851562 32.671875 C 114.65625 33.039062 114.488281 33.386719 114.28125 33.710938 C 114.230469 33.789062 114.050781 33.808594 113.929688 33.8125 C 113.386719 33.824219 112.839844 33.8125 112.292969 33.820312 C 111.925781 33.820312 111.902344 33.835938 111.835938 34.203125 C 111.5625 35.730469 111.292969 37.261719 111.027344 38.789062 C 110.917969 39.40625 110.8125 40.023438 110.707031 40.640625 C 110.691406 40.742188 110.691406 40.84375 110.679688 40.984375 Z M 110.679688 40.984375 " fill-opacity="1" fill-rule="evenodd"/><path fill="#1c59a7" d="M 97.371094 33.835938 C 97.09375 33.828125 96.875 33.804688 96.660156 33.820312 C 96.421875 33.839844 96.273438 33.742188 96.167969 33.53125 C 96.027344 33.253906 95.867188 32.988281 95.710938 32.710938 C 95.984375 32.597656 99.496094 32.558594 100.414062 32.648438 C 100.390625 32.734375 100.375 32.820312 100.339844 32.894531 C 100.273438 33.035156 100.199219 33.171875 100.125 33.3125 C 99.804688 33.925781 99.914062 33.804688 99.304688 33.816406 C 98.910156 33.824219 98.902344 33.824219 98.828125 34.21875 C 98.542969 35.800781 98.265625 37.378906 97.984375 38.957031 C 97.808594 39.949219 97.632812 40.9375 97.453125 41.925781 C 97.394531 42.226562 97.378906 42.238281 97.070312 42.242188 C 96.710938 42.246094 96.347656 42.234375 95.925781 42.230469 C 96.140625 40.789062 96.414062 39.417969 96.648438 38.035156 C 96.878906 36.652344 97.164062 35.277344 97.371094 33.835938 Z M 97.371094 33.835938 " fill-opacity="1" fill-rule="evenodd"/><path fill="#1c59a7" d="M 77.550781 40.808594 C 78.695312 40.886719 79.816406 40.804688 81.023438 40.859375 C 80.777344 41.140625 80.546875 41.351562 80.382812 41.609375 C 80.042969 42.144531 79.582031 42.292969 78.96875 42.257812 C 78.113281 42.207031 77.25 42.246094 76.394531 42.242188 C 76.253906 42.242188 76.117188 42.222656 75.933594 42.207031 C 76.496094 39.039062 77.050781 35.917969 77.617188 32.699219 C 78.046875 33.0625 78.414062 33.347656 78.71875 33.695312 C 78.792969 33.78125 78.777344 33.972656 78.753906 34.105469 C 78.597656 34.980469 78.429688 35.847656 78.269531 36.722656 C 78.035156 37.976562 77.804688 39.234375 77.578125 40.492188 C 77.5625 40.578125 77.5625 40.667969 77.550781 40.808594 Z M 77.550781 40.808594 " fill-opacity="1" fill-rule="evenodd"/><path fill="#1c59a7" d="M 109.628906 32.664062 C 109.558594 33.089844 109.492188 33.484375 109.421875 33.878906 C 109.046875 36.023438 108.667969 38.167969 108.289062 40.3125 C 108.191406 40.863281 108.082031 41.414062 107.992188 41.964844 C 107.957031 42.160156 107.867188 42.238281 107.679688 42.242188 C 107.367188 42.242188 107.058594 42.25 106.746094 42.238281 C 106.488281 42.230469 106.457031 42.179688 106.503906 41.917969 C 106.671875 40.957031 106.847656 39.992188 107.015625 39.03125 C 107.375 37.015625 107.734375 35 108.09375 32.984375 C 108.15625 32.625 108.164062 32.625 108.507812 32.621094 C 108.769531 32.617188 109.027344 32.617188 109.289062 32.621094 C 109.386719 32.625 109.488281 32.644531 109.628906 32.664062 Z M 109.628906 32.664062 " fill-opacity="1" fill-rule="evenodd"/><path fill="#1c59a7" d="M 11.589844 57.105469 L 11.589844 57.648438 L 10.195312 57.648438 L 10.195312 61.546875 L 9.558594 61.546875 L 9.558594 57.648438 L 8.160156 57.648438 L 8.160156 57.105469 Z M 11.589844 57.105469 " fill-opacity="1" fill-rule="nonzero"/><path fill="#1c59a7" d="M 13.792969 58.054688 C 14.160156 58.054688 14.441406 58.167969 14.628906 58.398438 C 14.820312 58.628906 14.914062 58.96875 14.914062 59.421875 L 14.914062 61.546875 L 14.304688 61.546875 L 14.304688 59.441406 C 14.304688 58.859375 14.089844 58.570312 13.65625 58.570312 C 13.492188 58.570312 13.308594 58.609375 13.113281 58.691406 C 12.917969 58.773438 12.742188 58.890625 12.585938 59.039062 L 12.585938 61.574219 L 11.972656 61.574219 L 11.972656 56.765625 L 12.585938 56.671875 L 12.585938 58.542969 C 12.976562 58.214844 13.382812 58.054688 13.792969 58.054688 Z M 13.792969 58.054688 " fill-opacity="1" fill-rule="nonzero"/><path fill="#1c59a7" d="M 17.238281 58.054688 C 17.582031 58.054688 17.863281 58.136719 18.085938 58.300781 C 18.308594 58.460938 18.464844 58.683594 18.550781 58.964844 C 18.640625 59.246094 18.664062 59.578125 18.632812 59.960938 L 16.285156 59.960938 C 16.3125 60.316406 16.433594 60.59375 16.644531 60.800781 C 16.855469 61.007812 17.121094 61.109375 17.445312 61.109375 C 17.589844 61.109375 17.75 61.089844 17.925781 61.054688 C 18.105469 61.019531 18.253906 60.976562 18.375 60.925781 L 18.445312 61.410156 C 18.332031 61.46875 18.167969 61.523438 17.949219 61.566406 C 17.734375 61.609375 17.527344 61.628906 17.328125 61.628906 C 16.832031 61.628906 16.433594 61.472656 16.136719 61.15625 C 15.835938 60.839844 15.6875 60.402344 15.6875 59.839844 C 15.6875 59.289062 15.832031 58.855469 16.117188 58.535156 C 16.402344 58.214844 16.777344 58.054688 17.238281 58.054688 Z M 17.246094 58.546875 C 16.992188 58.546875 16.78125 58.636719 16.613281 58.8125 C 16.445312 58.992188 16.339844 59.230469 16.300781 59.523438 L 18.042969 59.523438 C 18.035156 59.207031 17.957031 58.964844 17.820312 58.796875 C 17.679688 58.632812 17.488281 58.546875 17.246094 58.546875 Z M 17.246094 58.546875 " fill-opacity="1" fill-rule="nonzero"/><path fill="#1c59a7" d="M 24.285156 57.105469 L 24.921875 57.105469 L 24.921875 61.546875 L 24.285156 61.546875 L 24.285156 59.433594 L 22.054688 59.433594 L 22.054688 61.546875 L 21.417969 61.546875 L 21.417969 57.105469 L 22.054688 57.105469 L 22.054688 58.894531 L 24.285156 58.894531 Z M 24.285156 57.105469 " fill-opacity="1" fill-rule="nonzero"/><path fill="#1c59a7" d="M 26.742188 57.539062 C 26.664062 57.621094 26.574219 57.660156 26.460938 57.660156 C 26.351562 57.660156 26.257812 57.621094 26.179688 57.539062 C 26.101562 57.457031 26.0625 57.359375 26.0625 57.242188 C 26.0625 57.128906 26.101562 57.027344 26.179688 56.945312 C 26.257812 56.863281 26.351562 56.820312 26.460938 56.820312 C 26.570312 56.820312 26.664062 56.863281 26.742188 56.945312 C 26.816406 57.027344 26.855469 57.125 26.855469 57.242188 C 26.855469 57.359375 26.816406 57.457031 26.742188 57.539062 Z M 26.769531 58.128906 L 26.769531 61.546875 L 26.15625 61.546875 L 26.15625 58.128906 Z M 26.769531 58.128906 " fill-opacity="1" fill-rule="nonzero"/><g clip-path="url(#7734065744)"><path fill="#1c59a7" d="M 31.097656 58.128906 L 31.097656 58.636719 L 30.5 58.636719 C 30.628906 58.828125 30.691406 59.050781 30.691406 59.296875 C 30.691406 59.671875 30.5625 59.96875 30.300781 60.195312 C 30.039062 60.417969 29.699219 60.527344 29.277344 60.527344 C 28.992188 60.527344 28.742188 60.480469 28.527344 60.378906 C 28.394531 60.476562 28.332031 60.570312 28.332031 60.664062 C 28.332031 60.765625 28.402344 60.835938 28.546875 60.882812 C 28.695312 60.929688 28.910156 60.96875 29.195312 61 C 29.371094 61.019531 29.523438 61.042969 29.65625 61.066406 C 29.792969 61.09375 29.933594 61.132812 30.089844 61.183594 C 30.246094 61.234375 30.375 61.292969 30.472656 61.363281 C 30.574219 61.433594 30.660156 61.523438 30.726562 61.636719 C 30.792969 61.746094 30.828125 61.875 30.828125 62.019531 C 30.828125 62.183594 30.785156 62.335938 30.699219 62.46875 C 30.613281 62.605469 30.5 62.714844 30.351562 62.796875 C 30.207031 62.882812 30.042969 62.945312 29.859375 62.992188 C 29.675781 63.035156 29.480469 63.058594 29.277344 63.058594 C 28.988281 63.058594 28.71875 63.019531 28.476562 62.945312 C 28.234375 62.871094 28.035156 62.757812 27.878906 62.601562 C 27.722656 62.445312 27.644531 62.261719 27.644531 62.046875 C 27.644531 61.757812 27.800781 61.5 28.113281 61.273438 C 27.894531 61.160156 27.785156 60.992188 27.785156 60.769531 C 27.785156 60.550781 27.910156 60.332031 28.160156 60.121094 C 27.941406 59.890625 27.832031 59.617188 27.832031 59.300781 C 27.832031 58.925781 27.96875 58.628906 28.238281 58.398438 C 28.511719 58.167969 28.855469 58.054688 29.277344 58.054688 C 29.453125 58.054688 29.632812 58.078125 29.8125 58.128906 Z M 30.214844 62.03125 C 30.214844 61.96875 30.199219 61.914062 30.175781 61.863281 C 30.148438 61.816406 30.109375 61.773438 30.058594 61.738281 C 30.003906 61.703125 29.949219 61.671875 29.886719 61.648438 C 29.828125 61.621094 29.75 61.601562 29.65625 61.582031 C 29.5625 61.5625 29.472656 61.546875 29.394531 61.535156 C 29.316406 61.523438 29.21875 61.511719 29.097656 61.5 L 28.644531 61.4375 C 28.375 61.621094 28.242188 61.804688 28.242188 61.988281 C 28.242188 62.179688 28.34375 62.328125 28.542969 62.429688 C 28.742188 62.53125 28.988281 62.582031 29.277344 62.582031 C 29.542969 62.582031 29.765625 62.535156 29.945312 62.4375 C 30.125 62.34375 30.214844 62.207031 30.214844 62.03125 Z M 29.277344 60.046875 C 29.535156 60.046875 29.738281 59.980469 29.890625 59.84375 C 30.042969 59.707031 30.121094 59.523438 30.121094 59.296875 C 30.121094 59.066406 30.042969 58.878906 29.890625 58.742188 C 29.738281 58.601562 29.53125 58.535156 29.269531 58.535156 C 29.007812 58.535156 28.800781 58.601562 28.652344 58.738281 C 28.5 58.875 28.425781 59.058594 28.425781 59.292969 C 28.425781 59.519531 28.503906 59.703125 28.65625 59.84375 C 28.808594 59.980469 29.015625 60.046875 29.277344 60.046875 Z M 29.277344 60.046875 " fill-opacity="1" fill-rule="nonzero"/></g><path fill="#1c59a7" d="M 33.488281 58.054688 C 33.855469 58.054688 34.136719 58.167969 34.324219 58.398438 C 34.515625 58.628906 34.609375 58.96875 34.609375 59.421875 L 34.609375 61.546875 L 34 61.546875 L 34 59.441406 C 34 58.859375 33.78125 58.570312 33.351562 58.570312 C 33.183594 58.570312 33.003906 58.609375 32.808594 58.691406 C 32.613281 58.773438 32.433594 58.890625 32.277344 59.039062 L 32.277344 61.574219 L 31.667969 61.574219 L 31.667969 56.765625 L 32.277344 56.671875 L 32.277344 58.542969 C 32.671875 58.214844 33.074219 58.054688 33.488281 58.054688 Z M 33.488281 58.054688 " fill-opacity="1" fill-rule="nonzero"/><path fill="#1c59a7" d="M 36.933594 58.054688 C 37.277344 58.054688 37.558594 58.136719 37.78125 58.300781 C 38.003906 58.460938 38.15625 58.683594 38.246094 58.964844 C 38.332031 59.246094 38.359375 59.578125 38.328125 59.960938 L 35.980469 59.960938 C 36.007812 60.316406 36.128906 60.59375 36.339844 60.800781 C 36.546875 61.007812 36.816406 61.109375 37.140625 61.109375 C 37.28125 61.109375 37.441406 61.089844 37.621094 61.054688 C 37.796875 61.019531 37.945312 60.976562 38.066406 60.925781 L 38.136719 61.410156 C 38.023438 61.46875 37.859375 61.523438 37.644531 61.566406 C 37.429688 61.609375 37.222656 61.628906 37.023438 61.628906 C 36.527344 61.628906 36.128906 61.472656 35.832031 61.15625 C 35.53125 60.839844 35.382812 60.402344 35.382812 59.839844 C 35.382812 59.289062 35.523438 58.855469 35.8125 58.535156 C 36.097656 58.214844 36.46875 58.054688 36.933594 58.054688 Z M 36.9375 58.546875 C 36.683594 58.546875 36.472656 58.636719 36.308594 58.8125 C 36.140625 58.992188 36.035156 59.230469 35.992188 59.523438 L 37.734375 59.523438 C 37.726562 59.207031 37.652344 58.964844 37.511719 58.796875 C 37.375 58.632812 37.183594 58.546875 36.9375 58.546875 Z M 36.9375 58.546875 " fill-opacity="1" fill-rule="nonzero"/><path fill="#1c59a7" d="M 40.074219 58.054688 C 40.4375 58.054688 40.777344 58.105469 41.09375 58.214844 L 40.957031 58.726562 C 40.652344 58.601562 40.355469 58.542969 40.058594 58.542969 C 39.855469 58.542969 39.695312 58.578125 39.582031 58.644531 C 39.46875 58.714844 39.414062 58.820312 39.414062 58.957031 C 39.414062 59.0625 39.457031 59.144531 39.546875 59.210938 C 39.636719 59.277344 39.820312 59.375 40.09375 59.503906 C 40.492188 59.703125 40.78125 59.886719 40.957031 60.058594 C 41.132812 60.230469 41.222656 60.441406 41.222656 60.691406 C 41.222656 60.980469 41.113281 61.210938 40.894531 61.375 C 40.675781 61.539062 40.382812 61.621094 40.011719 61.621094 C 39.621094 61.621094 39.226562 61.53125 38.820312 61.347656 L 38.964844 60.863281 C 39.320312 61.046875 39.660156 61.136719 39.984375 61.136719 C 40.1875 61.136719 40.34375 61.097656 40.457031 61.023438 C 40.570312 60.949219 40.625 60.839844 40.625 60.699219 C 40.625 60.566406 40.570312 60.460938 40.457031 60.371094 C 40.347656 60.28125 40.140625 60.164062 39.839844 60.015625 C 39.6875 59.941406 39.5625 59.878906 39.472656 59.828125 C 39.382812 59.777344 39.289062 59.71875 39.195312 59.652344 C 39.105469 59.589844 39.035156 59.523438 38.988281 59.460938 C 38.941406 59.398438 38.902344 59.328125 38.875 59.246094 C 38.84375 59.167969 38.828125 59.074219 38.828125 58.980469 C 38.828125 58.691406 38.941406 58.464844 39.160156 58.300781 C 39.382812 58.136719 39.6875 58.054688 40.074219 58.054688 Z M 40.074219 58.054688 " fill-opacity="1" fill-rule="nonzero"/><path fill="#1c59a7" d="M 43.707031 61.007812 L 43.789062 61.492188 C 43.511719 61.578125 43.257812 61.621094 43.015625 61.621094 C 42.652344 61.621094 42.40625 61.5 42.265625 61.253906 C 42.128906 61.003906 42.0625 60.617188 42.0625 60.09375 L 42.0625 58.636719 L 41.621094 58.636719 L 41.621094 58.128906 L 42.0625 58.128906 L 42.0625 57.386719 L 42.679688 57.277344 L 42.679688 58.128906 L 43.722656 58.128906 L 43.722656 58.636719 L 42.679688 58.636719 L 42.679688 60.105469 C 42.679688 60.46875 42.714844 60.726562 42.785156 60.875 C 42.855469 61.023438 42.984375 61.09375 43.167969 61.09375 C 43.332031 61.097656 43.511719 61.066406 43.707031 61.007812 Z M 43.707031 61.007812 " fill-opacity="1" fill-rule="nonzero"/><path fill="#1c59a7" d="M 47.878906 57.105469 C 48.117188 57.105469 48.335938 57.148438 48.527344 57.230469 C 48.722656 57.3125 48.878906 57.421875 49 57.558594 C 49.121094 57.699219 49.210938 57.855469 49.273438 58.027344 C 49.335938 58.199219 49.367188 58.378906 49.367188 58.570312 C 49.367188 58.753906 49.335938 58.9375 49.273438 59.109375 C 49.207031 59.285156 49.117188 59.445312 48.996094 59.585938 C 48.878906 59.730469 48.722656 59.847656 48.527344 59.929688 C 48.332031 60.015625 48.117188 60.058594 47.878906 60.058594 L 47.105469 60.058594 L 47.105469 61.546875 L 46.46875 61.546875 L 46.46875 57.109375 L 47.878906 57.109375 Z M 47.851562 59.519531 C 48.125 59.519531 48.339844 59.421875 48.496094 59.230469 C 48.652344 59.039062 48.726562 58.816406 48.726562 58.5625 C 48.726562 58.304688 48.652344 58.085938 48.496094 57.90625 C 48.34375 57.722656 48.128906 57.632812 47.851562 57.632812 L 47.105469 57.632812 L 47.105469 59.519531 Z M 47.851562 59.519531 " fill-opacity="1" fill-rule="nonzero"/><path fill="#1c59a7" d="M 51.398438 58.054688 C 51.742188 58.054688 52.023438 58.136719 52.246094 58.300781 C 52.46875 58.460938 52.625 58.683594 52.710938 58.964844 C 52.796875 59.246094 52.824219 59.578125 52.792969 59.960938 L 50.445312 59.960938 C 50.472656 60.316406 50.59375 60.59375 50.804688 60.800781 C 51.011719 61.007812 51.28125 61.109375 51.605469 61.109375 C 51.746094 61.109375 51.90625 61.089844 52.085938 61.054688 C 52.261719 61.019531 52.410156 60.976562 52.535156 60.925781 L 52.601562 61.410156 C 52.488281 61.46875 52.324219 61.523438 52.109375 61.566406 C 51.894531 61.609375 51.6875 61.628906 51.488281 61.628906 C 50.992188 61.628906 50.59375 61.472656 50.292969 61.15625 C 49.996094 60.839844 49.847656 60.402344 49.847656 59.839844 C 49.847656 59.289062 49.988281 58.855469 50.277344 58.535156 C 50.5625 58.214844 50.933594 58.054688 51.398438 58.054688 Z M 51.40625 58.546875 C 51.148438 58.546875 50.9375 58.636719 50.773438 58.8125 C 50.605469 58.992188 50.5 59.230469 50.457031 59.523438 L 52.199219 59.523438 C 52.191406 59.207031 52.117188 58.964844 51.980469 58.796875 C 51.839844 58.632812 51.648438 58.546875 51.40625 58.546875 Z M 51.40625 58.546875 " fill-opacity="1" fill-rule="nonzero"/><path fill="#1c59a7" d="M 55.519531 58.054688 L 55.484375 58.65625 C 55.289062 58.65625 55.074219 58.703125 54.839844 58.792969 C 54.605469 58.882812 54.402344 59.011719 54.226562 59.175781 L 54.226562 61.546875 L 53.617188 61.546875 L 53.617188 58.128906 L 54.179688 58.128906 L 54.21875 58.636719 C 54.425781 58.449219 54.640625 58.304688 54.863281 58.203125 C 55.085938 58.105469 55.304688 58.054688 55.519531 58.054688 Z M 55.519531 58.054688 " fill-opacity="1" fill-rule="nonzero"/><path fill="#1c59a7" d="M 57.601562 57.195312 C 57.371094 57.195312 57.195312 57.261719 57.074219 57.394531 C 56.957031 57.53125 56.894531 57.765625 56.894531 58.097656 L 56.894531 58.132812 L 57.757812 58.132812 L 57.757812 58.636719 L 56.894531 58.636719 L 56.894531 61.546875 L 56.285156 61.546875 L 56.285156 58.636719 L 55.761719 58.636719 L 55.761719 58.132812 L 56.285156 58.132812 L 56.285156 58.109375 C 56.285156 57.164062 56.691406 56.691406 57.5 56.691406 C 57.769531 56.691406 58.003906 56.71875 58.207031 56.769531 L 58.140625 57.265625 C 57.941406 57.214844 57.765625 57.195312 57.601562 57.195312 Z M 57.601562 57.195312 " fill-opacity="1" fill-rule="nonzero"/><path fill="#1c59a7" d="M 58.511719 58.546875 C 58.804688 58.21875 59.195312 58.054688 59.6875 58.054688 C 60.179688 58.054688 60.570312 58.21875 60.859375 58.546875 C 61.148438 58.878906 61.289062 59.308594 61.289062 59.839844 C 61.289062 60.375 61.148438 60.804688 60.859375 61.132812 C 60.570312 61.460938 60.179688 61.625 59.6875 61.625 C 59.195312 61.625 58.804688 61.460938 58.511719 61.128906 C 58.21875 60.800781 58.074219 60.371094 58.074219 59.839844 C 58.074219 59.308594 58.21875 58.878906 58.511719 58.546875 Z M 59.6875 58.554688 C 59.386719 58.554688 59.148438 58.671875 58.96875 58.90625 C 58.785156 59.136719 58.695312 59.449219 58.695312 59.839844 C 58.695312 60.226562 58.785156 60.539062 58.96875 60.773438 C 59.148438 61.003906 59.390625 61.121094 59.6875 61.121094 C 59.984375 61.121094 60.222656 61.003906 60.402344 60.769531 C 60.582031 60.535156 60.667969 60.226562 60.667969 59.839844 C 60.667969 59.453125 60.578125 59.140625 60.402344 58.90625 C 60.222656 58.671875 59.984375 58.554688 59.6875 58.554688 Z M 59.6875 58.554688 " fill-opacity="1" fill-rule="nonzero"/><path fill="#1c59a7" d="M 64.003906 58.054688 L 63.96875 58.65625 C 63.777344 58.65625 63.5625 58.703125 63.328125 58.792969 C 63.089844 58.882812 62.886719 59.011719 62.710938 59.175781 L 62.710938 61.546875 L 62.101562 61.546875 L 62.101562 58.128906 L 62.664062 58.128906 L 62.703125 58.636719 C 62.910156 58.449219 63.125 58.304688 63.347656 58.203125 C 63.574219 58.105469 63.789062 58.054688 64.003906 58.054688 Z M 64.003906 58.054688 " fill-opacity="1" fill-rule="nonzero"/><path fill="#1c59a7" d="M 68.46875 58.054688 C 68.816406 58.054688 69.078125 58.167969 69.253906 58.398438 C 69.433594 58.628906 69.519531 58.96875 69.519531 59.421875 L 69.519531 61.546875 L 68.910156 61.546875 L 68.910156 59.441406 C 68.910156 58.859375 68.714844 58.570312 68.328125 58.570312 C 68.171875 58.570312 68.003906 58.609375 67.828125 58.695312 C 67.648438 58.78125 67.496094 58.902344 67.359375 59.050781 C 67.371094 59.167969 67.378906 59.289062 67.378906 59.421875 L 67.378906 61.546875 L 66.769531 61.546875 L 66.769531 59.441406 C 66.769531 58.859375 66.574219 58.570312 66.183594 58.570312 C 66.035156 58.570312 65.871094 58.609375 65.699219 58.691406 C 65.527344 58.773438 65.375 58.882812 65.238281 59.023438 L 65.238281 61.546875 L 64.628906 61.546875 L 64.628906 58.132812 L 65.136719 58.132812 L 65.207031 58.546875 C 65.570312 58.21875 65.945312 58.054688 66.328125 58.054688 C 66.78125 58.054688 67.089844 58.25 67.25 58.636719 C 67.636719 58.25 68.042969 58.054688 68.46875 58.054688 Z M 68.46875 58.054688 " fill-opacity="1" fill-rule="nonzero"/><path fill="#1c59a7" d="M 71.171875 57.539062 C 71.097656 57.621094 71.003906 57.660156 70.890625 57.660156 C 70.78125 57.660156 70.6875 57.621094 70.609375 57.539062 C 70.53125 57.457031 70.496094 57.359375 70.496094 57.242188 C 70.496094 57.128906 70.53125 57.027344 70.609375 56.945312 C 70.6875 56.863281 70.78125 56.820312 70.890625 56.820312 C 71 56.820312 71.09375 56.863281 71.171875 56.945312 C 71.25 57.027344 71.289062 57.125 71.289062 57.242188 C 71.289062 57.359375 71.25 57.457031 71.171875 57.539062 Z M 71.199219 58.128906 L 71.199219 61.546875 L 70.585938 61.546875 L 70.585938 58.128906 Z M 71.199219 58.128906 " fill-opacity="1" fill-rule="nonzero"/><path fill="#1c59a7" d="M 74.113281 58.054688 C 74.480469 58.054688 74.761719 58.167969 74.953125 58.398438 C 75.140625 58.628906 75.234375 58.96875 75.234375 59.421875 L 75.234375 61.546875 L 74.625 61.546875 L 74.625 59.441406 C 74.625 58.859375 74.410156 58.570312 73.976562 58.570312 C 73.8125 58.570312 73.628906 58.609375 73.433594 58.691406 C 73.238281 58.773438 73.0625 58.890625 72.90625 59.039062 L 72.90625 61.546875 L 72.292969 61.546875 L 72.292969 58.132812 L 72.800781 58.132812 L 72.871094 58.570312 C 73.28125 58.226562 73.695312 58.054688 74.113281 58.054688 Z M 74.113281 58.054688 " fill-opacity="1" fill-rule="nonzero"/><g clip-path="url(#115f0dc92d)"><path fill="#1c59a7" d="M 79.453125 58.128906 L 79.453125 58.636719 L 78.855469 58.636719 C 78.984375 58.828125 79.050781 59.050781 79.050781 59.296875 C 79.050781 59.671875 78.917969 59.96875 78.65625 60.195312 C 78.398438 60.417969 78.054688 60.527344 77.636719 60.527344 C 77.351562 60.527344 77.101562 60.480469 76.886719 60.378906 C 76.753906 60.476562 76.6875 60.570312 76.6875 60.664062 C 76.6875 60.765625 76.761719 60.835938 76.90625 60.882812 C 77.050781 60.929688 77.265625 60.96875 77.550781 61 C 77.726562 61.019531 77.882812 61.042969 78.015625 61.066406 C 78.148438 61.09375 78.292969 61.132812 78.449219 61.183594 C 78.601562 61.234375 78.730469 61.292969 78.832031 61.363281 C 78.933594 61.433594 79.015625 61.523438 79.082031 61.636719 C 79.152344 61.746094 79.1875 61.875 79.1875 62.019531 C 79.1875 62.183594 79.144531 62.335938 79.058594 62.46875 C 78.972656 62.605469 78.855469 62.714844 78.710938 62.796875 C 78.566406 62.882812 78.398438 62.945312 78.214844 62.992188 C 78.03125 63.035156 77.839844 63.058594 77.632812 63.058594 C 77.34375 63.058594 77.078125 63.019531 76.835938 62.945312 C 76.589844 62.871094 76.390625 62.757812 76.234375 62.601562 C 76.078125 62.445312 76 62.261719 76 62.046875 C 76 61.757812 76.15625 61.5 76.46875 61.273438 C 76.253906 61.160156 76.144531 60.992188 76.144531 60.769531 C 76.144531 60.550781 76.269531 60.332031 76.519531 60.121094 C 76.300781 59.890625 76.191406 59.617188 76.191406 59.300781 C 76.191406 58.925781 76.324219 58.628906 76.597656 58.398438 C 76.867188 58.167969 77.214844 58.054688 77.632812 58.054688 C 77.8125 58.054688 77.988281 58.078125 78.167969 58.128906 Z M 78.570312 62.03125 C 78.570312 61.96875 78.558594 61.914062 78.53125 61.863281 C 78.507812 61.816406 78.46875 61.773438 78.414062 61.738281 C 78.363281 61.703125 78.304688 61.671875 78.246094 61.648438 C 78.1875 61.621094 78.109375 61.601562 78.011719 61.582031 C 77.917969 61.5625 77.832031 61.546875 77.753906 61.535156 C 77.675781 61.523438 77.574219 61.511719 77.457031 61.5 L 77 61.4375 C 76.734375 61.621094 76.597656 61.804688 76.597656 61.988281 C 76.597656 62.179688 76.699219 62.328125 76.898438 62.429688 C 77.101562 62.53125 77.34375 62.582031 77.632812 62.582031 C 77.902344 62.582031 78.125 62.535156 78.300781 62.4375 C 78.480469 62.34375 78.570312 62.207031 78.570312 62.03125 Z M 77.636719 60.046875 C 77.890625 60.046875 78.097656 59.980469 78.25 59.84375 C 78.402344 59.707031 78.480469 59.523438 78.480469 59.296875 C 78.480469 59.066406 78.402344 58.878906 78.25 58.742188 C 78.097656 58.601562 77.890625 58.535156 77.628906 58.535156 C 77.367188 58.535156 77.160156 58.601562 77.011719 58.738281 C 76.859375 58.875 76.785156 59.058594 76.785156 59.292969 C 76.785156 59.519531 76.863281 59.703125 77.015625 59.84375 C 77.167969 59.980469 77.375 60.046875 77.636719 60.046875 Z M 77.636719 60.046875 " fill-opacity="1" fill-rule="nonzero"/></g><path fill="#1c59a7" d="M 84.796875 57.105469 L 85.40625 57.105469 L 85.40625 61.546875 L 84.964844 61.546875 L 82.597656 58.332031 L 82.597656 61.546875 L 81.988281 61.546875 L 81.988281 57.105469 L 82.429688 57.105469 L 84.796875 60.316406 Z M 84.796875 57.105469 " fill-opacity="1" fill-rule="nonzero"/><path fill="#1c59a7" d="M 87.839844 58.054688 C 88.007812 58.054688 88.152344 58.070312 88.28125 58.101562 C 88.40625 58.136719 88.511719 58.171875 88.597656 58.21875 C 88.679688 58.265625 88.75 58.332031 88.804688 58.417969 C 88.863281 58.507812 88.90625 58.585938 88.9375 58.652344 C 88.964844 58.71875 88.984375 58.8125 89 58.9375 C 89.015625 59.0625 89.023438 59.15625 89.027344 59.230469 C 89.027344 59.300781 89.027344 59.40625 89.027344 59.542969 C 89.027344 59.554688 89.027344 59.5625 89.027344 59.566406 L 89.027344 61.546875 L 88.527344 61.546875 L 88.472656 61.183594 C 88.320312 61.320312 88.136719 61.425781 87.917969 61.503906 C 87.699219 61.585938 87.488281 61.625 87.277344 61.625 C 86.980469 61.625 86.734375 61.542969 86.535156 61.375 C 86.339844 61.210938 86.242188 60.976562 86.242188 60.679688 C 86.242188 60.539062 86.269531 60.40625 86.328125 60.292969 C 86.382812 60.175781 86.460938 60.074219 86.5625 59.992188 C 86.667969 59.910156 86.785156 59.839844 86.914062 59.78125 C 87.046875 59.71875 87.199219 59.671875 87.367188 59.636719 C 87.535156 59.601562 87.703125 59.574219 87.875 59.554688 C 88.042969 59.535156 88.226562 59.523438 88.417969 59.519531 C 88.417969 59.375 88.414062 59.257812 88.410156 59.171875 C 88.402344 59.085938 88.390625 58.996094 88.367188 58.90625 C 88.34375 58.816406 88.308594 58.75 88.265625 58.703125 C 88.222656 58.660156 88.160156 58.621094 88.082031 58.59375 C 88.003906 58.5625 87.910156 58.546875 87.792969 58.546875 C 87.496094 58.546875 87.132812 58.609375 86.710938 58.726562 L 86.621094 58.230469 C 87.066406 58.113281 87.472656 58.054688 87.839844 58.054688 Z M 87.414062 61.144531 C 87.582031 61.144531 87.761719 61.101562 87.949219 61.019531 C 88.136719 60.933594 88.292969 60.824219 88.417969 60.691406 L 88.417969 59.957031 C 88.214844 59.957031 88.027344 59.96875 87.859375 59.992188 C 87.6875 60.015625 87.519531 60.050781 87.359375 60.101562 C 87.199219 60.148438 87.070312 60.222656 86.980469 60.320312 C 86.886719 60.421875 86.839844 60.535156 86.839844 60.671875 C 86.839844 60.816406 86.890625 60.929688 86.992188 61.015625 C 87.089844 61.101562 87.230469 61.144531 87.414062 61.144531 Z M 87.414062 61.144531 " fill-opacity="1" fill-rule="nonzero"/><path fill="#1c59a7" d="M 91.707031 61.007812 L 91.789062 61.492188 C 91.511719 61.578125 91.253906 61.621094 91.015625 61.621094 C 90.652344 61.621094 90.40625 61.5 90.269531 61.253906 C 90.128906 61.003906 90.0625 60.617188 90.0625 60.09375 L 90.0625 58.636719 L 89.621094 58.636719 L 89.621094 58.128906 L 90.0625 58.128906 L 90.0625 57.386719 L 90.679688 57.277344 L 90.679688 58.128906 L 91.722656 58.128906 L 91.722656 58.636719 L 90.679688 58.636719 L 90.679688 60.105469 C 90.679688 60.46875 90.714844 60.726562 90.785156 60.875 C 90.855469 61.019531 90.984375 61.09375 91.171875 61.09375 C 91.332031 61.097656 91.511719 61.066406 91.707031 61.007812 Z M 91.707031 61.007812 " fill-opacity="1" fill-rule="nonzero"/><path fill="#1c59a7" d="M 93.1875 57.539062 C 93.109375 57.621094 93.015625 57.660156 92.90625 57.660156 C 92.796875 57.660156 92.703125 57.621094 92.625 57.539062 C 92.546875 57.457031 92.507812 57.359375 92.507812 57.242188 C 92.507812 57.128906 92.546875 57.027344 92.625 56.945312 C 92.703125 56.863281 92.796875 56.820312 92.90625 56.820312 C 93.015625 56.820312 93.109375 56.863281 93.183594 56.945312 C 93.261719 57.027344 93.300781 57.125 93.300781 57.242188 C 93.300781 57.359375 93.265625 57.457031 93.1875 57.539062 Z M 93.214844 58.128906 L 93.214844 61.546875 L 92.601562 61.546875 L 92.601562 58.128906 Z M 93.214844 58.128906 " fill-opacity="1" fill-rule="nonzero"/><path fill="#1c59a7" d="M 94.546875 58.546875 C 94.839844 58.21875 95.230469 58.054688 95.722656 58.054688 C 96.214844 58.054688 96.605469 58.21875 96.894531 58.546875 C 97.183594 58.878906 97.324219 59.308594 97.324219 59.839844 C 97.324219 60.375 97.179688 60.804688 96.894531 61.132812 C 96.605469 61.460938 96.214844 61.625 95.722656 61.625 C 95.230469 61.625 94.839844 61.460938 94.546875 61.128906 C 94.253906 60.800781 94.109375 60.371094 94.109375 59.839844 C 94.109375 59.308594 94.253906 58.878906 94.546875 58.546875 Z M 95.722656 58.554688 C 95.421875 58.554688 95.183594 58.671875 95 58.90625 C 94.820312 59.136719 94.730469 59.449219 94.730469 59.839844 C 94.730469 60.226562 94.820312 60.539062 95 60.773438 C 95.183594 61.003906 95.421875 61.121094 95.722656 61.121094 C 96.019531 61.121094 96.257812 61.003906 96.4375 60.769531 C 96.617188 60.535156 96.703125 60.226562 96.703125 59.839844 C 96.703125 59.453125 96.613281 59.140625 96.4375 58.90625 C 96.257812 58.671875 96.019531 58.554688 95.722656 58.554688 Z M 95.722656 58.554688 " fill-opacity="1" fill-rule="nonzero"/><path fill="#1c59a7" d="M 99.953125 58.054688 C 100.324219 58.054688 100.605469 58.167969 100.792969 58.398438 C 100.984375 58.628906 101.078125 58.96875 101.078125 59.421875 L 101.078125 61.546875 L 100.464844 61.546875 L 100.464844 59.441406 C 100.464844 58.859375 100.25 58.570312 99.820312 58.570312 C 99.652344 58.570312 99.472656 58.609375 99.277344 58.691406 C 99.082031 58.773438 98.902344 58.890625 98.746094 59.039062 L 98.746094 61.546875 L 98.136719 61.546875 L 98.136719 58.132812 L 98.644531 58.132812 L 98.714844 58.570312 C 99.125 58.226562 99.539062 58.054688 99.953125 58.054688 Z M 99.953125 58.054688 " fill-opacity="1" fill-rule="nonzero"/><path fill="#1c59a7" d="M 103.386719 58.054688 C 103.554688 58.054688 103.699219 58.070312 103.828125 58.101562 C 103.957031 58.136719 104.058594 58.171875 104.144531 58.21875 C 104.226562 58.265625 104.296875 58.332031 104.355469 58.417969 C 104.410156 58.507812 104.453125 58.585938 104.484375 58.652344 C 104.511719 58.71875 104.535156 58.8125 104.546875 58.9375 C 104.5625 59.0625 104.570312 59.15625 104.574219 59.230469 C 104.574219 59.300781 104.574219 59.40625 104.574219 59.542969 C 104.574219 59.554688 104.574219 59.5625 104.574219 59.566406 L 104.574219 61.546875 L 104.074219 61.546875 L 104.019531 61.183594 C 103.867188 61.320312 103.683594 61.425781 103.464844 61.503906 C 103.246094 61.585938 103.035156 61.625 102.824219 61.625 C 102.527344 61.625 102.28125 61.542969 102.085938 61.375 C 101.886719 61.210938 101.792969 60.976562 101.792969 60.679688 C 101.792969 60.539062 101.820312 60.40625 101.875 60.292969 C 101.929688 60.175781 102.007812 60.074219 102.109375 59.992188 C 102.214844 59.910156 102.332031 59.839844 102.464844 59.78125 C 102.59375 59.71875 102.746094 59.671875 102.914062 59.636719 C 103.082031 59.601562 103.25 59.574219 103.421875 59.554688 C 103.589844 59.535156 103.773438 59.523438 103.964844 59.519531 C 103.964844 59.375 103.960938 59.257812 103.957031 59.171875 C 103.953125 59.085938 103.9375 58.996094 103.914062 58.90625 C 103.890625 58.816406 103.855469 58.75 103.8125 58.703125 C 103.769531 58.660156 103.707031 58.621094 103.632812 58.59375 C 103.554688 58.5625 103.457031 58.546875 103.339844 58.546875 C 103.042969 58.546875 102.683594 58.609375 102.257812 58.726562 L 102.167969 58.230469 C 102.613281 58.113281 103.019531 58.054688 103.386719 58.054688 Z M 102.960938 61.144531 C 103.128906 61.144531 103.308594 61.101562 103.496094 61.019531 C 103.683594 60.933594 103.839844 60.824219 103.964844 60.691406 L 103.964844 59.957031 C 103.761719 59.957031 103.574219 59.96875 103.402344 59.992188 C 103.234375 60.015625 103.066406 60.050781 102.90625 60.101562 C 102.746094 60.148438 102.617188 60.222656 102.527344 60.320312 C 102.433594 60.421875 102.386719 60.535156 102.386719 60.671875 C 102.386719 60.816406 102.4375 60.929688 102.539062 61.015625 C 102.636719 61.101562 102.777344 61.144531 102.960938 61.144531 Z M 102.960938 61.144531 " fill-opacity="1" fill-rule="nonzero"/><path fill="#1c59a7" d="M 106.160156 56.671875 L 106.160156 61.546875 L 105.550781 61.546875 L 105.550781 56.765625 Z M 106.160156 56.671875 " fill-opacity="1" fill-rule="nonzero"/><path fill="#1c59a7" d="M 111.0625 61.625 C 110.707031 61.625 110.390625 61.566406 110.109375 61.453125 C 109.832031 61.335938 109.605469 61.175781 109.425781 60.96875 C 109.25 60.761719 109.113281 60.519531 109.023438 60.242188 C 108.929688 59.964844 108.882812 59.660156 108.882812 59.324219 C 108.882812 58.628906 109.078125 58.074219 109.46875 57.65625 C 109.859375 57.238281 110.394531 57.03125 111.074219 57.03125 C 111.539062 57.03125 111.953125 57.109375 112.3125 57.261719 L 112.140625 57.785156 C 111.859375 57.660156 111.515625 57.597656 111.113281 57.597656 C 110.625 57.597656 110.238281 57.746094 109.953125 58.039062 C 109.671875 58.335938 109.53125 58.761719 109.53125 59.316406 C 109.53125 59.863281 109.671875 60.289062 109.949219 60.59375 C 110.230469 60.902344 110.617188 61.054688 111.113281 61.054688 C 111.488281 61.054688 111.832031 60.980469 112.144531 60.835938 L 112.351562 61.335938 C 111.980469 61.527344 111.550781 61.625 111.0625 61.625 Z M 111.0625 61.625 " fill-opacity="1" fill-rule="nonzero"/><path fill="#1c59a7" d="M 113.234375 58.546875 C 113.527344 58.21875 113.917969 58.054688 114.410156 58.054688 C 114.902344 58.054688 115.292969 58.21875 115.582031 58.546875 C 115.871094 58.878906 116.011719 59.308594 116.011719 59.839844 C 116.011719 60.375 115.871094 60.804688 115.582031 61.132812 C 115.292969 61.460938 114.902344 61.625 114.410156 61.625 C 113.917969 61.625 113.527344 61.460938 113.234375 61.128906 C 112.945312 60.800781 112.796875 60.371094 112.796875 59.839844 C 112.796875 59.308594 112.945312 58.878906 113.234375 58.546875 Z M 114.410156 58.554688 C 114.113281 58.554688 113.871094 58.671875 113.691406 58.90625 C 113.507812 59.136719 113.417969 59.449219 113.417969 59.839844 C 113.417969 60.226562 113.507812 60.539062 113.691406 60.773438 C 113.871094 61.003906 114.113281 61.121094 114.410156 61.121094 C 114.707031 61.121094 114.945312 61.003906 115.125 60.769531 C 115.304688 60.535156 115.394531 60.226562 115.394531 59.839844 C 115.394531 59.453125 115.304688 59.140625 115.125 58.90625 C 114.945312 58.671875 114.707031 58.554688 114.410156 58.554688 Z M 114.410156 58.554688 " fill-opacity="1" fill-rule="nonzero"/><path fill="#1c59a7" d="M 118.644531 58.054688 C 119.011719 58.054688 119.292969 58.167969 119.480469 58.398438 C 119.671875 58.628906 119.765625 58.96875 119.765625 59.421875 L 119.765625 61.546875 L 119.15625 61.546875 L 119.15625 59.441406 C 119.15625 58.859375 118.9375 58.570312 118.507812 58.570312 C 118.339844 58.570312 118.160156 58.609375 117.964844 58.691406 C 117.769531 58.773438 117.589844 58.890625 117.433594 59.039062 L 117.433594 61.546875 L 116.824219 61.546875 L 116.824219 58.132812 L 117.332031 58.132812 L 117.402344 58.570312 C 117.8125 58.226562 118.226562 58.054688 118.644531 58.054688 Z M 118.644531 58.054688 " fill-opacity="1" fill-rule="nonzero"/><path fill="#1c59a7" d="M 122.445312 61.007812 L 122.523438 61.492188 C 122.25 61.578125 121.992188 61.621094 121.75 61.621094 C 121.390625 61.621094 121.140625 61.5 121.003906 61.253906 C 120.867188 61.003906 120.796875 60.617188 120.796875 60.09375 L 120.796875 58.636719 L 120.355469 58.636719 L 120.355469 58.128906 L 120.796875 58.128906 L 120.796875 57.386719 L 121.414062 57.277344 L 121.414062 58.128906 L 122.457031 58.128906 L 122.457031 58.636719 L 121.414062 58.636719 L 121.414062 60.105469 C 121.414062 60.46875 121.449219 60.726562 121.523438 60.875 C 121.59375 61.023438 121.71875 61.09375 121.90625 61.09375 C 122.066406 61.097656 122.246094 61.066406 122.445312 61.007812 Z M 122.445312 61.007812 " fill-opacity="1" fill-rule="nonzero"/><path fill="#1c59a7" d="M 125.148438 58.054688 L 125.113281 58.65625 C 124.917969 58.65625 124.703125 58.703125 124.46875 58.792969 C 124.234375 58.882812 124.03125 59.011719 123.855469 59.175781 L 123.855469 61.546875 L 123.242188 61.546875 L 123.242188 58.128906 L 123.808594 58.128906 L 123.847656 58.636719 C 124.054688 58.449219 124.269531 58.304688 124.492188 58.203125 C 124.714844 58.105469 124.933594 58.054688 125.148438 58.054688 Z M 125.148438 58.054688 " fill-opacity="1" fill-rule="nonzero"/><path fill="#1c59a7" d="M 127 58.054688 C 127.164062 58.054688 127.3125 58.070312 127.4375 58.101562 C 127.566406 58.136719 127.671875 58.171875 127.753906 58.21875 C 127.835938 58.265625 127.90625 58.332031 127.964844 58.417969 C 128.023438 58.507812 128.066406 58.585938 128.09375 58.652344 C 128.125 58.71875 128.144531 58.8125 128.160156 58.9375 C 128.175781 59.0625 128.183594 59.15625 128.183594 59.230469 C 128.1875 59.300781 128.1875 59.40625 128.1875 59.542969 C 128.1875 59.554688 128.1875 59.5625 128.1875 59.566406 L 128.1875 61.546875 L 127.6875 61.546875 L 127.628906 61.183594 C 127.480469 61.320312 127.292969 61.425781 127.078125 61.503906 C 126.859375 61.585938 126.644531 61.625 126.433594 61.625 C 126.136719 61.625 125.890625 61.542969 125.695312 61.375 C 125.5 61.210938 125.402344 60.976562 125.402344 60.679688 C 125.402344 60.539062 125.429688 60.40625 125.484375 60.292969 C 125.542969 60.175781 125.621094 60.074219 125.722656 59.992188 C 125.824219 59.910156 125.941406 59.839844 126.074219 59.78125 C 126.207031 59.71875 126.355469 59.671875 126.523438 59.636719 C 126.691406 59.601562 126.863281 59.574219 127.03125 59.554688 C 127.203125 59.535156 127.382812 59.523438 127.578125 59.519531 C 127.578125 59.375 127.574219 59.257812 127.570312 59.171875 C 127.5625 59.085938 127.546875 58.996094 127.527344 58.90625 C 127.503906 58.816406 127.46875 58.75 127.425781 58.703125 C 127.378906 58.660156 127.320312 58.621094 127.242188 58.59375 C 127.164062 58.5625 127.066406 58.546875 126.953125 58.546875 C 126.65625 58.546875 126.292969 58.609375 125.871094 58.726562 L 125.78125 58.230469 C 126.222656 58.113281 126.628906 58.054688 127 58.054688 Z M 126.570312 61.144531 C 126.742188 61.144531 126.921875 61.101562 127.109375 61.019531 C 127.292969 60.933594 127.453125 60.824219 127.578125 60.691406 L 127.578125 59.957031 C 127.375 59.957031 127.1875 59.96875 127.015625 59.992188 C 126.847656 60.015625 126.679688 60.050781 126.519531 60.101562 C 126.355469 60.148438 126.230469 60.222656 126.136719 60.320312 C 126.046875 60.421875 126 60.535156 126 60.671875 C 126 60.816406 126.050781 60.929688 126.152344 61.015625 C 126.25 61.101562 126.390625 61.144531 126.570312 61.144531 Z M 126.570312 61.144531 " fill-opacity="1" fill-rule="nonzero"/><path fill="#1c59a7" d="M 130.574219 58.054688 C 130.941406 58.054688 131.292969 58.125 131.621094 58.261719 L 131.476562 58.730469 C 131.191406 58.621094 130.921875 58.570312 130.675781 58.570312 C 130.347656 58.570312 130.085938 58.667969 129.882812 58.863281 C 129.683594 59.0625 129.582031 59.378906 129.582031 59.804688 C 129.582031 60.21875 129.683594 60.539062 129.882812 60.765625 C 130.082031 60.992188 130.34375 61.105469 130.667969 61.105469 C 130.808594 61.105469 130.964844 61.085938 131.140625 61.054688 C 131.316406 61.019531 131.457031 60.976562 131.570312 60.925781 L 131.636719 61.410156 C 131.523438 61.472656 131.363281 61.523438 131.148438 61.566406 C 130.9375 61.609375 130.738281 61.632812 130.554688 61.632812 C 130.074219 61.632812 129.691406 61.476562 129.398438 61.164062 C 129.109375 60.851562 128.964844 60.402344 128.964844 59.828125 C 128.964844 59.519531 129.007812 59.25 129.089844 59.015625 C 129.175781 58.785156 129.292969 58.601562 129.445312 58.460938 C 129.59375 58.324219 129.765625 58.222656 129.953125 58.15625 C 130.144531 58.089844 130.347656 58.054688 130.574219 58.054688 Z M 130.574219 58.054688 " fill-opacity="1" fill-rule="nonzero"/><path fill="#1c59a7" d="M 134.101562 61.007812 L 134.179688 61.492188 C 133.90625 61.578125 133.648438 61.621094 133.40625 61.621094 C 133.046875 61.621094 132.796875 61.5 132.660156 61.253906 C 132.523438 61.003906 132.453125 60.617188 132.453125 60.09375 L 132.453125 58.636719 L 132.011719 58.636719 L 132.011719 58.128906 L 132.453125 58.128906 L 132.453125 57.386719 L 133.070312 57.277344 L 133.070312 58.128906 L 134.113281 58.128906 L 134.113281 58.636719 L 133.070312 58.636719 L 133.070312 60.105469 C 133.070312 60.46875 133.105469 60.726562 133.179688 60.875 C 133.25 61.019531 133.378906 61.09375 133.5625 61.09375 C 133.726562 61.097656 133.902344 61.066406 134.101562 61.007812 Z M 134.101562 61.007812 " fill-opacity="1" fill-rule="nonzero"/><path fill="#1c59a7" d="M 135.023438 58.546875 C 135.316406 58.21875 135.707031 58.054688 136.199219 58.054688 C 136.691406 58.054688 137.082031 58.21875 137.371094 58.546875 C 137.660156 58.878906 137.804688 59.308594 137.804688 59.839844 C 137.804688 60.375 137.65625 60.804688 137.371094 61.132812 C 137.082031 61.460938 136.691406 61.625 136.199219 61.625 C 135.707031 61.625 135.316406 61.460938 135.023438 61.128906 C 134.730469 60.800781 134.585938 60.371094 134.585938 59.839844 C 134.585938 59.308594 134.730469 58.878906 135.023438 58.546875 Z M 136.199219 58.554688 C 135.898438 58.554688 135.660156 58.671875 135.476562 58.90625 C 135.296875 59.136719 135.207031 59.449219 135.207031 59.839844 C 135.207031 60.226562 135.296875 60.539062 135.476562 60.773438 C 135.660156 61.003906 135.898438 61.121094 136.199219 61.121094 C 136.496094 61.121094 136.734375 61.003906 136.914062 60.769531 C 137.09375 60.535156 137.179688 60.226562 137.179688 59.839844 C 137.179688 59.453125 137.089844 59.140625 136.914062 58.90625 C 136.734375 58.671875 136.496094 58.554688 136.199219 58.554688 Z M 136.199219 58.554688 " fill-opacity="1" fill-rule="nonzero"/><path fill="#1c59a7" d="M 140.515625 58.054688 L 140.480469 58.65625 C 140.285156 58.65625 140.070312 58.703125 139.835938 58.792969 C 139.601562 58.882812 139.398438 59.011719 139.222656 59.175781 L 139.222656 61.546875 L 138.613281 61.546875 L 138.613281 58.128906 L 139.175781 58.128906 L 139.21875 58.636719 C 139.421875 58.449219 139.636719 58.304688 139.859375 58.203125 C 140.085938 58.105469 140.300781 58.054688 140.515625 58.054688 Z M 140.515625 58.054688 " fill-opacity="1" fill-rule="nonzero"/><path fill="#1c59a7" d="M 143.253906 58.546875 C 143.546875 58.21875 143.9375 58.054688 144.429688 58.054688 C 144.921875 58.054688 145.3125 58.21875 145.597656 58.546875 C 145.890625 58.878906 146.03125 59.308594 146.03125 59.839844 C 146.03125 60.375 145.886719 60.804688 145.597656 61.132812 C 145.3125 61.460938 144.921875 61.625 144.429688 61.625 C 143.9375 61.625 143.546875 61.460938 143.253906 61.128906 C 142.960938 60.800781 142.816406 60.371094 142.816406 59.839844 C 142.816406 59.308594 142.960938 58.878906 143.253906 58.546875 Z M 144.429688 58.554688 C 144.132812 58.554688 143.890625 58.671875 143.707031 58.90625 C 143.527344 59.136719 143.4375 59.449219 143.4375 59.839844 C 143.4375 60.226562 143.527344 60.539062 143.707031 60.773438 C 143.890625 61.003906 144.132812 61.121094 144.429688 61.121094 C 144.726562 61.121094 144.964844 61.003906 145.144531 60.769531 C 145.324219 60.535156 145.410156 60.226562 145.410156 59.839844 C 145.410156 59.453125 145.320312 59.140625 145.144531 58.90625 C 144.964844 58.671875 144.726562 58.554688 144.429688 58.554688 Z M 144.429688 58.554688 " fill-opacity="1" fill-rule="nonzero"/><path fill="#1c59a7" d="M 148.304688 57.195312 C 148.070312 57.195312 147.894531 57.261719 147.777344 57.394531 C 147.65625 57.53125 147.597656 57.765625 147.597656 58.097656 L 147.597656 58.132812 L 148.460938 58.132812 L 148.460938 58.636719 L 147.597656 58.636719 L 147.597656 61.546875 L 146.984375 61.546875 L 146.984375 58.636719 L 146.460938 58.636719 L 146.460938 58.132812 L 146.984375 58.132812 L 146.984375 58.109375 C 146.984375 57.164062 147.390625 56.691406 148.199219 56.691406 C 148.46875 56.691406 148.707031 56.71875 148.90625 56.769531 L 148.839844 57.265625 C 148.644531 57.214844 148.464844 57.195312 148.304688 57.195312 Z M 148.304688 57.195312 " fill-opacity="1" fill-rule="nonzero"/><path fill="#1c59a7" d="M 151.648438 61.007812 L 153.839844 61.007812 L 153.839844 61.546875 L 151.011719 61.546875 L 151.011719 57.109375 L 153.78125 57.109375 L 153.78125 57.648438 L 151.648438 57.648438 L 151.648438 59.046875 L 153.597656 59.046875 L 153.597656 59.585938 L 151.648438 59.585938 Z M 151.648438 61.007812 " fill-opacity="1" fill-rule="nonzero"/><path fill="#1c59a7" d="M 157.503906 61.546875 L 156.816406 61.546875 L 155.953125 60.28125 L 155.089844 61.546875 L 154.402344 61.546875 L 155.585938 59.792969 L 154.433594 58.132812 L 155.117188 58.132812 L 155.945312 59.320312 L 156.769531 58.132812 L 157.464844 58.132812 L 156.316406 59.800781 Z M 157.503906 61.546875 " fill-opacity="1" fill-rule="nonzero"/><path fill="#1c59a7" d="M 159.382812 58.054688 C 159.75 58.054688 160.097656 58.125 160.425781 58.261719 L 160.285156 58.730469 C 159.996094 58.621094 159.730469 58.570312 159.480469 58.570312 C 159.15625 58.570312 158.890625 58.667969 158.691406 58.863281 C 158.492188 59.0625 158.390625 59.378906 158.390625 59.804688 C 158.390625 60.21875 158.488281 60.539062 158.6875 60.765625 C 158.886719 60.992188 159.148438 61.105469 159.476562 61.105469 C 159.617188 61.105469 159.773438 61.085938 159.945312 61.054688 C 160.121094 61.019531 160.265625 60.976562 160.375 60.925781 L 160.441406 61.410156 C 160.332031 61.472656 160.171875 61.523438 159.957031 61.566406 C 159.746094 61.609375 159.546875 61.632812 159.359375 61.632812 C 158.882812 61.632812 158.496094 61.476562 158.207031 61.164062 C 157.914062 60.851562 157.769531 60.402344 157.769531 59.828125 C 157.769531 59.519531 157.8125 59.25 157.898438 59.015625 C 157.984375 58.785156 158.101562 58.601562 158.25 58.460938 C 158.402344 58.324219 158.570312 58.222656 158.761719 58.15625 C 158.949219 58.089844 159.15625 58.054688 159.382812 58.054688 Z M 159.382812 58.054688 " fill-opacity="1" fill-rule="nonzero"/><path fill="#1c59a7" d="M 162.488281 58.054688 C 162.832031 58.054688 163.113281 58.136719 163.335938 58.300781 C 163.558594 58.460938 163.710938 58.683594 163.800781 58.964844 C 163.886719 59.246094 163.914062 59.578125 163.878906 59.960938 L 161.535156 59.960938 C 161.5625 60.316406 161.683594 60.59375 161.890625 60.800781 C 162.101562 61.007812 162.371094 61.109375 162.691406 61.109375 C 162.835938 61.109375 162.996094 61.089844 163.171875 61.054688 C 163.351562 61.019531 163.5 60.976562 163.621094 60.925781 L 163.691406 61.410156 C 163.578125 61.46875 163.414062 61.523438 163.199219 61.566406 C 162.984375 61.609375 162.773438 61.628906 162.574219 61.628906 C 162.078125 61.628906 161.683594 61.472656 161.382812 61.15625 C 161.085938 60.839844 160.9375 60.402344 160.9375 59.839844 C 160.9375 59.289062 161.078125 58.855469 161.363281 58.535156 C 161.648438 58.214844 162.023438 58.054688 162.488281 58.054688 Z M 162.492188 58.546875 C 162.238281 58.546875 162.027344 58.636719 161.859375 58.8125 C 161.691406 58.992188 161.589844 59.230469 161.546875 59.523438 L 163.289062 59.523438 C 163.28125 59.207031 163.207031 58.964844 163.066406 58.796875 C 162.929688 58.632812 162.738281 58.546875 162.492188 58.546875 Z M 162.492188 58.546875 " fill-opacity="1" fill-rule="nonzero"/><path fill="#1c59a7" d="M 165.3125 56.671875 L 165.3125 61.546875 L 164.703125 61.546875 L 164.703125 56.765625 Z M 165.3125 56.671875 " fill-opacity="1" fill-rule="nonzero"/><path fill="#1c59a7" d="M 166.9375 56.671875 L 166.9375 61.546875 L 166.328125 61.546875 L 166.328125 56.765625 Z M 166.9375 56.671875 " fill-opacity="1" fill-rule="nonzero"/><path fill="#1c59a7" d="M 169.300781 58.054688 C 169.644531 58.054688 169.925781 58.136719 170.148438 58.300781 C 170.371094 58.460938 170.527344 58.683594 170.613281 58.964844 C 170.703125 59.246094 170.730469 59.578125 170.695312 59.960938 L 168.347656 59.960938 C 168.378906 60.316406 168.496094 60.59375 168.707031 60.800781 C 168.917969 61.007812 169.183594 61.109375 169.507812 61.109375 C 169.652344 61.109375 169.8125 61.089844 169.988281 61.054688 C 170.164062 61.019531 170.316406 60.976562 170.4375 60.925781 L 170.507812 61.410156 C 170.394531 61.46875 170.230469 61.523438 170.011719 61.566406 C 169.796875 61.609375 169.589844 61.628906 169.390625 61.628906 C 168.894531 61.628906 168.496094 61.472656 168.199219 61.15625 C 167.898438 60.839844 167.75 60.402344 167.75 59.839844 C 167.75 59.289062 167.894531 58.855469 168.179688 58.535156 C 168.464844 58.214844 168.839844 58.054688 169.300781 58.054688 Z M 169.308594 58.546875 C 169.054688 58.546875 168.84375 58.636719 168.675781 58.8125 C 168.507812 58.992188 168.40625 59.230469 168.363281 59.523438 L 170.105469 59.523438 C 170.097656 59.207031 170.023438 58.964844 169.882812 58.796875 C 169.742188 58.632812 169.550781 58.546875 169.308594 58.546875 Z M 169.308594 58.546875 " fill-opacity="1" fill-rule="nonzero"/><path fill="#1c59a7" d="M 173.339844 58.054688 C 173.707031 58.054688 173.988281 58.167969 174.179688 58.398438 C 174.367188 58.628906 174.460938 58.96875 174.460938 59.421875 L 174.460938 61.546875 L 173.851562 61.546875 L 173.851562 59.441406 C 173.851562 58.859375 173.636719 58.570312 173.203125 58.570312 C 173.039062 58.570312 172.855469 58.609375 172.660156 58.691406 C 172.464844 58.773438 172.289062 58.890625 172.132812 59.039062 L 172.132812 61.546875 L 171.519531 61.546875 L 171.519531 58.132812 L 172.027344 58.132812 L 172.097656 58.570312 C 172.507812 58.226562 172.921875 58.054688 173.339844 58.054688 Z M 173.339844 58.054688 " fill-opacity="1" fill-rule="nonzero"/><path fill="#1c59a7" d="M 176.847656 58.054688 C 177.214844 58.054688 177.566406 58.125 177.894531 58.261719 L 177.75 58.730469 C 177.460938 58.621094 177.195312 58.570312 176.949219 58.570312 C 176.621094 58.570312 176.359375 58.667969 176.15625 58.863281 C 175.957031 59.0625 175.855469 59.378906 175.855469 59.804688 C 175.855469 60.21875 175.953125 60.539062 176.15625 60.765625 C 176.355469 60.992188 176.617188 61.105469 176.941406 61.105469 C 177.082031 61.105469 177.238281 61.085938 177.414062 61.054688 C 177.585938 61.019531 177.730469 60.976562 177.839844 60.925781 L 177.910156 61.410156 C 177.796875 61.472656 177.636719 61.523438 177.421875 61.566406 C 177.210938 61.609375 177.011719 61.632812 176.828125 61.632812 C 176.347656 61.632812 175.964844 61.476562 175.671875 61.164062 C 175.382812 60.851562 175.238281 60.402344 175.238281 59.828125 C 175.238281 59.519531 175.277344 59.25 175.363281 59.015625 C 175.449219 58.785156 175.566406 58.601562 175.71875 58.460938 C 175.867188 58.324219 176.039062 58.222656 176.226562 58.15625 C 176.417969 58.089844 176.621094 58.054688 176.847656 58.054688 Z M 176.847656 58.054688 " fill-opacity="1" fill-rule="nonzero"/><path fill="#1c59a7" d="M 179.953125 58.054688 C 180.296875 58.054688 180.578125 58.136719 180.800781 58.300781 C 181.023438 58.460938 181.179688 58.683594 181.265625 58.964844 C 181.351562 59.246094 181.378906 59.578125 181.347656 59.960938 L 179 59.960938 C 179.027344 60.316406 179.148438 60.59375 179.359375 60.800781 C 179.566406 61.007812 179.835938 61.109375 180.160156 61.109375 C 180.300781 61.109375 180.460938 61.089844 180.640625 61.054688 C 180.816406 61.019531 180.964844 60.976562 181.089844 60.925781 L 181.15625 61.410156 C 181.042969 61.46875 180.878906 61.523438 180.664062 61.566406 C 180.449219 61.609375 180.242188 61.628906 180.042969 61.628906 C 179.546875 61.628906 179.148438 61.472656 178.851562 61.15625 C 178.550781 60.839844 178.402344 60.402344 178.402344 59.839844 C 178.402344 59.289062 178.542969 58.855469 178.832031 58.535156 C 179.117188 58.214844 179.488281 58.054688 179.953125 58.054688 Z M 179.957031 58.546875 C 179.703125 58.546875 179.492188 58.636719 179.328125 58.8125 C 179.160156 58.992188 179.054688 59.230469 179.011719 59.523438 L 180.753906 59.523438 C 180.746094 59.207031 180.671875 58.964844 180.53125 58.796875 C 180.394531 58.632812 180.203125 58.546875 179.957031 58.546875 Z M 179.957031 58.546875 " fill-opacity="1" fill-rule="nonzero"/></svg>