<svg xmlns="http://www.w3.org/2000/svg" xmlns:xlink="http://www.w3.org/1999/xlink" width="260" zoomAndPan="magnify" viewBox="0 0 194.87999 90" height="110" preserveAspectRatio="xMidYMid meet" version="1.0"><defs><clipPath id="5b83e071df"><path d="M 173 47 L 186.636719 47 L 186.636719 64 L 173 64 Z M 173 47 " clip-rule="nonzero"/></clipPath><clipPath id="7d935332e8"><path d="M 8.246094 16.601562 L 33 16.601562 L 33 42 L 8.246094 42 Z M 8.246094 16.601562 " clip-rule="nonzero"/></clipPath><clipPath id="3b4cdf4973"><path d="M 39 16.601562 L 63 16.601562 L 63 42 L 39 42 Z M 39 16.601562 " clip-rule="nonzero"/></clipPath><clipPath id="ec89aad82a"><path d="M 69 16.601562 L 94 16.601562 L 94 42 L 69 42 Z M 69 16.601562 " clip-rule="nonzero"/></clipPath><clipPath id="e6f9a88daf"><path d="M 100 16.601562 L 125 16.601562 L 125 42 L 100 42 Z M 100 16.601562 " clip-rule="nonzero"/></clipPath><clipPath id="75a4a07b2b"><path d="M 131 16.601562 L 155 16.601562 L 155 42 L 131 42 Z M 131 16.601562 " clip-rule="nonzero"/></clipPath><clipPath id="4a0320202a"><path d="M 162 16.601562 L 186 16.601562 L 186 42 L 162 42 Z M 162 16.601562 " clip-rule="nonzero"/></clipPath><clipPath id="953d14b08c"><path d="M 8.246094 45 L 78 45 L 78 66.070312 L 8.246094 66.070312 Z M 8.246094 45 " clip-rule="nonzero"/></clipPath></defs><path fill="#223e7d" d="M 83.269531 47.5625 C 86.6875 47.5625 89.910156 47.488281 93.125 47.589844 C 95.097656 47.652344 96.636719 48.625 97.410156 50.53125 C 98.289062 52.691406 97.199219 55.167969 95.007812 56.121094 C 94.765625 56.226562 94.523438 56.324219 94.222656 56.445312 C 94.960938 57.691406 95.671875 58.898438 96.386719 60.105469 C 96.699219 60.632812 97.007812 61.164062 97.339844 61.675781 C 97.484375 61.894531 97.648438 62.1875 97.863281 62.253906 C 98.660156 62.496094 98.550781 63.074219 98.476562 63.75 C 97.445312 63.75 96.40625 63.671875 95.386719 63.773438 C 94.265625 63.890625 93.632812 63.519531 93.109375 62.492188 C 92.292969 60.875 91.234375 59.382812 90.375 57.785156 C 89.953125 56.996094 89.464844 56.648438 88.496094 56.964844 C 88.496094 57.175781 88.492188 57.453125 88.496094 57.730469 C 88.507812 59 88.511719 60.265625 88.539062 61.535156 C 88.550781 62.121094 88.761719 62.582031 89.488281 62.558594 C 89.488281 62.949219 89.488281 63.308594 89.488281 63.710938 C 87.472656 63.710938 85.464844 63.710938 83.421875 63.710938 C 83.421875 63.351562 83.421875 62.992188 83.421875 62.628906 C 84.285156 62.363281 84.421875 62.15625 84.425781 60.945312 C 84.4375 58.613281 84.433594 56.28125 84.425781 53.949219 C 84.425781 52.578125 84.414062 51.207031 84.386719 49.839844 C 84.378906 49.300781 84.253906 48.878906 83.613281 48.683594 C 83.421875 48.621094 83.394531 48.007812 83.269531 47.5625 Z M 88.496094 52.140625 C 88.496094 52.769531 88.511719 53.402344 88.488281 54.035156 C 88.480469 54.402344 88.601562 54.550781 88.980469 54.53125 C 89.789062 54.484375 90.605469 54.503906 91.414062 54.441406 C 92.632812 54.347656 93.386719 53.53125 93.472656 52.277344 C 93.554688 51.101562 92.9375 50.214844 91.730469 50 C 90.839844 49.847656 89.910156 49.886719 89.003906 49.824219 C 88.589844 49.792969 88.476562 49.976562 88.492188 50.363281 C 88.511719 50.953125 88.496094 51.546875 88.496094 52.140625 Z M 88.496094 52.140625 " fill-opacity="1" fill-rule="evenodd"/><g clip-path="url(#5b83e071df)"><path fill="#223e7d" d="M 178.03125 53.320312 C 179.203125 52.476562 180.34375 52.167969 181.605469 52.199219 C 183.804688 52.25 185.417969 53.832031 185.433594 56.046875 C 185.449219 57.808594 185.433594 59.5625 185.441406 61.324219 C 185.445312 61.882812 185.460938 62.398438 186.125 62.691406 C 186.308594 62.773438 186.300781 63.316406 186.398438 63.71875 C 184.476562 63.71875 182.695312 63.71875 180.871094 63.71875 C 180.851562 63.253906 180.605469 62.777344 181.285156 62.464844 C 181.519531 62.355469 181.667969 61.839844 181.671875 61.507812 C 181.675781 59.652344 181.644531 57.792969 181.585938 55.933594 C 181.566406 55.183594 180.90625 54.609375 180.117188 54.566406 C 179.316406 54.519531 178.726562 54.957031 178.183594 55.464844 C 178.089844 55.554688 178.054688 55.753906 178.054688 55.90625 C 178.046875 57.808594 178.046875 59.710938 178.050781 61.609375 C 178.054688 62.066406 178.214844 62.386719 178.636719 62.664062 C 178.867188 62.816406 178.875 63.304688 179.011719 63.71875 C 177.070312 63.71875 175.273438 63.71875 173.429688 63.71875 C 173.386719 63.222656 173.199219 62.734375 173.902344 62.472656 C 174.078125 62.40625 174.230469 62 174.234375 61.75 C 174.25 57.660156 174.25 53.570312 174.234375 49.480469 C 174.230469 49.246094 174.089844 48.867188 173.925781 48.8125 C 173.269531 48.59375 173.34375 48.132812 173.429688 47.585938 C 174.933594 47.585938 176.449219 47.585938 178.03125 47.585938 C 178.03125 49.4375 178.03125 51.285156 178.03125 53.320312 Z M 178.03125 53.320312 " fill-opacity="1" fill-rule="evenodd"/></g><path fill="#223e7d" d="M 150.277344 63.734375 C 148.660156 63.734375 147.203125 63.734375 145.691406 63.734375 C 145.675781 63.515625 145.652344 63.300781 145.632812 63.027344 C 145.488281 63.09375 145.363281 63.128906 145.261719 63.203125 C 143.933594 64.152344 142.433594 64.203125 140.925781 63.925781 C 139.238281 63.609375 138.175781 62.484375 138.066406 61.09375 C 137.921875 59.34375 138.660156 58.023438 140.355469 57.40625 C 141.820312 56.875 143.347656 56.523438 144.859375 56.140625 C 145.523438 55.96875 145.65625 55.859375 145.382812 55.246094 C 145.25 54.945312 145.003906 54.644531 144.730469 54.472656 C 143.8125 53.90625 141.917969 54.113281 141.089844 54.820312 C 141.011719 54.886719 140.914062 54.949219 140.878906 55.035156 C 140.488281 56.089844 139.632812 55.738281 138.816406 55.746094 C 138.816406 54.917969 138.804688 54.128906 138.824219 53.339844 C 138.828125 53.238281 138.949219 53.085938 139.046875 53.054688 C 141.535156 52.21875 144.085938 51.847656 146.664062 52.488281 C 148.613281 52.972656 149.3125 54.019531 149.3125 56.046875 C 149.3125 57.828125 149.308594 59.605469 149.3125 61.386719 C 149.3125 61.933594 149.363281 62.410156 149.992188 62.6875 C 150.183594 62.769531 150.171875 63.3125 150.277344 63.734375 Z M 145.539062 57.765625 C 144.5 58.238281 143.546875 58.59375 142.675781 59.09375 C 141.976562 59.496094 141.769531 60.347656 142.035156 61.023438 C 142.28125 61.640625 142.914062 61.921875 143.78125 61.792969 C 144.554688 61.675781 145.515625 60.84375 145.535156 60.21875 C 145.558594 59.464844 145.539062 58.710938 145.539062 57.765625 Z M 145.539062 57.765625 " fill-opacity="1" fill-rule="evenodd"/><path fill="#223e7d" d="M 103.257812 58.183594 C 103.078125 60.523438 104.867188 62.226562 107.183594 62.003906 C 108.195312 61.90625 109.066406 61.585938 109.65625 60.648438 C 109.785156 60.441406 110.289062 60.425781 110.621094 60.421875 C 110.710938 60.417969 110.863281 60.773438 110.886719 60.976562 C 110.929688 61.359375 110.898438 61.75 110.898438 62.140625 C 110.898438 63.144531 110.90625 63.171875 109.988281 63.460938 C 107.558594 64.226562 105.109375 64.398438 102.707031 63.378906 C 100.320312 62.367188 99.066406 59.867188 99.417969 57.003906 C 99.699219 54.703125 101.625 52.726562 104.042969 52.324219 C 106.09375 51.984375 108.039062 52.203125 109.589844 53.789062 C 110.683594 54.90625 110.859375 56.347656 110.886719 57.820312 C 110.898438 58.269531 110.527344 58.179688 110.257812 58.179688 C 108.140625 58.183594 106.019531 58.183594 103.898438 58.183594 C 103.699219 58.183594 103.496094 58.183594 103.257812 58.183594 Z M 106.789062 56.363281 C 106.707031 54.851562 106.089844 54.058594 105.058594 54.109375 C 104.109375 54.15625 103.316406 55.1875 103.34375 56.363281 C 104.476562 56.363281 105.609375 56.363281 106.789062 56.363281 Z M 106.789062 56.363281 " fill-opacity="1" fill-rule="evenodd"/><path fill="#223e7d" d="M 128.972656 58.183594 C 129.070312 61.859375 132.054688 62.519531 134.152344 61.707031 C 134.59375 61.53125 135.023438 61.144531 135.285156 60.742188 C 135.609375 60.242188 136.023438 60.355469 136.40625 60.429688 C 136.527344 60.453125 136.621094 60.886719 136.640625 61.136719 C 136.675781 61.664062 136.667969 62.199219 136.636719 62.730469 C 136.628906 62.894531 136.515625 63.152344 136.386719 63.203125 C 133.667969 64.246094 130.917969 64.515625 128.207031 63.257812 C 125.984375 62.222656 124.800781 59.675781 125.167969 57.03125 C 125.496094 54.675781 127.378906 52.738281 129.777344 52.324219 C 131.25 52.070312 132.691406 52.140625 134.0625 52.828125 C 135.507812 53.554688 136.273438 54.765625 136.523438 56.332031 C 136.589844 56.738281 136.601562 57.148438 136.648438 57.554688 C 136.707031 58.03125 136.519531 58.199219 136.03125 58.191406 C 133.914062 58.171875 131.792969 58.183594 129.671875 58.183594 C 129.453125 58.183594 129.234375 58.183594 128.972656 58.183594 Z M 129.0625 56.359375 C 130.234375 56.359375 131.386719 56.359375 132.542969 56.359375 C 132.476562 54.902344 131.886719 54.105469 130.894531 54.105469 C 129.941406 54.105469 129.171875 55.023438 129.0625 56.359375 Z M 129.0625 56.359375 " fill-opacity="1" fill-rule="evenodd"/><path fill="#223e7d" d="M 112.3125 62.417969 C 112.851562 61.597656 113.351562 60.808594 113.886719 60.042969 C 113.957031 59.941406 114.230469 59.859375 114.324219 59.914062 C 114.597656 60.070312 115.003906 60.269531 115.039062 60.5 C 115.1875 61.433594 115.363281 61.816406 116.285156 61.953125 C 117.046875 62.070312 117.863281 62.019531 118.621094 61.871094 C 118.9375 61.804688 119.316406 61.335938 119.402344 60.984375 C 119.507812 60.542969 119.132812 60.203125 118.679688 60.054688 C 117.5625 59.6875 116.433594 59.347656 115.324219 58.941406 C 114.074219 58.484375 113.191406 57.652344 113.050781 56.25 C 112.902344 54.828125 113.511719 53.746094 114.710938 53.011719 C 116.890625 51.675781 120.851562 51.988281 122.902344 53.671875 C 122.4375 54.402344 121.980469 55.148438 121.484375 55.863281 C 121.417969 55.957031 121.105469 55.964844 120.964844 55.894531 C 120.707031 55.773438 120.296875 55.578125 120.28125 55.390625 C 120.234375 54.746094 119.90625 54.339844 119.351562 54.269531 C 118.683594 54.183594 117.984375 54.226562 117.328125 54.347656 C 117.101562 54.386719 116.820312 54.835938 116.804688 55.109375 C 116.789062 55.351562 117.058594 55.734375 117.296875 55.835938 C 117.949219 56.117188 118.644531 56.28125 119.320312 56.496094 C 119.824219 56.652344 120.332031 56.796875 120.828125 56.980469 C 121.996094 57.414062 122.828125 58.183594 123.011719 59.464844 C 123.230469 60.980469 122.824219 62.308594 121.449219 63.109375 C 120.746094 63.515625 119.921875 63.8125 119.121094 63.929688 C 116.804688 64.269531 114.578125 63.988281 112.574219 62.632812 C 112.507812 62.585938 112.449219 62.53125 112.3125 62.417969 Z M 112.3125 62.417969 " fill-opacity="1" fill-rule="evenodd"/><path fill="#223e7d" d="M 171.402344 60.507812 C 171.402344 61.550781 171.417969 62.363281 171.390625 63.175781 C 171.386719 63.3125 171.238281 63.527344 171.117188 63.5625 C 169.058594 64.101562 166.988281 64.371094 164.957031 63.496094 C 161.003906 61.789062 160.441406 57.417969 161.894531 54.832031 C 162.820312 53.1875 164.355469 52.417969 166.160156 52.238281 C 167.917969 52.058594 170.003906 52.339844 171.511719 53.351562 C 171.78125 53.53125 172.1875 53.851562 172.480469 54.09375 C 171.679688 55.050781 171.058594 55.667969 170.433594 56.507812 C 169.941406 56.296875 169.425781 56.285156 169.476562 55.464844 C 169.527344 54.613281 168.101562 53.980469 167.207031 54.21875 C 166.078125 54.519531 165.511719 55.375 165.261719 56.445312 C 164.839844 58.234375 165.027344 59.894531 166.46875 61.222656 C 167.515625 62.183594 169.460938 62.210938 170.222656 60.90625 C 170.367188 60.667969 170.914062 60.664062 171.402344 60.507812 Z M 171.402344 60.507812 " fill-opacity="1" fill-rule="evenodd"/><path fill="#223e7d" d="M 156.207031 52.503906 C 156.238281 52.820312 156.265625 53.097656 156.296875 53.433594 C 156.4375 53.351562 156.550781 53.304688 156.628906 53.230469 C 157.636719 52.230469 158.894531 52.132812 160.207031 52.21875 C 160.515625 52.238281 160.683594 52.367188 160.675781 52.71875 C 160.660156 53.511719 160.660156 54.3125 160.675781 55.109375 C 160.683594 55.457031 160.554688 55.582031 160.214844 55.570312 C 159.734375 55.558594 159.320312 55.632812 159.015625 55.03125 C 158.636719 54.285156 157.335938 54.371094 156.929688 55.1875 C 156.636719 55.785156 156.503906 56.507812 156.472656 57.179688 C 156.40625 58.585938 156.445312 59.996094 156.457031 61.40625 C 156.460938 61.933594 156.542969 62.378906 157.109375 62.679688 C 157.324219 62.789062 157.316406 63.320312 157.425781 63.734375 C 155.480469 63.734375 153.695312 63.734375 151.886719 63.734375 C 151.839844 63.230469 151.660156 62.765625 152.328125 62.460938 C 152.554688 62.355469 152.695312 61.832031 152.699219 61.5 C 152.734375 59.253906 152.726562 57.003906 152.710938 54.753906 C 152.707031 54.265625 152.609375 53.824219 152.027344 53.578125 C 151.835938 53.492188 151.855469 52.914062 151.769531 52.503906 C 153.308594 52.503906 154.726562 52.503906 156.207031 52.503906 Z M 156.207031 52.503906 " fill-opacity="1" fill-rule="evenodd"/><g clip-path="url(#7d935332e8)"><path fill="#223e7d" d="M 8.480469 41.25 L 32.050781 41.25 L 32.050781 16.601562 L 8.480469 16.601562 Z M 13.964844 20.714844 C 16.769531 20.710938 19.574219 20.671875 22.375 20.730469 C 24.109375 20.769531 25.613281 21.429688 26.503906 23.019531 C 27.882812 25.503906 26.746094 28.375 24.039062 29.375 C 23.847656 29.445312 23.660156 29.507812 23.414062 29.59375 C 24.269531 30.957031 25.097656 32.289062 25.929688 33.613281 C 26.214844 34.066406 26.511719 34.511719 26.785156 34.972656 C 27.144531 35.578125 27.578125 36.082031 28.300781 36.257812 C 28.300781 36.527344 28.300781 36.773438 28.300781 37.113281 C 27.242188 37.113281 26.175781 37.0625 25.113281 37.132812 C 24.433594 37.179688 24.089844 36.921875 23.769531 36.351562 C 22.632812 34.339844 21.445312 32.359375 20.269531 30.371094 C 20.179688 30.222656 20.027344 30.019531 19.894531 30.011719 C 19.214844 29.972656 18.535156 29.976562 17.855469 30.003906 C 17.761719 30.003906 17.601562 30.214844 17.601562 30.328125 C 17.617188 32 17.636719 33.675781 17.710938 35.347656 C 17.722656 35.601562 17.953125 35.996094 18.164062 36.070312 C 18.746094 36.261719 18.644531 36.632812 18.597656 37.09375 C 16.878906 37.09375 15.230469 37.09375 13.542969 37.09375 C 13.542969 36.824219 13.542969 36.566406 13.542969 36.257812 C 14.324219 36.144531 14.484375 35.546875 14.484375 34.859375 C 14.496094 31.714844 14.507812 28.570312 14.511719 25.425781 C 14.511719 24.539062 14.492188 23.648438 14.46875 22.761719 C 14.453125 22.238281 14.3125 21.820312 13.742188 21.589844 C 13.558594 21.515625 13.523438 21.082031 13.394531 20.75 C 13.683594 20.730469 13.824219 20.714844 13.964844 20.714844 Z M 13.964844 20.714844 " fill-opacity="1" fill-rule="nonzero"/></g><path fill="#223e7d" d="M 21.316406 27.976562 C 23.0625 27.800781 23.886719 26.738281 23.765625 25.054688 C 23.667969 23.703125 22.476562 22.710938 20.925781 22.695312 C 20.101562 22.6875 19.277344 22.691406 18.453125 22.691406 C 18.175781 22.691406 17.898438 22.691406 17.617188 22.691406 C 17.617188 24.507812 17.617188 26.21875 17.617188 28 C 18.894531 28 20.113281 28.09375 21.316406 27.976562 Z M 21.316406 27.976562 " fill-opacity="1" fill-rule="nonzero"/><path fill="#223e7d" d="M 51.089844 24.007812 C 51.039062 24.007812 50.984375 24.003906 50.933594 24.003906 C 50.308594 25.660156 49.6875 27.316406 49.050781 29 C 50.429688 29 51.710938 29 53.070312 29 C 52.394531 27.292969 51.742188 25.648438 51.089844 24.007812 Z M 51.089844 24.007812 " fill-opacity="1" fill-rule="nonzero"/><g clip-path="url(#3b4cdf4973)"><path fill="#223e7d" d="M 39.148438 41.25 L 62.714844 41.25 L 62.714844 16.601562 L 39.148438 16.601562 Z M 43.660156 36.066406 C 44.035156 35.84375 44.289062 35.320312 44.460938 34.878906 C 46.199219 30.382812 47.917969 25.882812 49.617188 21.371094 C 49.808594 20.863281 50.039062 20.660156 50.585938 20.699219 C 51.324219 20.753906 52.070312 20.734375 52.808594 20.703125 C 53.160156 20.691406 53.328125 20.820312 53.449219 21.132812 C 54.808594 24.625 56.179688 28.117188 57.546875 31.609375 C 58.03125 32.835938 58.5 34.066406 59.003906 35.285156 C 59.117188 35.558594 59.289062 35.894531 59.527344 36.015625 C 60 36.257812 60.0625 36.582031 59.929688 37.085938 C 58.175781 37.085938 56.449219 37.085938 54.703125 37.085938 C 54.648438 36.628906 54.554688 36.238281 55.152344 36.03125 C 55.347656 35.964844 55.578125 35.457031 55.503906 35.25 C 55.039062 33.929688 54.503906 32.636719 53.964844 31.339844 C 53.917969 31.226562 53.675781 31.140625 53.523438 31.136719 C 51.914062 31.121094 50.308594 31.117188 48.699219 31.144531 C 48.519531 31.148438 48.242188 31.335938 48.175781 31.503906 C 47.726562 32.632812 47.308594 33.777344 46.910156 34.925781 C 46.671875 35.605469 46.808594 35.785156 47.414062 36.175781 C 47.632812 36.316406 47.703125 36.691406 47.902344 37.070312 C 46.21875 37.070312 44.75 37.070312 43.261719 37.070312 C 43.160156 36.621094 43.183594 36.34375 43.660156 36.066406 Z M 43.660156 36.066406 " fill-opacity="1" fill-rule="nonzero"/></g><path fill="#223e7d" d="M 81.058594 35.117188 C 83.914062 35.027344 86.402344 33.492188 86.738281 30.023438 C 87.167969 25.589844 83.292969 21.9375 78.929688 22.773438 C 78.929688 26.851562 78.929688 30.9375 78.929688 35.121094 C 79.667969 35.121094 80.363281 35.136719 81.058594 35.117188 Z M 81.058594 35.117188 " fill-opacity="1" fill-rule="nonzero"/><g clip-path="url(#ec89aad82a)"><path fill="#223e7d" d="M 69.902344 41.25 L 93.46875 41.25 L 93.46875 16.601562 L 69.902344 16.601562 Z M 78.167969 20.722656 C 79.75 20.777344 81.375 20.664062 82.898438 21.007812 C 86.554688 21.832031 89.144531 24.011719 89.902344 27.828125 C 90.785156 32.28125 88.054688 36.558594 83.171875 36.945312 C 80.464844 37.15625 77.734375 37.054688 75.019531 37.089844 C 74.960938 37.09375 74.902344 37.0625 74.824219 37.039062 C 74.71875 36.609375 74.738281 36.324219 75.230469 36.058594 C 75.519531 35.90625 75.742188 35.363281 75.75 34.988281 C 75.800781 32.609375 75.78125 30.230469 75.785156 27.851562 C 75.785156 26.199219 75.773438 24.542969 75.777344 22.886719 C 75.777344 22.308594 75.636719 21.863281 75.039062 21.589844 C 74.851562 21.503906 74.8125 21.089844 74.65625 20.710938 C 75.953125 20.710938 77.058594 20.683594 78.167969 20.722656 Z M 78.167969 20.722656 " fill-opacity="1" fill-rule="nonzero"/></g><g clip-path="url(#e6f9a88daf)"><path fill="#223e7d" d="M 100.65625 41.25 L 124.226562 41.25 L 124.226562 16.601562 L 100.65625 16.601562 Z M 110.683594 22.339844 C 110.625 22.109375 110.433594 21.800781 110.238281 21.734375 C 109.707031 21.558594 109.742188 21.214844 109.832031 20.742188 C 111.523438 20.742188 113.1875 20.742188 114.859375 20.742188 C 114.957031 21.195312 115.003906 21.53125 114.445312 21.734375 C 113.925781 21.921875 113.910156 22.460938 113.910156 22.949219 C 113.90625 26.464844 113.90625 29.980469 113.90625 33.5 C 113.90625 34.039062 113.898438 34.578125 113.917969 35.113281 C 113.9375 35.597656 114.125 35.949219 114.601562 36.195312 C 114.8125 36.300781 114.875 36.699219 115.054688 37.066406 C 113.183594 37.066406 111.523438 37.066406 109.839844 37.066406 C 109.746094 36.628906 109.675781 36.265625 110.238281 36.078125 C 110.4375 36.011719 110.628906 35.703125 110.683594 35.472656 C 110.777344 35.097656 110.789062 34.695312 110.792969 34.304688 C 110.796875 30.703125 110.796875 27.105469 110.792969 23.507812 C 110.789062 23.113281 110.777344 22.710938 110.683594 22.339844 Z M 110.683594 22.339844 " fill-opacity="1" fill-rule="nonzero"/></g><g clip-path="url(#75a4a07b2b)"><path fill="#223e7d" d="M 131.414062 41.25 L 154.980469 41.25 L 154.980469 16.601562 L 131.414062 16.601562 Z M 136.507812 34.84375 C 138.234375 30.296875 139.972656 25.753906 141.695312 21.207031 C 141.828125 20.851562 141.996094 20.6875 142.402344 20.703125 C 143.183594 20.738281 143.96875 20.746094 144.75 20.699219 C 145.191406 20.675781 145.363281 20.871094 145.507812 21.238281 C 146.53125 23.890625 147.570312 26.539062 148.609375 29.1875 C 149.386719 31.160156 150.140625 33.144531 150.953125 35.105469 C 151.113281 35.496094 151.5 35.789062 151.730469 36.160156 C 151.882812 36.410156 151.945312 36.714844 152.074219 37.074219 C 150.195312 37.074219 148.457031 37.074219 146.675781 37.074219 C 146.675781 36.765625 146.675781 36.519531 146.675781 36.277344 C 147.65625 35.851562 147.75 35.65625 147.363281 34.679688 C 146.953125 33.648438 146.503906 32.628906 146.101562 31.589844 C 145.972656 31.25 145.808594 31.113281 145.433594 31.121094 C 143.886719 31.140625 142.339844 31.117188 140.796875 31.140625 C 140.597656 31.144531 140.285156 31.277344 140.222656 31.429688 C 139.753906 32.597656 139.328125 33.78125 138.910156 34.964844 C 138.722656 35.496094 138.832031 35.898438 139.414062 36.175781 C 139.628906 36.277344 139.695312 36.691406 139.882812 37.074219 C 138.230469 37.074219 136.777344 37.074219 135.269531 37.074219 C 135.257812 36.824219 135.25 36.589844 135.234375 36.304688 C 135.996094 36.105469 136.257812 35.492188 136.507812 34.84375 Z M 136.507812 34.84375 " fill-opacity="1" fill-rule="nonzero"/></g><path fill="#223e7d" d="M 143.023438 23.8125 C 142.335938 25.636719 141.703125 27.304688 141.054688 29.015625 C 142.410156 29.015625 143.703125 29.015625 145.09375 29.015625 C 144.40625 27.289062 143.742188 25.621094 143.023438 23.8125 Z M 143.023438 23.8125 " fill-opacity="1" fill-rule="nonzero"/><g clip-path="url(#4a0320202a)"><path fill="#223e7d" d="M 162.167969 16.601562 L 162.167969 41.25 L 185.734375 41.25 L 185.734375 16.601562 Z M 181.921875 37.0625 C 180.511719 37.0625 179.101562 37.0625 177.6875 37.0625 C 177.597656 36.601562 177.574219 36.253906 178.132812 36.070312 C 178.347656 36 178.566406 35.609375 178.589844 35.347656 C 178.675781 34.445312 178.691406 33.535156 178.695312 32.625 C 178.695312 32.429688 178.582031 32.183594 178.4375 32.042969 C 175.800781 29.457031 173.148438 26.886719 170.5 24.308594 C 170.40625 24.21875 170.289062 24.148438 170.105469 24.007812 C 170.097656 24.214844 170.085938 24.328125 170.085938 24.441406 C 170.085938 27.792969 170.082031 31.144531 170.09375 34.496094 C 170.09375 34.824219 170.105469 35.167969 170.207031 35.476562 C 170.277344 35.707031 170.457031 36.011719 170.660156 36.078125 C 171.210938 36.269531 171.195312 36.605469 171.058594 37.070312 C 169.675781 37.070312 168.300781 37.070312 166.894531 37.070312 C 166.761719 36.667969 166.667969 36.324219 167.226562 36.097656 C 167.449219 36.011719 167.652344 35.707031 167.722656 35.464844 C 167.832031 35.09375 167.84375 34.691406 167.84375 34.300781 C 167.855469 30.699219 167.855469 27.101562 167.84375 23.503906 C 167.84375 23.113281 167.824219 22.710938 167.722656 22.339844 C 167.664062 22.109375 167.472656 21.804688 167.273438 21.734375 C 166.722656 21.546875 166.742188 21.203125 166.886719 20.71875 C 168.367188 20.71875 169.847656 20.703125 171.324219 20.730469 C 171.511719 20.734375 171.71875 20.925781 171.867188 21.078125 C 173.933594 23.15625 175.988281 25.246094 178.046875 27.335938 C 178.210938 27.5 178.390625 27.652344 178.707031 27.941406 C 178.707031 27.296875 178.71875 26.851562 178.707031 26.402344 C 178.683594 25.144531 178.648438 23.886719 178.621094 22.628906 C 178.613281 22.148438 178.417969 21.839844 177.957031 21.613281 C 177.75 21.511719 177.675781 21.128906 177.480469 20.761719 C 179.074219 20.761719 180.484375 20.761719 181.929688 20.761719 C 182 21.175781 182.0625 21.5 181.53125 21.742188 C 181.257812 21.867188 181 22.355469 181 22.683594 C 180.960938 26.839844 180.964844 31 181 35.15625 C 181 35.46875 181.238281 35.949219 181.492188 36.058594 C 182.015625 36.28125 182.03125 36.589844 181.921875 37.0625 Z M 181.921875 37.0625 " fill-opacity="1" fill-rule="nonzero"/></g><g clip-path="url(#953d14b08c)"><path fill="#223e7d" d="M 8.546875 55.09375 C 10.761719 55.09375 12.972656 55.058594 15.183594 55.105469 C 15.925781 55.121094 16.246094 54.902344 16.441406 54.160156 C 16.773438 52.890625 17.179688 51.632812 17.699219 50.433594 C 18.492188 48.589844 19.347656 48.464844 20.804688 49.898438 C 21.136719 48.953125 21.367188 47.972656 21.824219 47.117188 C 22.136719 46.527344 22.789062 45.6875 23.253906 45.710938 C 23.839844 45.742188 24.695312 46.429688 24.898438 47.019531 C 25.933594 50.039062 26.792969 53.121094 27.707031 56.183594 C 28.148438 57.660156 28.570312 59.144531 28.957031 60.484375 C 29.753906 60.125 30.511719 59.480469 30.953125 59.65625 C 31.546875 59.886719 32.003906 60.699219 32.324219 61.359375 C 32.722656 62.183594 32.925781 63.109375 33.210938 63.992188 C 33.355469 64.015625 33.5 64.035156 33.640625 64.058594 C 34.507812 61.105469 35.371094 58.152344 36.253906 55.140625 C 50.027344 55.140625 63.863281 55.140625 77.773438 55.140625 C 77.773438 55.621094 77.773438 56.054688 77.773438 56.699219 C 77.257812 56.699219 76.75 56.699219 76.238281 56.699219 C 63.863281 56.699219 51.488281 56.71875 39.113281 56.667969 C 37.847656 56.664062 37.296875 56.949219 36.988281 58.28125 C 36.5 60.433594 35.765625 62.539062 34.953125 64.59375 C 34.695312 65.242188 33.851562 66.085938 33.300781 66.070312 C 32.746094 66.058594 32.082031 65.15625 31.714844 64.503906 C 31.277344 63.730469 31.113281 62.8125 30.828125 61.949219 C 29.046875 63.308594 28.238281 63.15625 27.511719 60.929688 C 26.480469 57.777344 25.707031 54.539062 24.789062 51.347656 C 24.4375 50.132812 23.988281 48.945312 23.292969 47.71875 C 22.964844 48.6875 22.65625 49.660156 22.308594 50.617188 C 21.582031 52.585938 20.609375 52.746094 19.109375 50.945312 C 18.523438 52.894531 17.976562 54.714844 17.417969 56.574219 C 14.5 56.574219 11.523438 56.574219 8.550781 56.574219 C 8.546875 56.082031 8.546875 55.589844 8.546875 55.09375 Z M 8.546875 55.09375 " fill-opacity="1" fill-rule="evenodd"/></g></svg>