<svg xmlns="http://www.w3.org/2000/svg" xmlns:xlink="http://www.w3.org/1999/xlink" width="260" zoomAndPan="magnify" viewBox="0 0 194.87999 90" height="110" preserveAspectRatio="xMidYMid meet" version="1.0"><defs><clipPath id="792cc2544c"><path d="M 21 48 L 28 48 L 28 62.632812 L 21 62.632812 Z M 21 48 " clip-rule="nonzero"/></clipPath><clipPath id="cc3eab90ef"><path d="M 21 19.910156 L 28 19.910156 L 28 35 L 21 35 Z M 21 19.910156 " clip-rule="nonzero"/></clipPath></defs><path fill="#ffffff" d="M 65.851562 48.476562 C 65.851562 50.628906 65.851562 52.726562 65.851562 54.828125 C 65.851562 55.359375 65.855469 55.890625 65.828125 56.417969 C 65.796875 57 65.542969 57.242188 64.976562 57.253906 C 64.390625 57.261719 63.800781 57.261719 63.214844 57.253906 C 62.589844 57.242188 62.335938 56.976562 62.335938 56.339844 C 62.332031 48.90625 62.332031 41.472656 62.335938 34.042969 C 62.335938 33.355469 62.65625 33.070312 63.328125 33.164062 C 64.246094 33.296875 64.828125 33.828125 65.109375 34.734375 C 66.078125 33.945312 67.128906 33.367188 68.339844 33.125 C 72.140625 32.363281 75.527344 34.289062 76.902344 37.984375 C 78.160156 41.363281 77.34375 45.25 74.808594 47.550781 C 72.433594 49.707031 69.707031 49.988281 66.773438 48.875 C 66.476562 48.761719 66.191406 48.625 65.851562 48.476562 Z M 65.75 41.714844 C 65.75 42.585938 65.796875 43.460938 65.734375 44.328125 C 65.6875 44.941406 65.921875 45.257812 66.449219 45.496094 C 68.21875 46.296875 69.988281 46.640625 71.753906 45.519531 C 73.546875 44.371094 74.378906 42.105469 73.8125 39.808594 C 73.382812 38.074219 72.382812 36.808594 70.554688 36.398438 C 68.785156 36 67.296875 36.535156 66.132812 37.90625 C 65.910156 38.167969 65.785156 38.574219 65.765625 38.925781 C 65.714844 39.851562 65.75 40.785156 65.75 41.714844 Z M 65.75 41.714844 " fill-opacity="1" fill-rule="evenodd"/><path fill="#ffffff" d="M 117.152344 40.417969 C 119.320312 42.890625 121.429688 45.300781 123.539062 47.710938 C 123.671875 47.863281 123.820312 48.019531 123.917969 48.199219 C 124.175781 48.671875 123.960938 49.109375 123.421875 49.125 C 122.457031 49.15625 121.484375 49.179688 120.523438 49.109375 C 120.214844 49.085938 119.867188 48.824219 119.644531 48.574219 C 117.699219 46.351562 115.777344 44.105469 113.847656 41.867188 C 113.785156 41.796875 113.722656 41.726562 113.597656 41.589844 C 113.582031 41.816406 113.5625 41.972656 113.5625 42.132812 C 113.5625 44.121094 113.566406 46.113281 113.5625 48.105469 C 113.5625 48.867188 113.300781 49.128906 112.539062 49.136719 C 112.085938 49.140625 111.628906 49.140625 111.175781 49.136719 C 110.367188 49.132812 110.121094 48.894531 110.117188 48.09375 C 110.117188 45.777344 110.117188 43.464844 110.117188 41.152344 C 110.117188 36.203125 110.117188 31.253906 110.117188 26.304688 C 110.117188 25.375 110.328125 25.164062 111.242188 25.164062 C 111.660156 25.160156 112.078125 25.160156 112.496094 25.164062 C 113.269531 25.167969 113.550781 25.449219 113.550781 26.226562 C 113.554688 30.339844 113.550781 34.457031 113.550781 38.570312 C 113.550781 38.753906 113.550781 38.933594 113.550781 39.226562 C 114.628906 38.257812 115.625 37.367188 116.617188 36.472656 C 117.617188 35.570312 118.589844 34.640625 119.617188 33.777344 C 119.910156 33.527344 120.347656 33.375 120.734375 33.335938 C 121.449219 33.269531 122.175781 33.324219 122.894531 33.316406 C 123.257812 33.308594 123.65625 33.328125 123.707031 33.738281 C 123.738281 34 123.59375 34.375 123.398438 34.5625 C 121.496094 36.382812 119.570312 38.175781 117.648438 39.976562 C 117.496094 40.117188 117.339844 40.253906 117.152344 40.417969 Z M 117.152344 40.417969 " fill-opacity="1" fill-rule="evenodd"/><path fill="#ffffff" d="M 91.484375 34.832031 C 91.773438 33.824219 92.382812 33.273438 93.351562 33.160156 C 93.988281 33.085938 94.3125 33.382812 94.3125 34.03125 C 94.3125 38.8125 94.3125 43.589844 94.3125 48.375 C 94.3125 49.085938 93.984375 49.359375 93.269531 49.257812 C 92.191406 49.105469 91.679688 48.398438 91.449219 47.359375 C 90.492188 48.300781 89.40625 48.960938 88.132812 49.28125 C 85.007812 50.066406 81.910156 48.648438 80.230469 45.667969 C 78.160156 42 79 37.039062 82.109375 34.550781 C 84.84375 32.367188 88.578125 32.410156 91.261719 34.652344 C 91.320312 34.699219 91.378906 34.746094 91.484375 34.832031 Z M 90.828125 41.3125 C 90.828125 40.496094 90.839844 39.679688 90.820312 38.863281 C 90.816406 38.652344 90.757812 38.410156 90.644531 38.230469 C 89.554688 36.46875 87.265625 35.777344 85.367188 36.617188 C 83.269531 37.539062 82.117188 40.066406 82.730469 42.546875 C 83.15625 44.273438 84.15625 45.582031 85.925781 46.058594 C 87.648438 46.523438 89.136719 45.980469 90.351562 44.683594 C 90.671875 44.34375 90.871094 43.976562 90.839844 43.472656 C 90.796875 42.753906 90.828125 42.03125 90.828125 41.3125 Z M 90.828125 41.3125 " fill-opacity="1" fill-rule="evenodd"/><path fill="#ffffff" d="M 54.433594 33.011719 C 55.925781 32.921875 57.320312 33.285156 58.640625 33.964844 C 59.378906 34.34375 59.511719 34.792969 59.148438 35.550781 C 58.460938 36.980469 58.480469 36.921875 56.957031 36.457031 C 56.046875 36.179688 55.074219 36.097656 54.121094 35.964844 C 53.871094 35.933594 53.59375 36.011719 53.34375 36.085938 C 52.828125 36.246094 52.421875 36.554688 52.316406 37.117188 C 52.214844 37.671875 52.425781 38.160156 52.875 38.457031 C 53.519531 38.882812 54.207031 39.246094 54.890625 39.601562 C 55.914062 40.128906 56.988281 40.570312 57.972656 41.160156 C 59.53125 42.089844 60.234375 43.523438 60.042969 45.335938 C 59.863281 47.054688 58.871094 48.242188 57.335938 48.917969 C 55.058594 49.917969 52.785156 49.640625 50.570312 48.660156 C 50.121094 48.460938 49.710938 48.183594 49.285156 47.933594 C 48.871094 47.6875 48.792969 47.34375 49.007812 46.917969 C 49.203125 46.527344 49.382812 46.132812 49.578125 45.746094 C 49.871094 45.167969 50.214844 45.054688 50.773438 45.394531 C 51.84375 46.042969 53 46.457031 54.25 46.488281 C 54.816406 46.5 55.433594 46.414062 55.945312 46.1875 C 56.777344 45.820312 56.988281 44.777344 56.335938 44.148438 C 55.761719 43.597656 55.035156 43.191406 54.339844 42.789062 C 53.195312 42.128906 51.957031 41.617188 50.878906 40.867188 C 49.234375 39.730469 48.671875 37.828125 49.246094 35.996094 C 49.769531 34.34375 51.367188 33.160156 53.296875 33.015625 C 53.671875 32.988281 54.054688 33.011719 54.433594 33.011719 Z M 54.433594 33.011719 " fill-opacity="1" fill-rule="evenodd"/><path fill="#ffffff" d="M 137.359375 48.078125 C 136.652344 48.410156 135.929688 48.832031 135.15625 49.09375 C 130.578125 50.65625 125.722656 47.714844 124.957031 42.933594 C 124.519531 40.191406 124.949219 37.636719 126.785156 35.464844 C 128.972656 32.878906 132.660156 32.210938 135.910156 33.757812 C 136.433594 34.003906 136.929688 34.316406 137.40625 34.578125 C 137.59375 34.195312 137.738281 33.773438 137.988281 33.4375 C 138.113281 33.277344 138.46875 33.179688 138.679688 33.226562 C 138.816406 33.257812 138.964844 33.601562 138.964844 33.804688 C 138.972656 39.230469 139.042969 44.65625 138.921875 50.078125 C 138.835938 54.140625 135.820312 56.769531 131.757812 56.601562 C 129.917969 56.523438 128.292969 55.898438 126.847656 54.765625 C 126.457031 54.457031 126.300781 54.179688 126.679688 53.738281 C 127.125 53.222656 127.179688 53.195312 127.738281 53.585938 C 129.519531 54.839844 131.453125 55.429688 133.628906 54.871094 C 135.699219 54.34375 137.128906 52.75 137.34375 50.628906 C 137.429688 49.773438 137.359375 48.902344 137.359375 48.078125 Z M 137.441406 41.316406 C 137.441406 40.253906 137.53125 39.160156 137.46875 38.132812 C 137.488281 36.527344 136.878906 35.839844 135.667969 35.273438 C 135.550781 35.21875 135.433594 35.152344 135.3125 35.101562 C 132.847656 33.984375 130.089844 34.390625 128.347656 36.125 C 126.085938 38.371094 125.679688 42.308594 127.417969 45.101562 C 129.601562 48.621094 134.21875 48.828125 137.210938 46.289062 C 137.355469 46.167969 137.429688 45.898438 137.429688 45.695312 C 137.449219 44.238281 137.441406 42.777344 137.441406 41.316406 Z M 137.441406 41.316406 " fill-opacity="1" fill-rule="evenodd"/><path fill="#ffffff" d="M 188.164062 47.613281 C 187.164062 48.121094 186.175781 48.789062 185.085938 49.140625 C 180.925781 50.476562 176.90625 48.058594 175.839844 43.65625 C 175.285156 41.347656 175.433594 39.09375 176.546875 36.980469 C 178.386719 33.492188 181.996094 32.265625 185.703125 33.320312 C 186.523438 33.554688 187.296875 33.96875 188.140625 34.320312 C 188.140625 34.171875 188.140625 33.992188 188.140625 33.8125 C 188.140625 31.214844 188.140625 28.617188 188.140625 26.019531 C 188.140625 25.316406 188.273438 25.164062 188.875 25.160156 C 189.519531 25.15625 189.710938 25.34375 189.710938 26.007812 C 189.714844 33.5 189.714844 40.992188 189.699219 48.484375 C 189.699219 48.742188 189.492188 49 189.382812 49.253906 C 189.101562 49.105469 188.707031 49.023438 188.566406 48.785156 C 188.332031 48.40625 188.261719 47.921875 188.164062 47.613281 Z M 188.140625 40.859375 C 188.140625 39.457031 188.148438 38.054688 188.128906 36.652344 C 188.128906 36.453125 188.054688 36.191406 187.914062 36.066406 C 186.066406 34.425781 182.835938 33.992188 180.671875 35.121094 C 178.476562 36.269531 177.335938 38.171875 177.136719 40.589844 C 176.9375 43.0625 177.667969 45.246094 179.648438 46.859375 C 182.195312 48.933594 186.089844 47.976562 187.984375 45.53125 C 188.097656 45.386719 188.132812 45.148438 188.132812 44.957031 C 188.144531 43.589844 188.140625 42.226562 188.140625 40.859375 Z M 188.140625 40.859375 " fill-opacity="1" fill-rule="evenodd"/><path fill="#ffffff" d="M 100.386719 35.039062 C 102.121094 33.148438 104.253906 32.664062 106.667969 33.125 C 106.867188 33.164062 107.070312 33.230469 107.257812 33.308594 C 108.03125 33.625 108.164062 33.980469 107.804688 34.71875 C 107.574219 35.195312 107.351562 35.671875 107.117188 36.148438 C 106.902344 36.59375 106.585938 36.722656 106.097656 36.550781 C 104.355469 35.933594 102.570312 36.417969 101.402344 37.855469 C 101.1875 38.121094 101.046875 38.53125 101.042969 38.871094 C 101.015625 41.941406 101.027344 45.015625 101.027344 48.085938 C 101.027344 48.925781 100.839844 49.117188 99.996094 49.136719 C 99.523438 49.144531 99.050781 49.140625 98.578125 49.136719 C 97.816406 49.128906 97.550781 48.867188 97.546875 48.113281 C 97.535156 45.988281 97.527344 43.867188 97.519531 41.742188 C 97.515625 39.203125 97.511719 36.664062 97.511719 34.125 C 97.511719 33.316406 97.816406 33.074219 98.597656 33.195312 C 99.34375 33.308594 99.828125 33.730469 100.128906 34.398438 C 100.222656 34.597656 100.296875 34.808594 100.386719 35.039062 Z M 100.386719 35.039062 " fill-opacity="1" fill-rule="evenodd"/><path fill="#ffffff" d="M 156.671875 41.222656 C 156.625 45.078125 154.125 48.414062 150.59375 49.273438 C 146.527344 50.269531 142.53125 48.03125 141.207031 44.011719 C 139.820312 39.796875 141.691406 35.292969 145.535156 33.601562 C 150.140625 31.574219 155.535156 34.46875 156.46875 39.476562 C 156.574219 40.054688 156.605469 40.640625 156.671875 41.222656 Z M 148.320312 34.4375 C 147.84375 34.566406 146.96875 34.691406 146.191406 35.035156 C 141.984375 36.890625 140.949219 42.730469 144.203125 46.035156 C 146.742188 48.609375 150.671875 48.636719 153.066406 46.097656 C 155.199219 43.835938 155.625 40.367188 154.054688 37.679688 C 152.867188 35.652344 151.078125 34.566406 148.320312 34.4375 Z M 148.320312 34.4375 " fill-opacity="1" fill-rule="evenodd"/><path fill="#ffffff" d="M 166.0625 32.976562 C 170 32.976562 173.4375 36.035156 173.902344 39.953125 C 174.359375 43.839844 172.535156 47.316406 169.253906 48.816406 C 164.695312 50.898438 159.359375 48.144531 158.3125 43.171875 C 157.492188 39.273438 159.140625 35.554688 162.457031 33.816406 C 163.554688 33.238281 164.691406 32.972656 166.0625 32.976562 Z M 172.390625 41.21875 C 172.285156 40.566406 172.234375 39.902344 172.070312 39.269531 C 170.855469 34.644531 165.429688 32.949219 161.910156 36.085938 C 159.179688 38.515625 158.875 42.941406 161.277344 45.71875 C 162.859375 47.554688 164.871094 48.351562 167.265625 47.839844 C 170.300781 47.1875 172.316406 44.484375 172.390625 41.21875 Z M 172.390625 41.21875 " fill-opacity="1" fill-rule="evenodd"/><path fill="#ffc225" d="M 5.167969 50.320312 C 5.152344 49.136719 5.503906 48.515625 6.371094 48.121094 C 9.507812 46.699219 12.621094 45.226562 15.738281 43.773438 C 16.53125 43.40625 17.1875 43.480469 17.714844 44.160156 C 18.0625 44.605469 18.308594 45.171875 18.457031 45.71875 C 18.601562 46.257812 18.378906 46.757812 17.886719 47.097656 C 14.9375 49.160156 11.988281 51.226562 9.042969 53.289062 C 8.398438 53.742188 7.742188 53.652344 7.117188 53.296875 C 5.863281 52.582031 5.265625 51.453125 5.167969 50.320312 Z M 5.167969 50.320312 " fill-opacity="1" fill-rule="evenodd"/><path fill="#ffc225" d="M 43.097656 50.058594 C 43.085938 51.613281 41.933594 53.222656 40.539062 53.5 C 40.136719 53.578125 39.589844 53.511719 39.261719 53.289062 C 36.277344 51.25 33.324219 49.15625 30.359375 47.085938 C 29.949219 46.796875 29.761719 46.394531 29.785156 45.914062 C 29.828125 44.980469 30.242188 44.242188 31.046875 43.753906 C 31.453125 43.503906 31.882812 43.472656 32.34375 43.6875 C 35.613281 45.21875 38.894531 46.734375 42.167969 48.261719 C 42.925781 48.617188 43.101562 49.296875 43.097656 50.058594 Z M 43.097656 50.058594 " fill-opacity="1" fill-rule="evenodd"/><path fill="#ffc225" d="M 43.089844 32.011719 C 43.113281 33.285156 42.761719 33.90625 41.894531 34.300781 C 38.777344 35.71875 35.675781 37.164062 32.585938 38.644531 C 31.648438 39.09375 31.066406 38.800781 30.542969 38.28125 C 29.855469 37.59375 29.578125 36.515625 29.933594 35.839844 C 30.039062 35.632812 30.230469 35.445312 30.425781 35.308594 C 33.320312 33.269531 36.226562 31.246094 39.117188 29.203125 C 39.730469 28.769531 40.355469 28.734375 40.988281 29.054688 C 42.335938 29.746094 42.988281 30.898438 43.089844 32.011719 Z M 43.089844 32.011719 " fill-opacity="1" fill-rule="evenodd"/><g clip-path="url(#792cc2544c)"><path fill="#ffc225" d="M 24.097656 62.585938 C 23.589844 62.457031 23.058594 62.386719 22.574219 62.191406 C 21.519531 61.765625 21.152344 61.15625 21.246094 60.027344 C 21.542969 56.523438 21.851562 53.015625 22.175781 49.511719 C 22.203125 49.25 22.339844 48.953125 22.515625 48.753906 C 23.257812 47.933594 25.046875 47.941406 25.761719 48.777344 C 25.953125 49.003906 26.070312 49.347656 26.097656 49.652344 C 26.421875 53.078125 26.722656 56.511719 27.019531 59.941406 C 27.148438 61.378906 26.296875 62.296875 24.683594 62.480469 C 24.496094 62.5 24.308594 62.5 24.117188 62.511719 C 24.113281 62.539062 24.105469 62.5625 24.097656 62.585938 Z M 24.097656 62.585938 " fill-opacity="1" fill-rule="evenodd"/></g><g clip-path="url(#cc3eab90ef)"><path fill="#ffc225" d="M 21.214844 22.039062 C 21.132812 21.433594 21.476562 20.902344 22.066406 20.5 C 23.171875 19.734375 24.972656 19.707031 26.109375 20.441406 C 26.757812 20.863281 27.121094 21.429688 27.042969 22.25 C 26.785156 25 26.550781 27.753906 26.304688 30.507812 C 26.253906 31.109375 26.175781 31.710938 26.136719 32.316406 C 26.039062 33.832031 25.015625 34.574219 23.503906 34.210938 C 22.589844 33.992188 22.222656 33.519531 22.140625 32.585938 C 21.863281 29.324219 21.566406 26.066406 21.273438 22.804688 C 21.257812 22.597656 21.242188 22.390625 21.214844 22.039062 Z M 21.214844 22.039062 " fill-opacity="1" fill-rule="evenodd"/></g><path fill="#ffc225" d="M 5.160156 32.210938 C 5.261719 30.972656 5.871094 29.867188 7.085938 29.148438 C 7.722656 28.769531 8.402344 28.6875 9.0625 29.152344 C 12.023438 31.230469 14.984375 33.304688 17.945312 35.382812 C 18.007812 35.425781 18.070312 35.46875 18.125 35.523438 C 18.640625 36.046875 18.585938 37.089844 18.003906 37.945312 C 17.460938 38.734375 16.660156 39.085938 15.976562 38.769531 C 12.664062 37.238281 9.355469 35.695312 6.050781 34.140625 C 5.320312 33.792969 5.171875 33.105469 5.160156 32.210938 Z M 5.160156 32.210938 " fill-opacity="1" fill-rule="evenodd"/></svg>