<svg xmlns="http://www.w3.org/2000/svg" xmlns:xlink="http://www.w3.org/1999/xlink" width="260" zoomAndPan="magnify" viewBox="0 0 194.87999 90" height="110" preserveAspectRatio="xMidYMid meet" version="1.0"><defs><clipPath id="11d5757f19"><path d="M 173 28.230469 L 189.890625 28.230469 L 189.890625 58.960938 L 173 58.960938 Z M 173 28.230469 " clip-rule="nonzero"/></clipPath><clipPath id="8be272e6ff"><path d="M 74 28.230469 L 92 28.230469 L 92 58.960938 L 74 58.960938 Z M 74 28.230469 " clip-rule="nonzero"/></clipPath><clipPath id="a0eb100acb"><path d="M 152 28.230469 L 171 28.230469 L 171 58.960938 L 152 58.960938 Z M 152 28.230469 " clip-rule="nonzero"/></clipPath><clipPath id="ef06b3e041"><path d="M 4.753906 28.230469 L 21 28.230469 L 21 58.960938 L 4.753906 58.960938 Z M 4.753906 28.230469 " clip-rule="nonzero"/></clipPath><clipPath id="a9badc9164"><path d="M 93 28.230469 L 111 28.230469 L 111 58.960938 L 93 58.960938 Z M 93 28.230469 " clip-rule="nonzero"/></clipPath><clipPath id="f3f52132c9"><path d="M 56 28.230469 L 72 28.230469 L 72 58.960938 L 56 58.960938 Z M 56 28.230469 " clip-rule="nonzero"/></clipPath><clipPath id="a2b90e7354"><path d="M 39 28.230469 L 55 28.230469 L 55 58.960938 L 39 58.960938 Z M 39 28.230469 " clip-rule="nonzero"/></clipPath><clipPath id="efbd87ad44"><path d="M 122 28.230469 L 137 28.230469 L 137 58.960938 L 122 58.960938 Z M 122 28.230469 " clip-rule="nonzero"/></clipPath><clipPath id="edee1974d4"><path d="M 137 28.230469 L 152 28.230469 L 152 58.960938 L 137 58.960938 Z M 137 28.230469 " clip-rule="nonzero"/></clipPath><clipPath id="8c0b8b857e"><path d="M 21 28.230469 L 41 28.230469 L 41 53 L 21 53 Z M 21 28.230469 " clip-rule="nonzero"/></clipPath><clipPath id="7e0014a561"><path d="M 112 28.230469 L 120 28.230469 L 120 58.960938 L 112 58.960938 Z M 112 28.230469 " clip-rule="nonzero"/></clipPath><clipPath id="6e9b8756df"><path d="M 15 45 L 47 45 L 47 58.960938 L 15 58.960938 Z M 15 45 " clip-rule="nonzero"/></clipPath></defs><g clip-path="url(#11d5757f19)"><path fill="#ffffff" d="M 173.117188 28.816406 C 176.828125 28.910156 180.515625 28.597656 184.179688 28.964844 C 187.496094 29.296875 189.105469 31.0625 189.523438 34.402344 C 189.742188 36.136719 189.726562 37.855469 189.226562 39.550781 C 188.78125 41.039062 187.894531 42.121094 186.417969 42.6875 C 186.289062 42.734375 186.113281 42.753906 186.058594 42.957031 C 187.207031 43.253906 188.171875 43.835938 188.769531 44.898438 C 189.347656 45.917969 189.566406 47.03125 189.574219 48.1875 C 189.585938 50.375 189.574219 52.566406 189.578125 54.753906 C 189.585938 56.042969 189.578125 57.335938 190.125 58.628906 C 188.070312 58.628906 186.085938 58.625 184.097656 58.632812 C 183.75 58.636719 183.625 58.433594 183.542969 58.152344 C 183.339844 57.433594 183.253906 56.695312 183.253906 55.949219 C 183.25 53.363281 183.257812 50.773438 183.25 48.1875 C 183.246094 46.449219 182.492188 45.707031 180.746094 45.707031 L 179.441406 45.707031 L 179.441406 58.570312 L 173.117188 58.570312 Z M 179.457031 40.640625 C 180.105469 40.640625 180.71875 40.65625 181.335938 40.636719 C 182.300781 40.609375 182.859375 40.1875 183.097656 39.238281 C 183.433594 37.894531 183.40625 36.535156 183.066406 35.199219 C 182.902344 34.566406 182.488281 34.105469 181.789062 33.996094 C 181.011719 33.875 180.230469 33.929688 179.457031 33.957031 Z M 179.457031 40.640625 " fill-opacity="1" fill-rule="nonzero"/></g><g clip-path="url(#8be272e6ff)"><path fill="#ffffff" d="M 87.027344 42.910156 C 90.007812 43.773438 90.625 45.917969 90.691406 48.609375 C 90.738281 50.5 90.695312 52.390625 90.699219 54.285156 C 90.703125 55.71875 90.585938 57.167969 91.199219 58.628906 C 89.089844 58.628906 87.082031 58.628906 85.070312 58.628906 C 84.785156 58.628906 84.710938 58.445312 84.644531 58.210938 C 84.488281 57.660156 84.378906 57.101562 84.375 56.53125 C 84.367188 53.84375 84.363281 51.160156 84.363281 48.472656 C 84.363281 47.96875 84.335938 47.476562 84.148438 47.007812 C 83.832031 46.222656 83.261719 45.761719 82.410156 45.71875 C 81.816406 45.691406 81.21875 45.714844 80.550781 45.714844 L 80.550781 58.589844 L 74.191406 58.589844 L 74.191406 28.890625 C 74.261719 28.875 74.355469 28.84375 74.453125 28.84375 C 77.660156 28.84375 80.871094 28.839844 84.078125 28.859375 C 85.121094 28.867188 86.15625 29.015625 87.136719 29.386719 C 88.875 30.050781 89.898438 31.351562 90.347656 33.113281 C 90.847656 35.066406 90.855469 37.050781 90.46875 39.015625 C 90.09375 40.917969 88.992188 42.265625 87.027344 42.910156 M 80.574219 40.636719 C 81.328125 40.636719 82.019531 40.6875 82.703125 40.625 C 83.382812 40.558594 83.886719 40.199219 84.097656 39.484375 C 84.519531 38.042969 84.492188 36.597656 84.113281 35.160156 C 83.953125 34.558594 83.542969 34.09375 82.886719 34.003906 C 82.132812 33.898438 81.367188 33.890625 80.574219 33.96875 Z M 80.574219 40.636719 " fill-opacity="1" fill-rule="nonzero"/></g><g clip-path="url(#a0eb100acb)"><path fill="#ffffff" d="M 163.734375 53.382812 L 159.109375 53.382812 C 158.894531 55.121094 158.683594 56.835938 158.464844 58.585938 L 152.015625 58.585938 C 153.71875 48.628906 155.414062 38.722656 157.105469 28.8125 L 165.703125 28.8125 C 167.40625 38.738281 169.109375 48.636719 170.824219 58.632812 L 166.160156 58.632812 C 164.3125 58.632812 164.316406 58.628906 164.125 56.765625 C 164.007812 55.636719 163.863281 54.511719 163.734375 53.382812 M 159.765625 47.851562 L 163.074219 47.851562 C 162.539062 43.382812 162.011719 38.960938 161.484375 34.542969 C 161.441406 34.546875 161.398438 34.550781 161.351562 34.554688 C 160.824219 38.96875 160.296875 43.382812 159.765625 47.851562 " fill-opacity="1" fill-rule="nonzero"/></g><g clip-path="url(#ef06b3e041)"><path fill="#ffffff" d="M 20.421875 40.898438 L 14.246094 40.898438 C 14.246094 39.082031 14.242188 37.296875 14.246094 35.507812 C 14.246094 35.0625 14.226562 34.617188 14.042969 34.199219 C 13.761719 33.554688 13.109375 33.207031 12.402344 33.320312 C 11.75 33.425781 11.246094 33.964844 11.171875 34.632812 C 11.160156 34.757812 11.164062 34.882812 11.164062 35.007812 C 11.164062 40.605469 11.160156 46.207031 11.164062 51.804688 C 11.164062 52.800781 11.648438 53.40625 12.480469 53.496094 C 13.34375 53.589844 14.011719 53.089844 14.167969 52.183594 C 14.34375 51.148438 14.222656 50.101562 14.242188 49.058594 C 14.261719 48.019531 14.246094 46.980469 14.246094 45.917969 L 20.4375 45.917969 C 20.335938 47.902344 20.628906 49.859375 20.246094 51.792969 C 20.082031 52.621094 19.507812 53.242188 18.863281 53.765625 C 17.113281 55.183594 15.34375 56.574219 13.617188 58.023438 C 13.125 58.4375 12.632812 58.570312 12.011719 58.582031 C 10.578125 58.609375 9.175781 58.507812 7.902344 57.785156 C 5.882812 56.640625 4.792969 54.878906 4.777344 52.566406 C 4.734375 46.71875 4.761719 40.871094 4.761719 35.023438 C 4.761719 31.25 6.664062 28.980469 10.394531 28.417969 C 12.625 28.085938 14.847656 28.136719 16.960938 29.089844 C 19.136719 30.074219 20.285156 31.816406 20.398438 34.148438 C 20.503906 36.378906 20.421875 38.617188 20.421875 40.898438 " fill-opacity="1" fill-rule="nonzero"/></g><g clip-path="url(#a9badc9164)"><path fill="#ffffff" d="M 93.910156 28.855469 C 97.546875 28.855469 101.152344 28.761719 104.753906 28.882812 C 107.972656 28.992188 109.808594 30.746094 110.355469 33.960938 C 110.84375 36.820312 110.902344 39.695312 110.167969 42.519531 C 109.464844 45.226562 107.527344 46.691406 104.691406 46.761719 C 103.230469 46.800781 101.769531 46.769531 100.207031 46.769531 L 100.207031 58.605469 L 93.910156 58.605469 Z M 100.226562 41.527344 C 100.929688 41.527344 101.59375 41.53125 102.257812 41.527344 C 103.214844 41.515625 103.753906 41.113281 103.914062 40.183594 C 104.195312 38.558594 104.171875 36.925781 103.890625 35.308594 C 103.796875 34.761719 103.539062 34.246094 102.9375 34.089844 C 102.046875 33.859375 101.144531 33.898438 100.226562 33.984375 Z M 100.226562 41.527344 " fill-opacity="1" fill-rule="nonzero"/></g><g clip-path="url(#f3f52132c9)"><path fill="#ffffff" d="M 70.792969 34.515625 L 63.109375 34.515625 L 63.109375 40.394531 L 69.808594 40.394531 L 69.808594 46.234375 L 63.109375 46.234375 L 63.109375 52.851562 L 71.089844 52.851562 L 71.089844 58.527344 L 56.554688 58.527344 L 56.554688 28.878906 L 70.792969 28.878906 Z M 70.792969 34.515625 " fill-opacity="1" fill-rule="nonzero"/></g><g clip-path="url(#a2b90e7354)"><path fill="#ffffff" d="M 50.484375 58.472656 C 49.296875 58.734375 48.425781 58.464844 47.609375 57.6875 C 46.5 56.632812 45.269531 55.703125 44.082031 54.726562 C 43.722656 54.433594 43.558594 54.109375 43.558594 53.609375 C 43.582031 47.585938 43.574219 41.5625 43.574219 35.539062 L 43.574219 34.667969 L 39.324219 34.667969 L 39.324219 28.875 L 54.730469 28.875 L 54.730469 34.632812 L 50.484375 34.632812 Z M 50.484375 58.472656 " fill-opacity="1" fill-rule="nonzero"/></g><g clip-path="url(#efbd87ad44)"><path fill="#ffffff" d="M 129.4375 52.910156 L 136.277344 52.910156 L 136.277344 58.574219 L 122.921875 58.574219 L 122.921875 28.878906 L 129.4375 28.878906 Z M 129.4375 52.910156 " fill-opacity="1" fill-rule="nonzero"/></g><g clip-path="url(#edee1974d4)"><path fill="#ffffff" d="M 137.878906 28.863281 L 144.363281 28.863281 L 144.363281 52.945312 L 151.140625 52.945312 L 151.140625 58.570312 L 137.878906 58.570312 Z M 137.878906 28.863281 " fill-opacity="1" fill-rule="nonzero"/></g><g clip-path="url(#8c0b8b857e)"><path fill="#ffffff" d="M 40.933594 52.070312 C 37.640625 49.304688 34.457031 46.632812 31.242188 43.929688 C 28.167969 46.410156 25.09375 48.894531 21.859375 51.507812 C 23.566406 43.839844 25.230469 36.359375 26.898438 28.855469 C 29.671875 28.855469 32.40625 28.859375 35.144531 28.847656 C 35.507812 28.847656 35.59375 29.027344 35.664062 29.324219 C 37.398438 36.710938 39.140625 44.097656 40.878906 51.484375 C 40.914062 51.625 40.910156 51.777344 40.933594 52.070312 M 31.300781 34.242188 C 31.261719 34.226562 31.222656 34.214844 31.183594 34.203125 C 30.648438 36.929688 30.113281 39.660156 29.578125 42.390625 L 32.878906 42.390625 C 32.34375 39.628906 31.820312 36.933594 31.300781 34.242188 " fill-opacity="1" fill-rule="nonzero"/></g><g clip-path="url(#7e0014a561)"><path fill="#ffffff" d="M 112.929688 28.886719 L 119.40625 28.886719 L 119.40625 58.585938 L 112.929688 58.585938 Z M 112.929688 28.886719 " fill-opacity="1" fill-rule="nonzero"/></g><g clip-path="url(#6e9b8756df)"><path fill="#edcc07" d="M 46.296875 58.527344 L 15.628906 58.527344 C 20.898438 54.261719 26.074219 50.070312 31.234375 45.894531 C 36.253906 50.105469 41.230469 54.277344 46.296875 58.527344 " fill-opacity="1" fill-rule="nonzero"/></g></svg>