<svg xmlns="http://www.w3.org/2000/svg" xmlns:xlink="http://www.w3.org/1999/xlink" width="260" zoomAndPan="magnify" viewBox="0 0 194.87999 90" height="110" preserveAspectRatio="xMidYMid meet" version="1.0"><defs><clipPath id="5cfc20bdf1"><path d="M 60.175781 3.988281 L 134.382812 3.988281 L 134.382812 78.195312 L 60.175781 78.195312 Z M 60.175781 3.988281 " clip-rule="nonzero"/></clipPath></defs><g clip-path="url(#5cfc20bdf1)"><path fill="#ffffff" d="M 60.175781 78.511719 L 134.699219 78.511719 L 134.699219 3.988281 L 60.175781 3.988281 Z M 60.175781 78.511719 " fill-opacity="1" fill-rule="nonzero"/></g><path fill="#000000" d="M 96.808594 45.066406 L 99.378906 36.5 L 101.894531 45.066406 Z M 128.117188 35.011719 L 128.117188 30.039062 L 110.765625 30.039062 L 110.765625 51.003906 L 103.125 30.511719 L 95.839844 30.511719 L 88.847656 50.945312 L 88.847656 39.691406 L 78.957031 39.691406 L 78.957031 44.3125 L 82.21875 44.3125 C 82.21875 46.207031 79.433594 47.09375 77.894531 47.09375 C 76.351562 47.09375 73.273438 46.738281 73.273438 40.34375 C 73.273438 33.945312 77.597656 34.007812 77.597656 34.007812 C 81.269531 34.007812 81.742188 36.910156 81.742188 36.910156 L 88.316406 36.910156 C 87.191406 30.6875 82.15625 29.210938 78.011719 29.089844 C 73.863281 28.972656 66.757812 31.578125 66.757812 40.34375 C 66.757812 49.109375 71.613281 52.421875 76.828125 52.542969 C 81.859375 52.664062 84.050781 49.347656 84.050781 49.347656 L 84.050781 52.308594 L 94.59375 52.308594 L 95.542969 49.464844 L 103.371094 49.464844 L 104.191406 52.246094 L 117.753906 52.246094 L 117.753906 44.429688 L 125.984375 44.429688 L 125.984375 39.515625 L 117.753906 39.515625 L 117.753906 35.011719 L 128.117188 35.011719 " fill-opacity="1" fill-rule="nonzero"/></svg>