<svg xmlns="http://www.w3.org/2000/svg" xmlns:xlink="http://www.w3.org/1999/xlink" width="260" zoomAndPan="magnify" viewBox="0 0 194.87999 90" height="110" preserveAspectRatio="xMidYMid meet" version="1.0"><defs><clipPath id="a5d3cd3742"><path d="M 66 12.09375 L 192 12.09375 L 192 59 L 66 59 Z M 66 12.09375 " clip-rule="nonzero"/></clipPath><clipPath id="b704ce2016"><path d="M 2.550781 13 L 43 13 L 43 70.558594 L 2.550781 70.558594 Z M 2.550781 13 " clip-rule="nonzero"/></clipPath></defs><g clip-path="url(#a5d3cd3742)"><path fill="#ffffff" d="M 103.082031 52.34375 C 102.738281 52.683594 102.382812 53.011719 102.054688 53.367188 C 101.0625 54.4375 99.933594 55.363281 98.777344 56.246094 C 97.894531 56.914062 96.925781 57.417969 95.882812 57.785156 C 95.167969 58.03125 94.441406 58.121094 93.695312 58.089844 C 92.367188 58.035156 91.4375 57.367188 90.847656 56.203125 C 90.453125 55.417969 90.292969 54.5625 90.238281 53.691406 C 90.222656 53.417969 90.214844 53.148438 90.199219 52.746094 C 89.976562 52.964844 89.832031 53.085938 89.707031 53.230469 C 88.773438 54.316406 87.75 55.320312 86.628906 56.214844 C 85.601562 57.035156 84.480469 57.679688 83.175781 57.957031 C 81.894531 58.226562 80.710938 57.671875 80.398438 56.148438 C 80.15625 54.96875 80.289062 53.8125 80.5 52.652344 C 81.039062 49.761719 81.929688 46.964844 82.765625 44.152344 C 83.285156 42.394531 83.742188 40.613281 84.207031 38.839844 C 84.292969 38.519531 84.328125 38.179688 84.320312 37.851562 C 84.3125 37.359375 84.0625 37.113281 83.574219 37.046875 C 83.078125 36.984375 82.59375 37.054688 82.15625 37.285156 C 81.503906 37.632812 80.851562 37.984375 80.242188 38.402344 C 79.1875 39.125 78.226562 39.96875 77.332031 40.886719 C 75.976562 42.269531 75.054688 43.894531 74.59375 45.773438 C 74.171875 47.507812 73.785156 49.25 73.382812 50.992188 C 72.902344 53.054688 72.421875 55.117188 71.941406 57.183594 C 71.433594 57.300781 68.667969 57.339844 67.621094 57.238281 C 67.605469 57.191406 67.570312 57.140625 67.582031 57.105469 C 68.527344 54.054688 69.207031 50.9375 69.9375 47.835938 C 70.714844 44.53125 71.457031 41.222656 72.207031 37.914062 C 72.277344 37.617188 72.324219 37.308594 72.324219 37.003906 C 72.328125 36.640625 72.066406 36.445312 71.707031 36.542969 C 71.464844 36.609375 71.230469 36.726562 71.011719 36.851562 C 70.066406 37.375 69.25 38.070312 68.46875 38.8125 C 68.082031 39.179688 67.695312 39.546875 67.257812 39.964844 C 66.910156 39.625 66.589844 39.308594 66.238281 38.964844 C 66.367188 38.796875 66.457031 38.644531 66.578125 38.527344 C 68.035156 37.085938 69.605469 35.777344 71.324219 34.65625 C 72.441406 33.929688 73.617188 33.308594 74.96875 33.140625 C 75.363281 33.089844 75.785156 33.105469 76.179688 33.171875 C 76.785156 33.28125 77.003906 33.5625 76.984375 34.1875 C 76.96875 34.621094 76.894531 35.050781 76.796875 35.472656 C 76.511719 36.742188 76.199219 38.007812 75.902344 39.273438 C 75.851562 39.492188 75.816406 39.714844 75.753906 40.0625 C 75.964844 39.921875 76.089844 39.863281 76.179688 39.773438 C 77.832031 38.089844 79.648438 36.597656 81.597656 35.273438 C 82.523438 34.644531 83.519531 34.113281 84.519531 33.609375 C 85.011719 33.359375 85.574219 33.242188 86.117188 33.109375 C 86.628906 32.984375 87.136719 33.089844 87.628906 33.246094 C 87.949219 33.347656 88.214844 33.546875 88.40625 33.835938 C 88.785156 34.398438 89.027344 35 89.039062 35.691406 C 89.058594 36.699219 88.875 37.679688 88.601562 38.636719 C 87.925781 41.015625 87.210938 43.382812 86.511719 45.757812 C 86.058594 47.296875 85.589844 48.835938 85.167969 50.386719 C 84.9375 51.21875 84.75 52.070312 84.617188 52.925781 C 84.550781 53.34375 84.59375 53.792969 84.679688 54.207031 C 84.765625 54.621094 85.007812 54.761719 85.421875 54.671875 C 85.738281 54.601562 86.070312 54.480469 86.328125 54.292969 C 87.511719 53.433594 88.582031 52.449219 89.441406 51.253906 C 90.132812 50.292969 90.625 49.25 90.992188 48.113281 C 92.226562 44.304688 94.152344 40.875 96.796875 37.855469 C 98.09375 36.382812 99.621094 35.203125 101.335938 34.25 C 102.636719 33.527344 104.019531 33.148438 105.515625 33.199219 C 106.023438 33.214844 106.527344 33.238281 107.089844 33.257812 C 107.140625 33.113281 107.214844 32.953125 107.25 32.789062 C 108.394531 27.730469 109.828125 22.761719 111.882812 17.988281 C 112.296875 17.027344 112.769531 16.089844 113.25 15.164062 C 113.800781 14.101562 114.566406 13.222656 115.609375 12.609375 C 116.222656 12.25 116.871094 12.039062 117.582031 12.109375 C 118.648438 12.21875 119.554688 13.09375 119.832031 14.234375 C 120.210938 15.789062 119.699219 16.9375 118.265625 17.667969 C 117.859375 17.875 117.421875 18.042969 116.980469 18.152344 C 116.433594 18.289062 116.113281 18.617188 115.867188 19.105469 C 114.273438 22.265625 113.109375 25.578125 112.3125 29.023438 C 111.503906 32.527344 110.683594 36.03125 109.867188 39.535156 C 109.074219 42.9375 108.28125 46.34375 107.496094 49.746094 C 107.316406 50.519531 107.136719 51.289062 107.011719 52.070312 C 106.9375 52.546875 106.949219 53.035156 106.941406 53.519531 C 106.9375 53.78125 107.011719 54.023438 107.253906 54.203125 C 107.800781 54.324219 108.316406 54.136719 108.78125 53.875 C 110.902344 52.671875 112.886719 51.289062 114.4375 49.363281 C 115.414062 48.148438 116.082031 46.804688 116.46875 45.285156 C 117.414062 41.554688 118.398438 37.828125 119.378906 34.105469 C 119.503906 33.636719 119.648438 33.171875 119.832031 32.726562 C 120.117188 32.035156 120.53125 31.792969 121.265625 31.820312 C 121.820312 31.835938 122.320312 32.015625 122.757812 32.351562 C 123.71875 33.101562 124.460938 34.035156 125.03125 35.109375 C 125.078125 35.199219 125.125 35.292969 125.152344 35.390625 C 125.269531 35.773438 125.316406 36.148438 125.011719 36.472656 C 124.691406 36.804688 124.300781 36.855469 123.882812 36.714844 C 123.621094 36.625 123.375 36.503906 123.070312 36.378906 C 122.984375 36.644531 122.894531 36.878906 122.832031 37.121094 C 121.660156 41.558594 120.476562 45.996094 119.328125 50.441406 C 119.097656 51.328125 118.976562 52.242188 118.851562 53.152344 C 118.804688 53.472656 118.847656 53.816406 118.917969 54.136719 C 118.992188 54.507812 119.261719 54.65625 119.605469 54.496094 C 119.996094 54.316406 120.375 54.089844 120.714844 53.824219 C 121.734375 53.039062 122.570312 52.074219 123.304688 51.019531 C 123.890625 50.179688 124.328125 49.273438 124.621094 48.277344 C 125.601562 44.945312 127.308594 42.003906 129.582031 39.386719 C 130.984375 37.773438 132.582031 36.40625 134.414062 35.289062 C 136.144531 34.234375 138.019531 33.75 140.011719 33.671875 C 141.03125 33.632812 142.054688 33.664062 143.082031 33.664062 C 143.132812 33.609375 143.195312 33.5625 143.234375 33.5 C 143.894531 32.453125 143.582031 32.761719 144.773438 32.457031 C 145.042969 32.386719 145.324219 32.351562 145.597656 32.300781 C 145.617188 32.296875 145.644531 32.316406 145.730469 32.347656 C 145.710938 32.46875 145.699219 32.605469 145.660156 32.734375 C 144.753906 35.871094 143.824219 39 142.941406 42.144531 C 142.121094 45.070312 141.476562 48.035156 140.910156 51.019531 C 140.78125 51.695312 140.683594 52.382812 140.65625 53.070312 C 140.613281 54.15625 141.015625 54.40625 142.019531 53.960938 C 142.367188 53.808594 142.691406 53.59375 143 53.371094 C 144.53125 52.277344 145.824219 50.933594 146.964844 49.449219 C 147.539062 48.695312 148.195312 47.980469 148.609375 47.144531 C 149.007812 46.335938 149.171875 45.40625 149.382812 44.515625 C 149.910156 42.308594 150.40625 40.09375 150.902344 37.875 C 150.96875 37.582031 150.996094 37.269531 150.984375 36.96875 C 150.96875 36.632812 150.726562 36.460938 150.398438 36.539062 C 150.15625 36.601562 149.921875 36.714844 149.703125 36.835938 C 148.785156 37.355469 147.984375 38.03125 147.214844 38.746094 C 146.800781 39.125 146.390625 39.507812 145.953125 39.914062 C 145.542969 39.640625 145.257812 39.292969 144.921875 38.910156 C 145.101562 38.710938 145.261719 38.515625 145.4375 38.339844 C 146.835938 36.949219 148.367188 35.710938 150.019531 34.636719 C 151.164062 33.898438 152.375 33.292969 153.753906 33.136719 C 154.148438 33.089844 154.570312 33.121094 154.964844 33.195312 C 155.492188 33.296875 155.691406 33.566406 155.707031 34.109375 C 155.714844 34.386719 155.683594 34.671875 155.621094 34.941406 C 155.289062 36.359375 154.9375 37.769531 154.597656 39.183594 C 154.539062 39.425781 154.496094 39.671875 154.4375 39.964844 C 154.730469 39.988281 154.832031 39.792969 154.957031 39.667969 C 156.710938 37.941406 158.609375 36.394531 160.648438 35.023438 C 161.585938 34.394531 162.5625 33.835938 163.613281 33.433594 C 164.410156 33.128906 165.21875 32.9375 166.082031 33.1875 C 166.550781 33.324219 166.898438 33.578125 167.160156 33.984375 C 167.738281 34.878906 167.8125 35.863281 167.621094 36.863281 C 167.40625 37.960938 167.152344 39.058594 166.839844 40.136719 C 165.945312 43.246094 164.996094 46.34375 164.09375 49.457031 C 163.796875 50.484375 163.550781 51.53125 163.328125 52.574219 C 163.238281 52.992188 163.226562 53.441406 163.257812 53.871094 C 163.308594 54.597656 163.734375 54.855469 164.417969 54.601562 C 164.679688 54.507812 164.929688 54.359375 165.152344 54.191406 C 166.644531 53.082031 167.925781 51.777344 168.832031 50.140625 C 169.054688 49.746094 169.214844 49.304688 169.34375 48.867188 C 170.542969 44.761719 172.675781 41.210938 175.667969 38.167969 C 176.914062 36.902344 178.320312 35.855469 179.878906 34.996094 C 181.035156 34.359375 182.269531 33.964844 183.574219 33.832031 C 184.5625 33.730469 185.5625 33.703125 186.554688 33.664062 C 187.039062 33.640625 187.523438 33.660156 187.996094 33.660156 C 188.046875 33.613281 188.097656 33.585938 188.117188 33.542969 C 188.40625 32.867188 188.9375 32.546875 189.652344 32.46875 C 189.972656 32.433594 190.289062 32.351562 190.703125 32.269531 C 190.65625 32.484375 190.640625 32.621094 190.601562 32.753906 C 189.40625 36.65625 188.226562 40.5625 187.277344 44.53125 C 186.679688 47.011719 186.191406 49.519531 185.6875 52.019531 C 185.582031 52.535156 185.570312 53.089844 185.609375 53.617188 C 185.644531 54.160156 185.859375 54.296875 186.378906 54.125 C 186.832031 53.976562 187.300781 53.796875 187.6875 53.523438 C 188.667969 52.832031 189.605469 52.082031 190.558594 51.351562 C 190.71875 51.230469 190.867188 51.097656 191.046875 50.953125 C 191.417969 51.324219 191.601562 51.761719 191.824219 52.257812 C 191.21875 52.839844 190.632812 53.4375 190.007812 53.996094 C 188.484375 55.367188 186.890625 56.636719 184.980469 57.453125 C 184.175781 57.796875 183.363281 58.089844 182.480469 58.097656 C 182.25 58.101562 182.015625 58.101562 181.792969 58.058594 C 181.023438 57.914062 180.597656 57.355469 180.6875 56.578125 C 180.734375 56.199219 180.839844 55.828125 180.941406 55.460938 C 181.210938 54.503906 181.492188 53.546875 181.765625 52.59375 C 181.792969 52.5 181.789062 52.398438 181.816406 52.140625 C 181.519531 52.449219 181.316406 52.660156 181.121094 52.871094 C 180.035156 54.035156 178.851562 55.085938 177.5625 56.011719 C 176.308594 56.910156 174.976562 57.671875 173.441406 57.964844 C 172.902344 58.066406 172.3125 58.082031 171.769531 57.988281 C 170.609375 57.78125 169.769531 57.09375 169.375 55.964844 C 169.160156 55.34375 169.042969 54.683594 168.910156 54.035156 C 168.835938 53.664062 168.820312 53.277344 168.773438 52.859375 C 168.484375 52.957031 168.363281 53.1875 168.210938 53.371094 C 167.304688 54.417969 166.347656 55.410156 165.25 56.257812 C 164.234375 57.042969 163.144531 57.699219 161.863281 57.964844 C 160.386719 58.269531 159.378906 57.566406 159.085938 56.078125 C 158.855469 54.921875 158.992188 53.785156 159.175781 52.648438 C 159.554688 50.277344 160.308594 47.992188 160.957031 45.6875 C 161.597656 43.429688 162.226562 41.167969 162.847656 38.90625 C 162.933594 38.589844 162.988281 38.253906 163.003906 37.925781 C 163.027344 37.347656 162.765625 37.085938 162.195312 37.03125 C 161.613281 36.980469 161.074219 37.136719 160.570312 37.394531 C 160.160156 37.605469 159.769531 37.847656 159.386719 38.101562 C 157.851562 39.128906 156.453125 40.320312 155.253906 41.734375 C 154.363281 42.785156 153.753906 43.980469 153.429688 45.316406 C 152.632812 48.640625 151.835938 51.964844 151.046875 55.292969 C 150.894531 55.933594 150.769531 56.582031 150.625 57.25 C 149.175781 57.25 147.753906 57.25 146.246094 57.25 C 146.4375 56.574219 146.636719 55.929688 146.804688 55.28125 C 146.984375 54.589844 147.15625 53.894531 147.304688 53.195312 C 147.441406 52.535156 147.742188 51.910156 147.746094 51.160156 C 147.640625 51.246094 147.570312 51.28125 147.527344 51.335938 C 146.335938 52.851562 144.925781 54.144531 143.433594 55.355469 C 141.972656 56.542969 140.359375 57.464844 138.519531 57.921875 C 138.03125 58.042969 137.507812 58.066406 137.003906 58.050781 C 136.140625 58.027344 135.625 57.429688 135.742188 56.582031 C 135.828125 55.953125 136.007812 55.339844 136.175781 54.726562 C 136.398438 53.917969 136.65625 53.121094 136.804688 52.261719 C 136.691406 52.367188 136.566406 52.46875 136.460938 52.585938 C 135.109375 54.0625 133.578125 55.335938 131.917969 56.453125 C 130.878906 57.15625 129.761719 57.710938 128.515625 57.96875 C 127.929688 58.089844 127.347656 58.109375 126.769531 57.964844 C 125.480469 57.644531 124.707031 56.753906 124.316406 55.554688 C 124.070312 54.808594 123.996094 54.011719 123.835938 53.199219 C 123.769531 53.25 123.652344 53.320312 123.554688 53.410156 C 122.65625 54.28125 121.78125 55.175781 120.855469 56.019531 C 120.097656 56.710938 119.226562 57.246094 118.269531 57.636719 C 117.699219 57.875 117.113281 58.035156 116.488281 58.03125 C 115.335938 58.023438 114.679688 57.5 114.417969 56.382812 C 114.253906 55.703125 114.273438 55.011719 114.371094 54.328125 C 114.46875 53.671875 114.621094 53.023438 114.742188 52.371094 C 114.777344 52.175781 114.796875 51.976562 114.835938 51.683594 C 114.644531 51.824219 114.519531 51.902344 114.421875 51.996094 C 113.421875 52.957031 112.335938 53.800781 111.179688 54.5625 C 109.773438 55.488281 108.398438 56.472656 106.863281 57.1875 C 106.21875 57.488281 105.550781 57.753906 104.867188 57.941406 C 104.410156 58.070312 103.90625 58.089844 103.425781 58.058594 C 102.539062 58.007812 102.039062 57.382812 102.148438 56.507812 C 102.199219 56.082031 102.324219 55.660156 102.433594 55.242188 C 102.675781 54.304688 102.929688 53.371094 103.179688 52.4375 C 103.191406 52.351562 103.207031 52.265625 103.222656 52.179688 C 103.179688 52.234375 103.128906 52.289062 103.082031 52.34375 Z M 106.382812 36.671875 C 105.464844 36.34375 104.566406 36.175781 103.648438 36.144531 C 102.488281 36.109375 101.425781 36.425781 100.460938 37.0625 C 99.816406 37.488281 99.21875 37.976562 98.792969 38.628906 C 98.277344 39.414062 97.753906 40.207031 97.320312 41.039062 C 96.300781 43.019531 95.558594 45.109375 95.023438 47.273438 C 94.742188 48.417969 94.53125 49.574219 94.5625 50.757812 C 94.582031 51.667969 94.800781 52.523438 95.382812 53.257812 C 95.824219 53.816406 96.398438 54.085938 97.113281 54.074219 C 97.691406 54.0625 98.21875 53.867188 98.714844 53.597656 C 100.339844 52.722656 101.691406 51.542969 102.664062 49.953125 C 103.277344 48.945312 103.746094 47.871094 104.050781 46.730469 C 104.8125 43.921875 105.457031 41.089844 106.042969 38.238281 C 106.148438 37.722656 106.265625 37.203125 106.382812 36.671875 Z M 140.238281 37.125 C 139.234375 36.945312 138.285156 36.839844 137.3125 36.867188 C 135.917969 36.90625 134.660156 37.328125 133.535156 38.152344 C 132.53125 38.886719 131.738281 39.8125 131.089844 40.863281 C 130.28125 42.175781 129.664062 43.570312 129.183594 45.027344 C 128.632812 46.710938 128.292969 48.433594 128.214844 50.203125 C 128.179688 51.078125 128.269531 51.9375 128.609375 52.753906 C 129.03125 53.765625 129.828125 54.253906 130.925781 54.089844 C 131.417969 54.015625 131.910156 53.839844 132.371094 53.636719 C 133.121094 53.304688 133.789062 52.832031 134.40625 52.289062 C 135.902344 50.964844 136.898438 49.3125 137.453125 47.417969 C 138.230469 44.777344 138.917969 42.113281 139.640625 39.457031 C 139.847656 38.703125 140.03125 37.9375 140.238281 37.125 Z M 185.203125 37.1875 C 184.117188 36.882812 183.105469 36.820312 182.085938 36.867188 C 180.464844 36.941406 179.066406 37.542969 177.890625 38.660156 C 176.996094 39.511719 176.253906 40.480469 175.671875 41.570312 C 175.097656 42.652344 174.589844 43.765625 174.210938 44.929688 C 173.667969 46.582031 173.246094 48.257812 173.132812 50.003906 C 173.078125 50.878906 173.15625 51.734375 173.484375 52.558594 C 174.007812 53.855469 175.039062 54.390625 176.375 53.992188 C 176.90625 53.835938 177.421875 53.59375 177.898438 53.308594 C 180.300781 51.875 181.78125 49.71875 182.535156 47.078125 C 183.464844 43.824219 184.300781 40.539062 185.203125 37.1875 Z M 154.425781 40.214844 C 154.4375 40.199219 154.460938 40.183594 154.460938 40.167969 C 154.460938 40.152344 154.441406 40.136719 154.429688 40.121094 C 154.414062 40.136719 154.394531 40.152344 154.390625 40.167969 C 154.390625 40.179688 154.414062 40.199219 154.425781 40.214844 Z M 75.75 40.125 L 75.722656 40.179688 L 75.765625 40.183594 Z M 75.75 40.125 " fill-opacity="1" fill-rule="nonzero"/></g><g clip-path="url(#b704ce2016)"><path fill="#ffffff" d="M 7.5625 69.238281 C 7 68.738281 6.449219 68.730469 5.847656 68.902344 C 5.59375 68.976562 5.289062 68.933594 5.019531 68.878906 C 4.6875 68.808594 4.472656 68.910156 4.324219 69.191406 C 4.191406 69.441406 4.074219 69.695312 3.925781 69.933594 C 3.835938 70.082031 3.726562 70.238281 3.582031 70.328125 C 3.28125 70.519531 2.953125 70.34375 2.921875 69.988281 C 2.90625 69.835938 2.929688 69.679688 2.945312 69.53125 C 2.996094 68.972656 3.085938 68.410156 3.097656 67.851562 C 3.109375 67.285156 3.257812 66.785156 3.65625 66.390625 C 4.09375 65.957031 4.128906 65.476562 3.972656 64.914062 C 3.785156 64.246094 3.984375 63.855469 4.601562 63.550781 C 4.738281 63.484375 4.878906 63.421875 5.023438 63.367188 C 5.605469 63.128906 6.007812 62.757812 6.078125 62.082031 C 6.117188 61.714844 6.316406 61.417969 6.65625 61.230469 C 7.152344 60.957031 7.445312 60.511719 7.648438 60.003906 C 7.980469 59.195312 8.390625 58.445312 9.042969 57.835938 C 9.492188 57.414062 9.746094 56.894531 9.40625 56.253906 C 9.328125 56.109375 9.320312 55.894531 9.355469 55.734375 C 9.488281 55.171875 9.3125 54.675781 9.097656 54.179688 C 8.847656 53.59375 8.605469 53.003906 8.359375 52.414062 C 8.09375 51.777344 8.132812 51.171875 8.523438 50.59375 C 8.878906 50.070312 9.019531 49.472656 9.058594 48.859375 C 9.085938 48.40625 9.214844 48 9.453125 47.636719 C 9.902344 46.949219 10.039062 46.195312 10.054688 45.382812 C 10.101562 43.390625 10.214844 41.402344 10.285156 39.410156 C 10.320312 38.441406 10.308594 37.46875 10.347656 36.496094 C 10.429688 34.226562 10.53125 31.957031 10.621094 29.683594 C 10.664062 28.640625 10.628906 27.59375 10.5625 26.546875 C 10.472656 25.125 10.460938 23.695312 10.582031 22.265625 C 10.773438 20 10.886719 17.730469 11.035156 15.460938 C 11.058594 15.066406 11.082031 14.667969 11.109375 14.183594 C 11.429688 14.304688 11.664062 14.386719 11.890625 14.480469 C 13.464844 15.125 15.0625 15.15625 16.6875 14.675781 C 17.410156 14.460938 18.050781 14.09375 18.636719 13.640625 C 18.914062 13.425781 19.179688 13.3125 19.535156 13.304688 C 20.554688 13.277344 21.574219 13.191406 22.597656 13.171875 C 23.414062 13.15625 24.234375 13.160156 25.042969 13.234375 C 26.375 13.363281 27.695312 13.269531 29.023438 13.203125 C 30.296875 13.140625 31.574219 13.113281 32.851562 13.117188 C 34.304688 13.121094 35.757812 13.171875 37.210938 13.207031 C 38.792969 13.25 40.375 13.296875 41.957031 13.34375 C 42.082031 13.351562 42.203125 13.394531 42.390625 13.429688 C 42.40625 13.734375 42.445312 14.035156 42.433594 14.335938 C 42.382812 16.019531 42.316406 17.703125 42.253906 19.386719 C 42.25 19.515625 42.226562 19.648438 42.246094 19.769531 C 42.441406 20.808594 42.378906 21.859375 42.34375 22.902344 C 42.320312 23.667969 42.261719 24.429688 42.179688 25.191406 C 42.046875 26.441406 42.035156 27.6875 42.058594 28.941406 C 42.085938 30.269531 42.027344 31.597656 42 32.925781 C 41.964844 34.710938 41.925781 36.5 41.878906 38.285156 C 41.832031 40.226562 41.78125 42.167969 41.726562 44.105469 C 41.683594 45.613281 41.617188 47.121094 41.78125 48.625 C 41.792969 48.75 41.800781 48.878906 41.808594 49.007812 C 41.835938 49.429688 41.699219 49.773438 41.289062 49.9375 C 40.832031 50.117188 40.644531 50.484375 40.542969 50.925781 C 40.519531 51.027344 40.5 51.128906 40.460938 51.222656 C 40.183594 51.867188 40.179688 52.472656 40.527344 53.121094 C 40.808594 53.636719 40.886719 54.234375 40.847656 54.832031 C 40.824219 55.210938 40.640625 55.492188 40.285156 55.566406 C 38.980469 55.828125 37.859375 56.484375 36.757812 57.183594 C 36.71875 57.207031 36.664062 57.21875 36.539062 57.261719 C 36.40625 57.136719 36.226562 57.003906 36.089844 56.835938 C 35.703125 56.367188 35.597656 56.335938 35.078125 56.660156 C 34.292969 57.144531 33.648438 57.792969 33.390625 58.675781 C 33.097656 59.6875 32.574219 60.457031 31.691406 61.027344 C 31.359375 61.246094 31.097656 61.585938 30.839844 61.902344 C 30.492188 62.324219 30.09375 62.671875 29.605469 62.910156 C 29.46875 62.976562 29.339844 63.066406 29.203125 63.132812 C 28.457031 63.496094 27.980469 64.109375 27.863281 64.894531 C 27.722656 65.851562 27.164062 66.300781 26.316406 66.558594 C 25.515625 66.796875 25.128906 66.671875 24.726562 65.953125 C 24.539062 65.617188 24.390625 65.265625 24.207031 64.925781 C 24.085938 64.703125 23.96875 64.46875 23.800781 64.28125 C 23.363281 63.800781 22.992188 63.855469 22.617188 64.203125 C 22.226562 64.566406 21.78125 64.867188 21.390625 65.234375 C 21.195312 65.417969 21.03125 65.660156 20.921875 65.910156 C 20.761719 66.285156 20.671875 66.683594 20.539062 67.070312 C 20.238281 67.957031 19.789062 68.234375 18.863281 68.132812 C 18.660156 68.109375 18.457031 68.117188 18.253906 68.105469 C 17.925781 68.09375 17.59375 68.101562 17.269531 68.050781 C 16.476562 67.925781 15.75 67.984375 15.144531 68.601562 C 14.949219 68.796875 14.703125 68.945312 14.46875 69.105469 C 13.964844 69.453125 13.429688 69.648438 12.808594 69.453125 C 12.738281 69.429688 12.65625 69.414062 12.582031 69.421875 C 12.136719 69.453125 11.78125 69.28125 11.519531 68.929688 C 11.207031 68.507812 10.785156 68.414062 10.300781 68.488281 C 9.808594 68.566406 9.355469 68.515625 8.902344 68.253906 C 8.46875 68.003906 8.230469 68.121094 7.972656 68.5625 C 7.859375 68.753906 7.742188 68.945312 7.5625 69.238281 Z M 29.585938 18.722656 C 28.359375 19.332031 27.441406 20.269531 26.765625 21.445312 C 26.257812 22.324219 25.882812 23.25 25.902344 24.457031 C 25.511719 23.847656 25.355469 23.34375 25.207031 22.835938 C 24.9375 21.894531 24.859375 20.929688 24.855469 19.957031 C 24.855469 19.773438 24.914062 19.558594 24.722656 19.390625 C 24.640625 19.457031 24.570312 19.492188 24.527344 19.546875 C 23.464844 20.957031 22.46875 22.40625 21.691406 24 C 21.289062 24.828125 21 25.699219 20.847656 26.613281 C 20.613281 27.988281 21.039062 28.882812 22.304688 29.480469 C 23.0625 29.839844 23.851562 30.152344 24.644531 30.429688 C 27.605469 31.46875 30.636719 32.292969 33.65625 33.140625 C 33.828125 33.191406 34.007812 33.214844 34.183594 33.25 C 34.660156 33.351562 35.089844 33.234375 35.492188 32.972656 C 36.015625 32.628906 36.457031 32.199219 36.742188 31.644531 C 37.246094 30.671875 37.738281 29.691406 38.199219 28.695312 C 38.378906 28.308594 38.460938 27.882812 38.597656 27.441406 C 38.4375 27.402344 38.34375 27.382812 38.25 27.359375 C 37.710938 27.226562 37.671875 27.195312 37.605469 26.664062 C 37.554688 26.285156 37.539062 25.902344 37.496094 25.519531 C 37.398438 24.609375 37.292969 23.703125 37.183594 22.738281 C 37.03125 22.804688 36.898438 22.828125 36.816406 22.902344 C 36.578125 23.132812 36.320312 23.355469 36.136719 23.625 C 35.683594 24.304688 35.269531 25.007812 34.832031 25.699219 C 34.632812 26.019531 34.417969 26.328125 34.210938 26.640625 C 34.164062 26.378906 34.207031 26.164062 34.261719 25.949219 C 34.585938 24.683594 34.648438 23.429688 34.089844 22.203125 C 33.832031 21.640625 33.914062 21.09375 34.257812 20.601562 C 34.460938 20.3125 34.703125 20.039062 34.96875 19.808594 C 35.453125 19.390625 35.972656 19.015625 36.472656 18.617188 C 36.617188 18.5 36.742188 18.351562 36.964844 18.125 C 36.648438 18.078125 36.457031 18.027344 36.269531 18.027344 C 33.957031 18.066406 31.789062 18.671875 29.640625 19.785156 C 29.683594 19.398438 29.714844 19.132812 29.75 18.863281 C 29.753906 18.796875 29.761719 18.734375 29.769531 18.671875 C 29.707031 18.6875 29.644531 18.703125 29.585938 18.722656 Z M 32.828125 36.210938 C 32.546875 36.109375 32.335938 36.027344 32.121094 35.960938 C 30.933594 35.578125 29.742188 35.199219 28.550781 34.820312 C 26.339844 34.113281 24.128906 33.410156 21.917969 32.707031 C 21.683594 32.632812 21.457031 32.496094 21.167969 32.625 C 21.726562 36.195312 21.988281 39.738281 21.207031 43.3125 C 21.84375 43.628906 22.519531 43.765625 23.167969 43.976562 C 23.796875 44.183594 24.425781 44.394531 25.0625 44.585938 C 25.710938 44.785156 26.335938 45.0625 27.027344 45.179688 C 27.097656 45.023438 27.167969 44.910156 27.195312 44.792969 C 27.503906 43.644531 28.058594 42.613281 28.722656 41.636719 C 29.941406 39.84375 31.171875 38.054688 32.679688 36.484375 C 32.730469 36.433594 32.75 36.355469 32.828125 36.210938 Z M 20.492188 46.25 C 20.414062 46.476562 20.320312 46.707031 20.257812 46.949219 C 19.695312 49.199219 19.097656 51.445312 18.585938 53.710938 C 18.0625 56.023438 17.59375 58.351562 17.167969 60.683594 C 16.921875 62.011719 16.789062 63.363281 16.628906 64.707031 C 16.578125 65.132812 16.585938 65.574219 16.609375 66.007812 C 16.621094 66.257812 16.691406 66.511719 16.785156 66.746094 C 16.898438 67.035156 17.152344 67.089844 17.40625 66.898438 C 17.546875 66.789062 17.679688 66.660156 17.78125 66.519531 C 18.019531 66.1875 18.253906 65.851562 18.460938 65.503906 C 19.859375 63.148438 21.023438 60.679688 22.019531 58.132812 C 23.246094 54.996094 24.421875 51.839844 25.613281 48.691406 C 25.699219 48.460938 25.753906 48.21875 25.816406 48 C 25.273438 47.667969 21.546875 46.449219 20.492188 46.25 Z M 19.574219 31.347656 C 24.785156 32.996094 29.925781 34.625 35.144531 36.277344 C 35.300781 35.71875 35.445312 35.191406 35.601562 34.632812 C 35.382812 34.550781 35.222656 34.480469 35.058594 34.429688 C 33.1875 33.839844 31.3125 33.257812 29.441406 32.671875 C 26.546875 31.761719 23.652344 30.855469 20.757812 29.949219 C 20.496094 29.867188 20.238281 29.730469 19.941406 29.835938 C 19.667969 30.285156 19.636719 30.789062 19.574219 31.347656 Z M 27.46875 46.035156 C 26.457031 45.601562 20.640625 43.824219 20.058594 43.785156 C 19.925781 44.191406 19.78125 44.617188 19.632812 45.058594 C 19.785156 45.152344 19.878906 45.246094 19.992188 45.28125 C 22.34375 46.023438 24.695312 46.757812 27.027344 47.488281 C 27.382812 46.960938 27.476562 46.640625 27.46875 46.035156 Z M 27.46875 46.035156 " fill-opacity="1" fill-rule="nonzero"/></g><path fill="#ffffff" d="M 45.472656 57.75 C 45.632812 57.046875 45.769531 56.429688 45.910156 55.792969 C 46.707031 55.632812 47.484375 55.507812 48.246094 55.316406 C 49.160156 55.085938 50.058594 54.796875 50.964844 54.535156 C 52.15625 54.1875 52.933594 53.390625 53.40625 52.277344 C 53.554688 51.925781 53.679688 51.558594 53.777344 51.191406 C 55.011719 46.691406 56.265625 42.199219 57.460938 37.6875 C 58.316406 34.457031 59.105469 31.210938 59.902344 27.964844 C 60.757812 24.472656 61.589844 20.976562 62.433594 17.480469 C 62.445312 17.433594 62.433594 17.378906 62.433594 17.300781 C 61.433594 17.171875 60.449219 17.359375 59.46875 17.453125 C 58.484375 17.550781 57.511719 17.730469 56.4375 17.886719 C 56.652344 17.195312 56.820312 16.585938 57.039062 16 C 57.085938 15.875 57.304688 15.761719 57.460938 15.738281 C 58.492188 15.566406 59.523438 15.339844 60.5625 15.28125 C 63.367188 15.132812 66.179688 15.085938 68.984375 14.941406 C 70.769531 14.851562 72.550781 14.660156 74.332031 14.519531 C 74.601562 14.5 74.878906 14.382812 75.191406 14.539062 C 75.039062 15.128906 74.890625 15.714844 74.726562 16.359375 C 74.421875 16.40625 74.125 16.453125 73.828125 16.488281 C 72.714844 16.613281 71.589844 16.703125 70.519531 17.070312 C 70.328125 17.136719 70.128906 17.191406 69.941406 17.273438 C 68.859375 17.738281 68.050781 18.472656 67.6875 19.625 C 67.257812 21.011719 66.796875 22.394531 66.410156 23.792969 C 65.546875 26.914062 64.683594 30.035156 63.886719 33.175781 C 62.820312 37.378906 61.816406 41.597656 60.789062 45.808594 C 60.039062 48.882812 59.289062 51.953125 58.523438 55.09375 C 60.542969 55.648438 62.628906 55.714844 64.746094 55.839844 C 64.726562 56.46875 64.472656 56.992188 64.320312 57.585938 C 63.261719 57.671875 62.21875 57.640625 61.179688 57.53125 C 57.875 57.175781 54.558594 56.972656 51.234375 57.167969 C 49.605469 57.265625 47.984375 57.496094 46.359375 57.667969 C 46.085938 57.695312 45.8125 57.71875 45.472656 57.75 Z M 45.472656 57.75 " fill-opacity="1" fill-rule="nonzero"/><path fill="#000000" d="M 127.675781 31.261719 C 127.257812 30.960938 127.035156 30.617188 126.792969 30.300781 C 126.082031 29.363281 125.394531 28.414062 124.6875 27.476562 C 124.3125 26.972656 124.261719 26.953125 123.660156 27.144531 C 122.371094 27.554688 121.085938 27.984375 119.800781 28.402344 C 119.566406 28.476562 119.328125 28.535156 118.917969 28.648438 C 120.003906 26.953125 121.113281 25.5 122.222656 24.019531 C 122.121094 23.839844 122.050781 23.675781 121.949219 23.539062 C 121.09375 22.363281 120.230469 21.191406 119.375 20.011719 C 119.261719 19.855469 119.183594 19.671875 119.015625 19.375 C 119.363281 19.453125 119.582031 19.488281 119.792969 19.554688 C 120.992188 19.914062 122.1875 20.28125 123.382812 20.644531 C 123.53125 20.691406 123.679688 20.734375 123.824219 20.785156 C 124.1875 20.925781 124.457031 20.824219 124.679688 20.507812 C 125.113281 19.875 125.566406 19.257812 126.007812 18.632812 C 126.390625 18.089844 126.765625 17.539062 127.15625 17 C 127.269531 16.839844 127.425781 16.707031 127.5625 16.558594 C 127.835938 16.785156 127.742188 17.054688 127.746094 17.296875 C 127.746094 18.597656 127.738281 19.902344 127.734375 21.207031 C 127.734375 21.382812 127.703125 21.578125 127.753906 21.738281 C 127.804688 21.886719 127.921875 22.046875 128.058594 22.128906 C 128.226562 22.234375 128.445312 22.261719 128.636719 22.324219 C 129.875 22.726562 131.117188 23.128906 132.351562 23.539062 C 132.511719 23.59375 132.664062 23.683594 132.890625 23.792969 C 132.355469 24.195312 131.761719 24.269531 131.234375 24.480469 C 130.664062 24.707031 130.082031 24.902344 129.503906 25.105469 C 128.953125 25.300781 128.398438 25.492188 127.789062 25.699219 C 127.777344 26 127.753906 26.273438 127.753906 26.550781 C 127.75 27.902344 127.757812 29.257812 127.753906 30.613281 C 127.75 30.800781 127.710938 30.992188 127.675781 31.261719 Z M 127.675781 31.261719 " fill-opacity="1" fill-rule="nonzero"/><path fill="#fefefe" d="M 103.082031 52.34375 C 103.128906 52.289062 103.179688 52.234375 103.226562 52.179688 C 103.210938 52.265625 103.199219 52.351562 103.183594 52.4375 C 103.148438 52.40625 103.117188 52.375 103.082031 52.34375 Z M 103.082031 52.34375 " fill-opacity="1" fill-rule="nonzero"/><path fill="#fefefe" d="M 154.425781 40.214844 C 154.414062 40.199219 154.390625 40.179688 154.390625 40.167969 C 154.390625 40.152344 154.414062 40.136719 154.429688 40.121094 C 154.441406 40.136719 154.460938 40.152344 154.460938 40.167969 C 154.460938 40.183594 154.4375 40.199219 154.425781 40.214844 Z M 154.425781 40.214844 " fill-opacity="1" fill-rule="nonzero"/><path fill="#fefefe" d="M 75.75 40.125 L 75.765625 40.183594 L 75.722656 40.179688 Z M 75.75 40.125 " fill-opacity="1" fill-rule="nonzero"/><path fill="#000000" d="M 29.746094 18.863281 C 29.714844 19.132812 29.683594 19.402344 29.636719 19.789062 C 31.785156 18.671875 33.957031 18.066406 36.265625 18.03125 C 36.457031 18.027344 36.648438 18.082031 36.964844 18.125 C 36.738281 18.351562 36.617188 18.5 36.46875 18.617188 C 35.972656 19.019531 35.453125 19.390625 34.96875 19.808594 C 34.699219 20.039062 34.460938 20.3125 34.257812 20.601562 C 33.914062 21.09375 33.832031 21.644531 34.085938 22.203125 C 34.648438 23.429688 34.582031 24.683594 34.261719 25.949219 C 34.207031 26.164062 34.160156 26.382812 34.207031 26.640625 C 34.417969 26.328125 34.632812 26.019531 34.832031 25.699219 C 35.269531 25.007812 35.679688 24.304688 36.136719 23.628906 C 36.316406 23.355469 36.574219 23.132812 36.816406 22.90625 C 36.894531 22.828125 37.027344 22.804688 37.183594 22.742188 C 37.289062 23.703125 37.394531 24.613281 37.496094 25.519531 C 37.535156 25.902344 37.550781 26.285156 37.601562 26.664062 C 37.671875 27.195312 37.710938 27.226562 38.246094 27.359375 C 38.339844 27.382812 38.4375 27.402344 38.59375 27.441406 C 38.457031 27.882812 38.375 28.3125 38.195312 28.695312 C 37.734375 29.691406 37.246094 30.671875 36.742188 31.648438 C 36.453125 32.203125 36.015625 32.628906 35.492188 32.972656 C 35.089844 33.234375 34.660156 33.351562 34.179688 33.25 C 34.003906 33.214844 33.828125 33.191406 33.65625 33.144531 C 30.632812 32.292969 27.605469 31.46875 24.640625 30.433594 C 23.847656 30.15625 23.0625 29.84375 22.300781 29.480469 C 21.039062 28.882812 20.613281 27.988281 20.84375 26.613281 C 21 25.699219 21.285156 24.828125 21.691406 24 C 22.46875 22.40625 23.464844 20.957031 24.527344 19.546875 C 24.570312 19.492188 24.640625 19.457031 24.722656 19.390625 C 24.914062 19.558594 24.855469 19.773438 24.855469 19.957031 C 24.855469 20.929688 24.9375 21.894531 25.207031 22.835938 C 25.351562 23.34375 25.511719 23.847656 25.898438 24.457031 C 25.882812 23.253906 26.257812 22.324219 26.765625 21.445312 C 27.441406 20.269531 28.359375 19.332031 29.582031 18.722656 C 29.640625 18.769531 29.691406 18.816406 29.746094 18.863281 Z M 29.746094 18.863281 " fill-opacity="1" fill-rule="nonzero"/><path fill="#000000" d="M 32.828125 36.210938 C 32.75 36.355469 32.730469 36.433594 32.683594 36.484375 C 31.171875 38.058594 29.941406 39.84375 28.722656 41.636719 C 28.058594 42.613281 27.503906 43.644531 27.199219 44.792969 C 27.167969 44.914062 27.097656 45.023438 27.027344 45.179688 C 26.335938 45.0625 25.710938 44.785156 25.0625 44.589844 C 24.429688 44.394531 23.800781 44.183594 23.167969 43.976562 C 22.519531 43.761719 21.84375 43.628906 21.207031 43.3125 C 21.988281 39.738281 21.726562 36.195312 21.171875 32.625 C 21.460938 32.496094 21.6875 32.632812 21.917969 32.707031 C 24.128906 33.410156 26.339844 34.113281 28.550781 34.820312 C 29.742188 35.199219 30.933594 35.578125 32.121094 35.960938 C 32.335938 36.027344 32.546875 36.109375 32.828125 36.210938 Z M 32.828125 36.210938 " fill-opacity="1" fill-rule="nonzero"/><path fill="#000000" d="M 20.492188 46.25 C 21.546875 46.449219 25.273438 47.667969 25.816406 47.996094 C 25.75 48.214844 25.699219 48.460938 25.613281 48.6875 C 24.421875 51.839844 23.246094 54.996094 22.019531 58.128906 C 21.023438 60.675781 19.855469 63.144531 18.460938 65.5 C 18.253906 65.851562 18.019531 66.1875 17.78125 66.515625 C 17.675781 66.65625 17.542969 66.789062 17.402344 66.894531 C 17.152344 67.085938 16.898438 67.03125 16.78125 66.746094 C 16.691406 66.511719 16.621094 66.253906 16.609375 66.003906 C 16.585938 65.574219 16.578125 65.132812 16.628906 64.703125 C 16.789062 63.359375 16.921875 62.011719 17.164062 60.683594 C 17.59375 58.347656 18.0625 56.019531 18.585938 53.707031 C 19.097656 51.441406 19.695312 49.199219 20.257812 46.945312 C 20.320312 46.707031 20.414062 46.476562 20.492188 46.25 Z M 20.492188 46.25 " fill-opacity="1" fill-rule="nonzero"/><path fill="#000000" d="M 19.574219 31.347656 C 19.636719 30.789062 19.667969 30.285156 19.941406 29.835938 C 20.238281 29.734375 20.496094 29.867188 20.757812 29.949219 C 23.652344 30.855469 26.546875 31.761719 29.441406 32.671875 C 31.3125 33.257812 33.183594 33.839844 35.058594 34.429688 C 35.222656 34.480469 35.382812 34.550781 35.601562 34.632812 C 35.445312 35.191406 35.300781 35.71875 35.144531 36.277344 C 29.929688 34.625 24.785156 32.996094 19.574219 31.347656 Z M 19.574219 31.347656 " fill-opacity="1" fill-rule="nonzero"/><path fill="#000000" d="M 27.46875 46.035156 C 27.476562 46.640625 27.382812 46.960938 27.027344 47.488281 C 24.695312 46.757812 22.34375 46.019531 19.996094 45.28125 C 19.882812 45.242188 19.785156 45.152344 19.636719 45.058594 C 19.78125 44.617188 19.925781 44.191406 20.0625 43.785156 C 20.640625 43.824219 26.457031 45.601562 27.46875 46.035156 Z M 27.46875 46.035156 " fill-opacity="1" fill-rule="nonzero"/><path fill="#000000" d="M 29.585938 18.722656 C 29.644531 18.703125 29.707031 18.6875 29.765625 18.671875 C 29.761719 18.734375 29.753906 18.800781 29.746094 18.863281 C 29.691406 18.816406 29.640625 18.769531 29.585938 18.722656 Z M 29.585938 18.722656 " fill-opacity="1" fill-rule="nonzero"/><path fill="#ffffff" d="M 42.835938 64.953125 C 42.835938 65.546875 42.738281 66.097656 42.539062 66.601562 C 42.339844 67.101562 42.0625 67.539062 41.703125 67.90625 C 41.34375 68.273438 40.910156 68.558594 40.402344 68.765625 C 39.894531 68.972656 39.332031 69.074219 38.714844 69.074219 L 35.628906 69.074219 L 35.628906 60.835938 L 38.714844 60.835938 C 39.332031 60.835938 39.894531 60.941406 40.402344 61.148438 C 40.910156 61.355469 41.34375 61.640625 41.703125 62.007812 C 42.0625 62.371094 42.339844 62.808594 42.539062 63.308594 C 42.738281 63.8125 42.835938 64.359375 42.835938 64.953125 Z M 40.949219 64.953125 C 40.949219 64.542969 40.898438 64.175781 40.796875 63.851562 C 40.695312 63.523438 40.550781 63.246094 40.359375 63.015625 C 40.167969 62.789062 39.933594 62.613281 39.660156 62.488281 C 39.382812 62.367188 39.066406 62.308594 38.714844 62.308594 L 37.484375 62.308594 L 37.484375 67.601562 L 38.714844 67.601562 C 39.066406 67.601562 39.382812 67.542969 39.660156 67.417969 C 39.933594 67.296875 40.167969 67.121094 40.359375 66.894531 C 40.550781 66.664062 40.695312 66.386719 40.796875 66.058594 C 40.898438 65.730469 40.949219 65.363281 40.949219 64.953125 Z M 40.949219 64.953125 " fill-opacity="1" fill-rule="nonzero"/><path fill="#ffffff" d="M 45.78125 62.308594 L 45.78125 64.226562 L 48.277344 64.226562 L 48.277344 65.640625 L 45.78125 65.640625 L 45.78125 67.605469 L 49.039062 67.605469 L 49.039062 69.074219 L 43.925781 69.074219 L 43.925781 60.835938 L 49.039062 60.835938 L 49.039062 62.308594 Z M 45.78125 62.308594 " fill-opacity="1" fill-rule="nonzero"/><path fill="#ffffff" d="M 52.976562 60.835938 C 53.535156 60.835938 54.015625 60.90625 54.417969 61.042969 C 54.820312 61.179688 55.152344 61.371094 55.410156 61.613281 C 55.671875 61.851562 55.863281 62.136719 55.984375 62.464844 C 56.109375 62.792969 56.171875 63.148438 56.171875 63.527344 C 56.171875 63.941406 56.109375 64.316406 55.980469 64.660156 C 55.855469 65 55.660156 65.296875 55.398438 65.542969 C 55.136719 65.785156 54.804688 65.976562 54.402344 66.113281 C 54 66.25 53.527344 66.320312 52.976562 66.320312 L 52.019531 66.320312 L 52.019531 69.074219 L 50.175781 69.074219 L 50.175781 60.835938 Z M 52.976562 64.878906 C 53.457031 64.878906 53.800781 64.761719 54.011719 64.523438 C 54.222656 64.285156 54.328125 63.953125 54.328125 63.527344 C 54.328125 63.339844 54.300781 63.167969 54.246094 63.011719 C 54.191406 62.859375 54.109375 62.726562 54 62.617188 C 53.886719 62.503906 53.746094 62.417969 53.578125 62.359375 C 53.410156 62.296875 53.207031 62.269531 52.976562 62.269531 L 52.015625 62.269531 L 52.015625 64.878906 Z M 52.976562 64.878906 " fill-opacity="1" fill-rule="nonzero"/><path fill="#ffffff" d="M 63.679688 69.074219 L 62.25 69.074219 C 62.089844 69.074219 61.960938 69.035156 61.863281 68.957031 C 61.765625 68.878906 61.691406 68.78125 61.640625 68.660156 L 61.171875 67.222656 L 58.148438 67.222656 L 57.683594 68.660156 C 57.640625 68.765625 57.570312 68.859375 57.464844 68.945312 C 57.363281 69.03125 57.234375 69.074219 57.082031 69.074219 L 55.644531 69.074219 L 58.71875 60.835938 L 60.605469 60.835938 Z M 60.75 65.925781 L 60.015625 63.667969 C 59.960938 63.527344 59.902344 63.355469 59.839844 63.160156 C 59.777344 62.96875 59.714844 62.757812 59.65625 62.53125 C 59.601562 62.761719 59.542969 62.976562 59.480469 63.171875 C 59.417969 63.367188 59.359375 63.535156 59.304688 63.679688 L 58.574219 65.925781 Z M 60.75 65.925781 " fill-opacity="1" fill-rule="nonzero"/><path fill="#ffffff" d="M 70.804688 69.074219 L 69.136719 69.074219 C 68.828125 69.074219 68.605469 68.953125 68.46875 68.710938 L 67.152344 66.320312 C 67.089844 66.21875 67.019531 66.144531 66.945312 66.097656 C 66.867188 66.050781 66.757812 66.023438 66.617188 66.023438 L 66.148438 66.023438 L 66.148438 69.074219 L 64.304688 69.074219 L 64.304688 60.835938 L 66.890625 60.835938 C 67.464844 60.835938 67.953125 60.898438 68.359375 61.019531 C 68.765625 61.144531 69.09375 61.3125 69.351562 61.53125 C 69.609375 61.753906 69.792969 62.011719 69.910156 62.308594 C 70.027344 62.605469 70.085938 62.929688 70.085938 63.28125 C 70.085938 63.546875 70.050781 63.800781 69.980469 64.039062 C 69.914062 64.277344 69.8125 64.492188 69.675781 64.695312 C 69.542969 64.898438 69.375 65.078125 69.179688 65.234375 C 68.980469 65.394531 68.753906 65.523438 68.492188 65.628906 C 68.613281 65.691406 68.726562 65.769531 68.832031 65.867188 C 68.9375 65.964844 69.03125 66.078125 69.113281 66.210938 Z M 66.890625 64.707031 C 67.140625 64.707031 67.351562 64.675781 67.53125 64.609375 C 67.707031 64.542969 67.851562 64.449219 67.964844 64.332031 C 68.078125 64.21875 68.160156 64.082031 68.210938 63.925781 C 68.261719 63.765625 68.285156 63.597656 68.285156 63.417969 C 68.285156 63.054688 68.171875 62.773438 67.945312 62.570312 C 67.71875 62.367188 67.367188 62.265625 66.890625 62.265625 L 66.148438 62.265625 L 66.148438 64.707031 Z M 66.890625 64.707031 " fill-opacity="1" fill-rule="nonzero"/><path fill="#ffffff" d="M 77.023438 62.351562 L 74.789062 62.351562 L 74.789062 69.074219 L 72.945312 69.074219 L 72.945312 62.351562 L 70.710938 62.351562 L 70.710938 60.835938 L 77.023438 60.835938 Z M 77.023438 62.351562 " fill-opacity="1" fill-rule="nonzero"/><path fill="#ffffff" d="M 86.886719 60.835938 L 86.886719 69.074219 L 85.261719 69.074219 L 85.261719 64.335938 C 85.261719 64.226562 85.265625 64.109375 85.269531 63.980469 C 85.273438 63.851562 85.285156 63.722656 85.300781 63.585938 L 83.191406 67.820312 C 83.125 67.953125 83.035156 68.054688 82.925781 68.121094 C 82.8125 68.191406 82.6875 68.226562 82.546875 68.226562 L 82.296875 68.226562 C 82.152344 68.226562 82.027344 68.191406 81.917969 68.121094 C 81.804688 68.054688 81.71875 67.957031 81.652344 67.820312 L 79.542969 63.578125 C 79.554688 63.710938 79.5625 63.84375 79.570312 63.976562 C 79.578125 64.105469 79.582031 64.222656 79.582031 64.332031 L 79.582031 69.070312 L 77.957031 69.070312 L 77.957031 60.835938 L 79.363281 60.835938 C 79.441406 60.835938 79.511719 60.839844 79.574219 60.84375 C 79.632812 60.847656 79.6875 60.855469 79.734375 60.878906 C 79.78125 60.894531 79.824219 60.925781 79.863281 60.964844 C 79.898438 61.003906 79.9375 61.058594 79.972656 61.128906 L 82.019531 65.308594 C 82.089844 65.449219 82.160156 65.601562 82.226562 65.753906 C 82.296875 65.910156 82.359375 66.066406 82.421875 66.230469 C 82.484375 66.066406 82.546875 65.902344 82.613281 65.746094 C 82.683594 65.585938 82.753906 65.4375 82.828125 65.292969 L 84.867188 61.128906 C 84.90625 61.058594 84.941406 61.003906 84.980469 60.964844 C 85.019531 60.925781 85.0625 60.894531 85.109375 60.878906 C 85.15625 60.859375 85.210938 60.847656 85.269531 60.84375 C 85.328125 60.839844 85.398438 60.835938 85.480469 60.835938 Z M 86.886719 60.835938 " fill-opacity="1" fill-rule="nonzero"/><path fill="#ffffff" d="M 90.277344 62.308594 L 90.277344 64.226562 L 92.773438 64.226562 L 92.773438 65.640625 L 90.277344 65.640625 L 90.277344 67.605469 L 93.539062 67.605469 L 93.539062 69.074219 L 88.421875 69.074219 L 88.421875 60.835938 L 93.539062 60.835938 L 93.539062 62.308594 Z M 90.277344 62.308594 " fill-opacity="1" fill-rule="nonzero"/><path fill="#ffffff" d="M 101.605469 60.835938 L 101.605469 69.074219 L 100.648438 69.074219 C 100.503906 69.074219 100.386719 69.050781 100.289062 69 C 100.191406 68.957031 100.097656 68.871094 100.003906 68.753906 L 96.257812 63.84375 C 96.273438 63.988281 96.28125 64.132812 96.289062 64.269531 C 96.292969 64.40625 96.296875 64.535156 96.296875 64.65625 L 96.296875 69.070312 L 94.671875 69.070312 L 94.671875 60.835938 L 95.640625 60.835938 C 95.722656 60.835938 95.789062 60.839844 95.84375 60.847656 C 95.898438 60.855469 95.949219 60.871094 95.992188 60.890625 C 96.035156 60.910156 96.078125 60.941406 96.117188 60.980469 C 96.15625 61.015625 96.203125 61.066406 96.253906 61.132812 L 100.03125 66.078125 C 100.011719 65.917969 100 65.765625 99.992188 65.617188 C 99.984375 65.46875 99.980469 65.328125 99.980469 65.195312 L 99.980469 60.835938 Z M 101.605469 60.835938 " fill-opacity="1" fill-rule="nonzero"/><path fill="#ffffff" d="M 108.851562 62.351562 L 106.617188 62.351562 L 106.617188 69.074219 L 104.773438 69.074219 L 104.773438 62.351562 L 102.539062 62.351562 L 102.539062 60.835938 L 108.851562 60.835938 Z M 108.851562 62.351562 " fill-opacity="1" fill-rule="nonzero"/><path fill="#ffffff" d="M 119.765625 64.953125 C 119.765625 65.546875 119.664062 66.101562 119.46875 66.613281 C 119.269531 67.125 118.992188 67.570312 118.632812 67.949219 C 118.273438 68.328125 117.839844 68.625 117.332031 68.839844 C 116.824219 69.054688 116.261719 69.164062 115.644531 69.164062 C 115.027344 69.164062 114.460938 69.054688 113.953125 68.839844 C 113.445312 68.625 113.011719 68.328125 112.648438 67.949219 C 112.289062 67.570312 112.007812 67.125 111.808594 66.613281 C 111.609375 66.101562 111.511719 65.546875 111.511719 64.953125 C 111.511719 64.355469 111.609375 63.800781 111.808594 63.289062 C 112.007812 62.777344 112.289062 62.332031 112.648438 61.957031 C 113.011719 61.578125 113.445312 61.28125 113.953125 61.070312 C 114.464844 60.851562 115.027344 60.746094 115.644531 60.746094 C 116.261719 60.746094 116.824219 60.855469 117.332031 61.070312 C 117.839844 61.289062 118.273438 61.585938 118.632812 61.960938 C 118.992188 62.339844 119.269531 62.785156 119.46875 63.296875 C 119.664062 63.808594 119.765625 64.359375 119.765625 64.953125 Z M 117.878906 64.953125 C 117.878906 64.542969 117.828125 64.175781 117.726562 63.851562 C 117.625 63.527344 117.476562 63.25 117.289062 63.023438 C 117.097656 62.796875 116.863281 62.625 116.585938 62.503906 C 116.308594 62.382812 115.996094 62.324219 115.644531 62.324219 C 115.289062 62.324219 114.96875 62.382812 114.691406 62.503906 C 114.414062 62.625 114.179688 62.796875 113.988281 63.023438 C 113.800781 63.25 113.652344 63.527344 113.550781 63.851562 C 113.449219 64.179688 113.398438 64.542969 113.398438 64.953125 C 113.398438 65.363281 113.449219 65.730469 113.550781 66.058594 C 113.652344 66.382812 113.800781 66.65625 113.988281 66.886719 C 114.179688 67.113281 114.414062 67.28125 114.691406 67.402344 C 114.972656 67.519531 115.289062 67.582031 115.644531 67.582031 C 115.996094 67.582031 116.308594 67.519531 116.585938 67.402344 C 116.863281 67.28125 117.097656 67.109375 117.289062 66.886719 C 117.476562 66.660156 117.625 66.382812 117.726562 66.058594 C 117.828125 65.730469 117.878906 65.363281 117.878906 64.953125 Z M 117.878906 64.953125 " fill-opacity="1" fill-rule="nonzero"/><path fill="#ffffff" d="M 122.703125 62.308594 L 122.703125 64.394531 L 125.417969 64.394531 L 125.417969 65.867188 L 122.703125 65.867188 L 122.703125 69.074219 L 120.847656 69.074219 L 120.847656 60.835938 L 125.960938 60.835938 L 125.960938 62.308594 Z M 122.703125 62.308594 " fill-opacity="1" fill-rule="nonzero"/><path fill="#ffffff" d="M 131.125 62.308594 L 131.125 64.226562 L 133.625 64.226562 L 133.625 65.640625 L 131.125 65.640625 L 131.125 67.605469 L 134.386719 67.605469 L 134.386719 69.074219 L 129.273438 69.074219 L 129.273438 60.835938 L 134.386719 60.835938 L 134.386719 62.308594 Z M 131.125 62.308594 " fill-opacity="1" fill-rule="nonzero"/><path fill="#ffffff" d="M 142.726562 64.953125 C 142.726562 65.546875 142.628906 66.097656 142.429688 66.601562 C 142.234375 67.101562 141.953125 67.539062 141.59375 67.90625 C 141.234375 68.273438 140.800781 68.558594 140.292969 68.765625 C 139.785156 68.972656 139.226562 69.074219 138.605469 69.074219 L 135.523438 69.074219 L 135.523438 60.835938 L 138.605469 60.835938 C 139.222656 60.835938 139.789062 60.941406 140.292969 61.148438 C 140.800781 61.355469 141.234375 61.640625 141.59375 62.007812 C 141.953125 62.371094 142.234375 62.808594 142.429688 63.308594 C 142.628906 63.8125 142.726562 64.359375 142.726562 64.953125 Z M 140.839844 64.953125 C 140.839844 64.542969 140.789062 64.175781 140.6875 63.851562 C 140.585938 63.523438 140.441406 63.246094 140.25 63.015625 C 140.058594 62.789062 139.824219 62.613281 139.550781 62.488281 C 139.273438 62.367188 138.957031 62.308594 138.605469 62.308594 L 137.375 62.308594 L 137.375 67.601562 L 138.605469 67.601562 C 138.957031 67.601562 139.273438 67.542969 139.550781 67.417969 C 139.824219 67.296875 140.058594 67.121094 140.25 66.894531 C 140.441406 66.664062 140.585938 66.386719 140.6875 66.058594 C 140.789062 65.730469 140.839844 65.363281 140.839844 64.953125 Z M 140.839844 64.953125 " fill-opacity="1" fill-rule="nonzero"/><path fill="#ffffff" d="M 147.132812 67.5625 C 147.378906 67.5625 147.601562 67.519531 147.792969 67.4375 C 147.988281 67.351562 148.152344 67.230469 148.285156 67.070312 C 148.421875 66.914062 148.523438 66.71875 148.59375 66.492188 C 148.667969 66.265625 148.699219 66.003906 148.699219 65.714844 L 148.699219 60.835938 L 150.542969 60.835938 L 150.542969 65.714844 C 150.542969 66.21875 150.464844 66.683594 150.308594 67.105469 C 150.148438 67.527344 149.921875 67.890625 149.628906 68.195312 C 149.332031 68.503906 148.976562 68.738281 148.554688 68.910156 C 148.132812 69.078125 147.65625 69.164062 147.132812 69.164062 C 146.601562 69.164062 146.125 69.078125 145.703125 68.910156 C 145.28125 68.738281 144.921875 68.503906 144.628906 68.195312 C 144.332031 67.890625 144.109375 67.527344 143.953125 67.105469 C 143.796875 66.683594 143.71875 66.21875 143.71875 65.714844 L 143.71875 60.835938 L 145.558594 60.835938 L 145.558594 65.710938 C 145.558594 66 145.597656 66.257812 145.667969 66.484375 C 145.738281 66.714844 145.839844 66.90625 145.972656 67.066406 C 146.109375 67.226562 146.273438 67.347656 146.46875 67.433594 C 146.660156 67.519531 146.882812 67.5625 147.132812 67.5625 Z M 147.132812 67.5625 " fill-opacity="1" fill-rule="nonzero"/><path fill="#ffffff" d="M 157.339844 66.941406 C 157.382812 66.941406 157.425781 66.949219 157.46875 66.96875 C 157.511719 66.984375 157.554688 67.011719 157.59375 67.054688 L 158.324219 67.851562 C 158.003906 68.285156 157.605469 68.613281 157.121094 68.832031 C 156.640625 69.050781 156.070312 69.164062 155.414062 69.164062 C 154.808594 69.164062 154.269531 69.058594 153.789062 68.84375 C 153.3125 68.632812 152.90625 68.335938 152.574219 67.960938 C 152.242188 67.585938 151.988281 67.140625 151.808594 66.628906 C 151.632812 66.113281 151.542969 65.554688 151.542969 64.953125 C 151.542969 64.335938 151.640625 63.773438 151.832031 63.257812 C 152.023438 62.746094 152.296875 62.300781 152.644531 61.925781 C 152.992188 61.554688 153.410156 61.265625 153.898438 61.058594 C 154.382812 60.847656 154.921875 60.746094 155.507812 60.746094 C 155.804688 60.746094 156.085938 60.773438 156.347656 60.828125 C 156.613281 60.882812 156.859375 60.960938 157.085938 61.054688 C 157.316406 61.152344 157.527344 61.265625 157.71875 61.402344 C 157.910156 61.535156 158.082031 61.683594 158.230469 61.84375 L 157.609375 62.707031 C 157.570312 62.757812 157.519531 62.808594 157.46875 62.851562 C 157.414062 62.894531 157.335938 62.917969 157.238281 62.917969 C 157.171875 62.917969 157.113281 62.902344 157.050781 62.871094 C 156.996094 62.839844 156.933594 62.804688 156.867188 62.761719 C 156.800781 62.71875 156.730469 62.671875 156.652344 62.621094 C 156.574219 62.570312 156.480469 62.523438 156.375 62.480469 C 156.265625 62.4375 156.140625 62.398438 155.996094 62.371094 C 155.855469 62.339844 155.6875 62.324219 155.492188 62.324219 C 155.1875 62.324219 154.910156 62.382812 154.65625 62.5 C 154.40625 62.617188 154.1875 62.789062 154.003906 63.011719 C 153.816406 63.238281 153.679688 63.511719 153.578125 63.839844 C 153.476562 64.164062 153.429688 64.535156 153.429688 64.953125 C 153.429688 65.378906 153.484375 65.753906 153.59375 66.082031 C 153.703125 66.410156 153.855469 66.683594 154.046875 66.910156 C 154.238281 67.132812 154.460938 67.304688 154.714844 67.421875 C 154.96875 67.539062 155.242188 67.59375 155.53125 67.59375 C 155.699219 67.59375 155.851562 67.585938 155.992188 67.570312 C 156.128906 67.554688 156.257812 67.527344 156.378906 67.484375 C 156.496094 67.445312 156.609375 67.394531 156.714844 67.328125 C 156.820312 67.261719 156.925781 67.175781 157.035156 67.074219 C 157.078125 67.039062 157.125 67.007812 157.179688 66.984375 C 157.230469 66.953125 157.285156 66.941406 157.339844 66.941406 Z M 157.339844 66.941406 " fill-opacity="1" fill-rule="nonzero"/><path fill="#ffffff" d="M 166.257812 69.074219 L 164.828125 69.074219 C 164.667969 69.074219 164.539062 69.035156 164.441406 68.957031 C 164.34375 68.878906 164.269531 68.78125 164.21875 68.660156 L 163.75 67.222656 L 160.730469 67.222656 L 160.261719 68.660156 C 160.21875 68.765625 160.148438 68.859375 160.042969 68.945312 C 159.941406 69.03125 159.8125 69.074219 159.660156 69.074219 L 158.222656 69.074219 L 161.296875 60.835938 L 163.183594 60.835938 Z M 163.328125 65.925781 L 162.59375 63.667969 C 162.539062 63.527344 162.480469 63.355469 162.417969 63.160156 C 162.355469 62.96875 162.296875 62.757812 162.234375 62.53125 C 162.179688 62.761719 162.121094 62.976562 162.058594 63.171875 C 161.996094 63.367188 161.9375 63.535156 161.882812 63.679688 L 161.152344 65.925781 Z M 163.328125 65.925781 " fill-opacity="1" fill-rule="nonzero"/><path fill="#ffffff" d="M 171.816406 62.351562 L 169.582031 62.351562 L 169.582031 69.074219 L 167.738281 69.074219 L 167.738281 62.351562 L 165.503906 62.351562 L 165.503906 60.835938 L 171.816406 60.835938 Z M 171.816406 62.351562 " fill-opacity="1" fill-rule="nonzero"/><path fill="#ffffff" d="M 172.75 60.835938 L 174.601562 60.835938 L 174.601562 69.074219 L 172.75 69.074219 Z M 172.75 60.835938 " fill-opacity="1" fill-rule="nonzero"/><path fill="#ffffff" d="M 183.9375 64.953125 C 183.9375 65.546875 183.835938 66.101562 183.636719 66.613281 C 183.441406 67.125 183.160156 67.570312 182.800781 67.949219 C 182.441406 68.328125 182.007812 68.625 181.5 68.839844 C 180.992188 69.054688 180.433594 69.164062 179.8125 69.164062 C 179.195312 69.164062 178.632812 69.054688 178.125 68.839844 C 177.613281 68.625 177.179688 68.328125 176.820312 67.949219 C 176.457031 67.570312 176.179688 67.125 175.980469 66.613281 C 175.78125 66.101562 175.683594 65.546875 175.683594 64.953125 C 175.683594 64.355469 175.78125 63.800781 175.980469 63.289062 C 176.179688 62.777344 176.460938 62.332031 176.820312 61.957031 C 177.179688 61.578125 177.617188 61.28125 178.125 61.070312 C 178.632812 60.851562 179.195312 60.746094 179.8125 60.746094 C 180.433594 60.746094 180.996094 60.855469 181.5 61.070312 C 182.007812 61.289062 182.441406 61.585938 182.800781 61.960938 C 183.164062 62.339844 183.441406 62.785156 183.636719 63.296875 C 183.835938 63.808594 183.9375 64.359375 183.9375 64.953125 Z M 182.050781 64.953125 C 182.050781 64.542969 182 64.175781 181.898438 63.851562 C 181.792969 63.527344 181.648438 63.25 181.457031 63.023438 C 181.269531 62.796875 181.035156 62.625 180.757812 62.503906 C 180.480469 62.382812 180.167969 62.324219 179.8125 62.324219 C 179.457031 62.324219 179.140625 62.382812 178.863281 62.503906 C 178.585938 62.625 178.351562 62.796875 178.160156 63.023438 C 177.96875 63.25 177.824219 63.527344 177.722656 63.851562 C 177.621094 64.179688 177.570312 64.542969 177.570312 64.953125 C 177.570312 65.363281 177.621094 65.730469 177.722656 66.058594 C 177.824219 66.382812 177.96875 66.65625 178.160156 66.886719 C 178.351562 67.113281 178.585938 67.28125 178.863281 67.402344 C 179.140625 67.519531 179.457031 67.582031 179.8125 67.582031 C 180.167969 67.582031 180.480469 67.519531 180.757812 67.402344 C 181.035156 67.28125 181.269531 67.109375 181.457031 66.886719 C 181.648438 66.660156 181.792969 66.382812 181.898438 66.058594 C 182 65.730469 182.050781 65.363281 182.050781 64.953125 Z M 182.050781 64.953125 " fill-opacity="1" fill-rule="nonzero"/><path fill="#ffffff" d="M 191.957031 60.835938 L 191.957031 69.074219 L 190.996094 69.074219 C 190.855469 69.074219 190.734375 69.050781 190.636719 69 C 190.542969 68.957031 190.445312 68.871094 190.351562 68.753906 L 186.605469 63.84375 C 186.621094 63.988281 186.632812 64.132812 186.636719 64.269531 C 186.640625 64.40625 186.644531 64.535156 186.644531 64.65625 L 186.644531 69.070312 L 185.019531 69.070312 L 185.019531 60.835938 L 185.992188 60.835938 C 186.070312 60.835938 186.136719 60.839844 186.191406 60.847656 C 186.246094 60.855469 186.296875 60.871094 186.339844 60.890625 C 186.382812 60.910156 186.425781 60.941406 186.464844 60.980469 C 186.503906 61.015625 186.550781 61.066406 186.601562 61.132812 L 190.378906 66.078125 C 190.363281 65.917969 190.347656 65.765625 190.339844 65.617188 C 190.335938 65.46875 190.328125 65.328125 190.328125 65.195312 L 190.328125 60.835938 Z M 191.957031 60.835938 " fill-opacity="1" fill-rule="nonzero"/></svg>