<svg xmlns="http://www.w3.org/2000/svg" xmlns:xlink="http://www.w3.org/1999/xlink" width="260" zoomAndPan="magnify" viewBox="0 0 194.87999 90" height="110" preserveAspectRatio="xMidYMid meet" version="1.0"><defs><clipPath id="119dc67fa4"><path d="M 2 4.003906 L 49 4.003906 L 49 78 L 2 78 Z M 2 4.003906 " clip-rule="nonzero"/></clipPath><clipPath id="dab41f1cbe"><path d="M 131 66 L 139 66 L 139 78.207031 L 131 78.207031 Z M 131 66 " clip-rule="nonzero"/></clipPath><clipPath id="f3ef4ce315"><path d="M 49 22 L 192.839844 22 L 192.839844 76 L 49 76 Z M 49 22 " clip-rule="nonzero"/></clipPath></defs><g clip-path="url(#119dc67fa4)"><path fill="#ffffff" d="M 45.785156 57.953125 C 43.746094 57.257812 41.71875 56.539062 39.605469 56.085938 C 37.0625 55.539062 34.53125 55.058594 31.945312 55.75 C 30.75 56.066406 29.570312 56.441406 28.6875 57.394531 C 28.550781 57.542969 28.339844 57.683594 28.148438 57.710938 C 27.519531 57.804688 26.875 57.90625 26.242188 57.882812 C 25.265625 57.84375 24.546875 57.207031 24.496094 56.242188 C 24.453125 55.402344 24.496094 54.523438 24.714844 53.714844 C 25.152344 52.066406 26.089844 50.660156 27.132812 49.316406 C 28.5 47.554688 30.183594 46.496094 32.492188 46.632812 C 32.933594 46.65625 33.386719 46.617188 33.832031 46.644531 C 34.339844 46.671875 34.675781 46.472656 34.945312 46.042969 C 35.363281 45.375 35.832031 44.742188 36.277344 44.089844 C 36.804688 43.316406 37.351562 42.554688 37.859375 41.765625 C 38.859375 40.179688 39.847656 38.582031 40.828125 36.980469 C 41.671875 35.597656 42.542969 34.226562 43.300781 32.796875 C 43.78125 31.894531 43.707031 31.539062 42.863281 30.941406 C 41.859375 30.234375 40.769531 29.636719 39.679688 29.066406 C 38.832031 28.632812 37.941406 28.289062 37.054688 27.945312 C 36.46875 27.71875 35.847656 27.574219 35.25 27.371094 C 35.050781 27.304688 34.871094 27.1875 34.679688 27.089844 C 34.835938 26.929688 34.96875 26.734375 35.152344 26.621094 C 35.304688 26.527344 35.519531 26.527344 35.707031 26.488281 C 35.933594 26.441406 36.171875 26.425781 36.390625 26.347656 C 37.535156 25.941406 38.492188 25.222656 39.410156 24.457031 C 40.519531 23.527344 41.28125 22.328125 41.792969 20.972656 C 42.359375 19.476562 42.992188 18 43.472656 16.472656 C 43.804688 15.421875 43.882812 14.289062 44.15625 13.21875 C 44.628906 11.390625 44.503906 9.535156 44.515625 7.679688 C 44.523438 6.6875 44.652344 5.695312 44.691406 4.699219 C 44.699219 4.515625 44.601562 4.210938 44.480469 4.171875 C 44.160156 4.058594 43.769531 3.949219 43.457031 4.035156 C 41.992188 4.417969 40.539062 4.832031 39.101562 5.304688 C 38.097656 5.640625 37.070312 5.984375 36.152344 6.5 C 34.410156 7.484375 32.730469 8.585938 31.035156 9.65625 C 29.460938 10.652344 28.601562 12.171875 28.171875 13.90625 C 27.773438 15.527344 27.632812 17.203125 27.78125 18.875 C 27.855469 19.648438 28.050781 20.425781 28.308594 21.164062 C 28.570312 21.921875 28.976562 22.636719 29.316406 23.375 C 29.570312 23.925781 29.816406 24.484375 30.066406 25.042969 C 30.015625 25.109375 29.964844 25.179688 29.914062 25.25 C 29.652344 25.164062 29.347656 25.132812 29.136719 24.976562 C 28.527344 24.527344 27.8125 24.484375 27.128906 24.453125 C 26.261719 24.414062 25.382812 24.511719 24.515625 24.566406 C 24.066406 24.597656 23.617188 24.636719 23.179688 24.71875 C 21.902344 24.960938 20.625 25.21875 19.355469 25.492188 C 18.875 25.59375 18.398438 25.730469 17.9375 25.898438 C 15.859375 26.667969 13.820312 27.535156 11.925781 28.703125 C 10.992188 29.289062 10.019531 29.835938 9.179688 30.539062 C 7.714844 31.75 6.378906 33.117188 5.394531 34.761719 C 4.753906 35.832031 4.136719 36.933594 3.648438 38.078125 C 3.246094 39.019531 2.996094 40.039062 2.769531 41.042969 C 2.488281 42.285156 2.160156 43.539062 2.09375 44.800781 C 1.984375 46.847656 1.964844 48.910156 2.101562 50.949219 C 2.207031 52.484375 2.558594 54.011719 2.910156 55.519531 C 3.160156 56.582031 3.574219 57.609375 3.960938 58.632812 C 4.277344 59.484375 4.621094 60.332031 5.03125 61.144531 C 5.691406 62.441406 6.355469 63.746094 7.121094 64.984375 C 8.113281 66.59375 9.105469 68.21875 10.277344 69.695312 C 12.488281 72.480469 15.109375 74.835938 18.195312 76.640625 C 18.4375 76.785156 18.734375 76.898438 19.015625 76.90625 C 20.5 76.957031 21.984375 77.125 23.476562 76.984375 C 24.304688 76.902344 25.140625 76.945312 25.96875 76.875 C 26.945312 76.785156 27.914062 76.640625 28.882812 76.503906 C 30.078125 76.328125 31.273438 76.148438 32.460938 75.945312 C 32.960938 75.859375 33.445312 75.703125 33.929688 75.570312 C 34.074219 75.53125 34.207031 75.460938 34.34375 75.402344 C 34.804688 75.195312 35.269531 74.996094 35.730469 74.78125 C 36.53125 74.40625 37.359375 74.078125 38.117188 73.625 C 39.058594 73.0625 39.964844 72.425781 40.839844 71.761719 C 42.171875 70.75 43.296875 69.527344 44.191406 68.109375 C 44.8125 67.128906 45.421875 66.125 45.902344 65.066406 C 46.386719 63.984375 47.019531 62.960938 47.238281 61.765625 C 47.324219 61.316406 47.523438 60.886719 47.6875 60.457031 C 47.847656 60.035156 48.035156 59.621094 48.195312 59.238281 C 47.816406 59.03125 47.503906 58.859375 47.1875 58.691406 C 46.726562 58.4375 46.28125 58.121094 45.785156 57.953125 Z M 45.785156 57.953125 " fill-opacity="1" fill-rule="nonzero"/></g><path fill="#ffffff" d="M 53.34375 57.3125 C 54.46875 55.871094 55.628906 54.457031 56.769531 53.023438 C 56.84375 52.929688 56.851562 52.78125 56.898438 52.628906 C 56.605469 52.578125 56.382812 52.535156 56.160156 52.496094 C 56.128906 52.230469 55.609375 51.769531 55.488281 51.664062 C 55.027344 51.246094 51.832031 50.566406 51.03125 50.433594 C 50.289062 50.316406 49.515625 50.425781 48.753906 50.414062 C 48.546875 50.410156 48.328125 50.359375 48.128906 50.292969 C 47.527344 50.09375 46.9375 49.824219 46.320312 49.675781 C 44.664062 49.277344 42.996094 48.925781 41.332031 48.558594 C 40.996094 48.484375 40.648438 48.460938 40.332031 48.339844 C 40.097656 48.246094 39.839844 48.074219 39.714844 47.863281 C 39.25 47.078125 39.304688 46.804688 39.867188 46.078125 C 40.152344 45.714844 40.398438 45.3125 40.644531 44.914062 C 41.480469 43.550781 42.238281 42.136719 43.15625 40.832031 C 44.332031 39.171875 45.902344 37.824219 47.023438 36.101562 C 47.761719 34.96875 48.539062 33.863281 49.335938 32.769531 C 50.339844 31.394531 51.355469 30.035156 52.40625 28.699219 C 53.03125 27.90625 53.730469 27.171875 54.5 26.292969 C 54.550781 26.539062 54.617188 26.660156 54.582031 26.730469 C 54.179688 27.503906 53.777344 28.28125 53.347656 29.046875 C 52.855469 29.917969 52.300781 30.757812 51.839844 31.652344 C 51.273438 32.753906 50.773438 33.890625 50.25 35.015625 C 50.09375 35.355469 49.953125 35.699219 49.824219 36.042969 C 49.59375 36.640625 49.273438 37.226562 49.1875 37.84375 C 49.078125 38.644531 49.164062 39.46875 49.167969 40.277344 C 49.171875 40.554688 49.246094 40.769531 49.578125 40.832031 C 49.707031 40.859375 49.902344 41.019531 49.910156 41.132812 C 49.933594 41.492188 50.058594 41.710938 50.445312 41.691406 C 50.757812 41.675781 51.15625 41.742188 51.367188 41.582031 C 52.390625 40.796875 53.425781 40.011719 54.328125 39.097656 C 55.117188 38.300781 55.738281 37.339844 56.417969 36.441406 C 56.617188 36.179688 56.640625 35.863281 56.355469 35.636719 C 55.964844 35.320312 56.078125 34.921875 56.207031 34.582031 C 56.464844 33.925781 56.804688 33.304688 57.105469 32.671875 C 57.570312 31.695312 58.042969 30.726562 58.496094 29.742188 C 58.875 28.917969 59.242188 28.089844 59.585938 27.25 C 59.773438 26.792969 59.90625 26.316406 60.0625 25.84375 C 60.242188 25.308594 60.429688 24.777344 60.605469 24.242188 C 60.6875 24.003906 60.765625 23.769531 60.828125 23.527344 C 60.898438 23.265625 60.945312 22.996094 61.015625 22.730469 C 61.238281 21.832031 61.433594 20.917969 60.917969 20.066406 C 60.617188 19.570312 60.207031 19.132812 59.835938 18.679688 C 59.707031 18.519531 57.5625 17.898438 56.742188 18.578125 C 56.496094 18.785156 56.175781 18.917969 55.925781 19.125 C 54.933594 19.949219 53.855469 20.695312 53 21.636719 C 51.5 23.289062 50.128906 25.058594 48.730469 26.796875 C 47.96875 27.742188 47.199219 28.683594 46.550781 29.703125 C 45.925781 30.679688 45.15625 31.574219 44.757812 32.695312 C 44.523438 33.355469 44.257812 34.019531 43.898438 34.621094 C 42.8125 36.425781 41.671875 38.203125 40.550781 39.988281 C 40.039062 40.800781 39.507812 41.597656 39.003906 42.417969 C 38.066406 43.945312 37.136719 45.476562 36.214844 47.011719 C 35.875 47.582031 35.441406 47.921875 34.734375 47.964844 C 33.738281 48.023438 32.738281 48.144531 31.75 48.296875 C 30.511719 48.488281 29.3125 48.820312 28.398438 49.742188 C 27.46875 50.675781 26.757812 51.773438 26.230469 52.96875 C 25.949219 53.601562 25.75 54.304688 25.691406 54.988281 C 25.554688 56.695312 26.179688 56.816406 27.671875 56.304688 C 27.773438 56.269531 27.851562 56.179688 27.949219 56.140625 C 29.183594 55.613281 30.390625 54.996094 31.660156 54.585938 C 33.871094 53.871094 36.15625 54.148438 38.402344 54.371094 C 39.496094 54.476562 40.578125 54.792969 41.640625 55.085938 C 42.523438 55.332031 43.382812 55.660156 44.234375 55.996094 C 45.796875 56.617188 47.535156 56.855469 48.839844 58.074219 C 48.976562 58.203125 49.234375 58.214844 49.441406 58.253906 C 49.648438 58.296875 49.875 58.269531 50.074219 58.332031 C 51.410156 58.753906 52.480469 58.410156 53.34375 57.3125 Z M 53.34375 57.3125 " fill-opacity="1" fill-rule="nonzero"/><path fill="#ffffff" d="M 47.851562 38.472656 C 47.777344 38.226562 47.589844 38.007812 47.398438 37.6875 C 47.132812 38.085938 47.003906 38.402344 46.773438 38.601562 C 45.871094 39.402344 45.15625 40.347656 44.5 41.347656 C 43.492188 42.875 42.453125 44.382812 41.464844 45.921875 C 41.054688 46.558594 41.191406 46.785156 41.960938 46.960938 C 43.058594 47.207031 44.164062 47.4375 45.257812 47.703125 C 45.796875 47.832031 46.320312 48.015625 46.847656 48.191406 C 47.574219 48.4375 48.296875 48.6875 49.019531 48.957031 C 49.351562 49.082031 49.519531 48.96875 49.570312 48.65625 C 49.605469 48.449219 49.597656 48.230469 49.597656 48.019531 C 49.574219 45.863281 49.398438 43.722656 48.769531 41.644531 C 48.453125 40.589844 48.175781 39.523438 47.851562 38.472656 Z M 47.851562 38.472656 " fill-opacity="1" fill-rule="nonzero"/><path fill="#ffffff" d="M 90.5 14.257812 C 92.125 14.28125 93.746094 14.269531 95.367188 14.273438 C 95.742188 14.277344 95.839844 14.097656 95.828125 13.761719 C 95.808594 13.078125 95.820312 12.394531 95.820312 11.710938 C 95.816406 11.035156 95.820312 10.355469 95.820312 9.621094 C 93.839844 9.621094 91.976562 9.621094 90.042969 9.621094 C 90.042969 11.101562 90.03125 12.527344 90.0625 13.953125 C 90.066406 14.0625 90.347656 14.253906 90.5 14.257812 Z M 90.5 14.257812 " fill-opacity="1" fill-rule="nonzero"/><path fill="#ffffff" d="M 131.90625 14.28125 C 133.417969 14.261719 134.933594 14.273438 136.445312 14.269531 C 136.628906 14.269531 136.8125 14.234375 137.027344 14.210938 C 137.027344 12.667969 137.027344 11.1875 137.027344 9.648438 C 136.882812 9.613281 136.804688 9.574219 136.722656 9.574219 C 135.0625 9.570312 133.398438 9.574219 131.734375 9.566406 C 131.351562 9.558594 131.277344 9.75 131.28125 10.085938 C 131.292969 11.277344 131.3125 12.472656 131.277344 13.667969 C 131.261719 14.171875 131.445312 14.289062 131.90625 14.28125 Z M 131.90625 14.28125 " fill-opacity="1" fill-rule="nonzero"/><path fill="#ffffff" d="M 145.363281 13.382812 L 142.878906 13.382812 L 142.878906 12.039062 L 145.148438 12.039062 L 145.148438 11.203125 L 142.878906 11.203125 L 142.878906 9.984375 L 145.363281 9.984375 L 145.363281 9.148438 L 141.945312 9.148438 L 141.945312 14.21875 L 145.363281 14.21875 Z M 145.363281 13.382812 " fill-opacity="1" fill-rule="nonzero"/><path fill="#ffffff" d="M 147.097656 10.871094 L 148.167969 14.21875 L 149.109375 14.21875 L 150.195312 10.871094 L 150.195312 14.21875 L 151.128906 14.21875 L 151.128906 9.148438 L 149.878906 9.148438 L 148.636719 12.742188 L 147.417969 9.148438 L 146.164062 9.148438 L 146.164062 14.21875 L 147.097656 14.21875 Z M 147.097656 10.871094 " fill-opacity="1" fill-rule="nonzero"/><path fill="#ffffff" d="M 152.863281 12.1875 C 153.839844 12.1875 155.371094 12.164062 155.371094 10.667969 C 155.371094 9.167969 153.839844 9.148438 152.863281 9.148438 L 151.929688 9.148438 L 151.929688 14.21875 L 152.863281 14.21875 Z M 152.863281 9.984375 L 153.109375 9.984375 C 153.941406 9.984375 154.417969 10.054688 154.417969 10.667969 C 154.417969 11.277344 153.941406 11.351562 153.109375 11.351562 L 152.863281 11.351562 Z M 152.863281 9.984375 " fill-opacity="1" fill-rule="nonzero"/><path fill="#ffffff" d="M 158.179688 14.324219 C 159.746094 14.324219 160.320312 12.867188 160.320312 11.691406 C 160.320312 10.503906 159.746094 9.046875 158.179688 9.046875 C 156.613281 9.046875 156.035156 10.503906 156.035156 11.691406 C 156.039062 12.867188 156.617188 14.324219 158.179688 14.324219 Z M 158.179688 9.882812 C 159.070312 9.882812 159.335938 10.832031 159.335938 11.691406 C 159.335938 12.539062 159.066406 13.484375 158.179688 13.484375 C 157.292969 13.484375 157.023438 12.539062 157.023438 11.691406 C 157.023438 10.832031 157.292969 9.882812 158.179688 9.882812 Z M 158.179688 9.882812 " fill-opacity="1" fill-rule="nonzero"/><path fill="#ffffff" d="M 162.800781 14.21875 L 163.421875 10.824219 L 164.039062 14.21875 L 165.15625 14.21875 L 165.984375 9.148438 L 165.039062 9.148438 L 164.597656 12.507812 L 163.96875 9.242188 L 162.871094 9.242188 L 162.242188 12.484375 L 161.800781 9.148438 L 160.855469 9.148438 L 161.6875 14.21875 Z M 162.800781 14.21875 " fill-opacity="1" fill-rule="nonzero"/><path fill="#ffffff" d="M 170.371094 13.382812 L 167.882812 13.382812 L 167.882812 12.039062 L 170.152344 12.039062 L 170.152344 11.203125 L 167.882812 11.203125 L 167.882812 9.984375 L 170.371094 9.984375 L 170.371094 9.148438 L 166.949219 9.148438 L 166.949219 14.21875 L 170.371094 14.21875 Z M 170.371094 13.382812 " fill-opacity="1" fill-rule="nonzero"/><path fill="#ffffff" d="M 172.242188 12.195312 C 172.324219 12.195312 172.453125 12.203125 172.5625 12.203125 C 172.648438 12.203125 172.722656 12.195312 172.769531 12.191406 L 173.878906 14.222656 L 174.945312 14.222656 L 173.691406 12.039062 C 174.40625 11.851562 174.753906 11.367188 174.753906 10.667969 C 174.753906 9.175781 173.222656 9.152344 172.246094 9.152344 L 171.3125 9.152344 L 171.3125 14.222656 L 172.246094 14.222656 L 172.246094 12.195312 Z M 172.242188 9.984375 L 172.492188 9.984375 C 173.320312 9.984375 173.796875 10.0625 173.796875 10.671875 C 173.796875 11.277344 173.320312 11.351562 172.492188 11.351562 L 172.242188 11.351562 Z M 172.242188 9.984375 " fill-opacity="1" fill-rule="nonzero"/><path fill="#ffffff" d="M 54.660156 10.785156 L 56.671875 14.226562 L 57.605469 14.226562 L 57.605469 9.078125 L 56.660156 9.078125 L 56.660156 12.402344 L 54.628906 9.078125 L 53.710938 9.078125 L 53.710938 14.226562 L 54.660156 14.226562 Z M 54.660156 10.785156 " fill-opacity="1" fill-rule="nonzero"/><path fill="#ffffff" d="M 60.265625 14.351562 C 61.472656 14.351562 62.117188 13.441406 62.117188 12.152344 L 62.117188 9.078125 L 61.167969 9.078125 L 61.167969 12.152344 C 61.167969 12.796875 60.953125 13.503906 60.265625 13.503906 C 59.585938 13.503906 59.371094 12.796875 59.371094 12.152344 L 59.371094 9.078125 L 58.421875 9.078125 L 58.421875 12.152344 C 58.421875 13.441406 59.0625 14.351562 60.265625 14.351562 Z M 60.265625 14.351562 " fill-opacity="1" fill-rule="nonzero"/><path fill="#ffffff" d="M 63.882812 12.171875 C 63.960938 12.171875 64.089844 12.175781 64.203125 12.175781 C 64.289062 12.175781 64.363281 12.171875 64.414062 12.167969 L 65.542969 14.230469 L 66.625 14.230469 L 65.351562 12.011719 C 66.078125 11.820312 66.429688 11.332031 66.429688 10.621094 C 66.429688 9.101562 64.875 9.078125 63.882812 9.078125 L 62.933594 9.078125 L 62.933594 14.230469 L 63.882812 14.230469 Z M 63.882812 9.925781 L 64.132812 9.925781 C 64.976562 9.925781 65.460938 10.003906 65.460938 10.621094 C 65.460938 11.238281 64.972656 11.3125 64.132812 11.3125 L 63.882812 11.3125 Z M 63.882812 9.925781 " fill-opacity="1" fill-rule="nonzero"/><path fill="#ffffff" d="M 68.824219 14.226562 L 69.769531 14.226562 L 69.769531 9.925781 L 71.386719 9.925781 L 71.386719 9.078125 L 67.132812 9.078125 L 67.132812 9.925781 L 68.824219 9.925781 Z M 68.824219 14.226562 " fill-opacity="1" fill-rule="nonzero"/><path fill="#ffffff" d="M 73.902344 14.351562 C 75.109375 14.351562 75.75 13.441406 75.75 12.152344 L 75.75 9.078125 L 74.804688 9.078125 L 74.804688 12.152344 C 74.804688 12.796875 74.585938 13.503906 73.902344 13.503906 C 73.21875 13.503906 73.003906 12.796875 73.003906 12.152344 L 73.003906 9.078125 L 72.054688 9.078125 L 72.054688 12.152344 C 72.054688 13.441406 72.699219 14.351562 73.902344 14.351562 Z M 73.902344 14.351562 " fill-opacity="1" fill-rule="nonzero"/><path fill="#ffffff" d="M 77.515625 12.171875 C 77.59375 12.171875 77.71875 12.175781 77.835938 12.175781 C 77.921875 12.175781 78 12.171875 78.046875 12.167969 L 79.175781 14.230469 L 80.257812 14.230469 L 78.984375 12.011719 C 79.707031 11.820312 80.0625 11.332031 80.0625 10.621094 C 80.0625 9.101562 78.503906 9.078125 77.515625 9.078125 L 76.566406 9.078125 L 76.566406 14.230469 L 77.515625 14.230469 Z M 77.515625 9.925781 L 77.765625 9.925781 C 78.609375 9.925781 79.089844 10.003906 79.089844 10.621094 C 79.089844 11.238281 78.605469 11.3125 77.765625 11.3125 L 77.515625 11.3125 Z M 77.515625 9.925781 " fill-opacity="1" fill-rule="nonzero"/><path fill="#ffffff" d="M 84.371094 13.378906 L 81.847656 13.378906 L 81.847656 12.011719 L 84.152344 12.011719 L 84.152344 11.164062 L 81.847656 11.164062 L 81.847656 9.925781 L 84.371094 9.925781 L 84.371094 9.078125 L 80.898438 9.078125 L 80.898438 14.226562 L 84.371094 14.226562 Z M 84.371094 13.378906 " fill-opacity="1" fill-rule="nonzero"/><path fill="#ffffff" d="M 101.472656 9.191406 L 102.402344 9.191406 L 102.402344 14.238281 L 101.472656 14.238281 Z M 101.472656 9.191406 " fill-opacity="1" fill-rule="nonzero"/><path fill="#ffffff" d="M 104.230469 10.863281 L 106.199219 14.238281 L 107.113281 14.238281 L 107.113281 9.191406 L 106.1875 9.191406 L 106.1875 12.449219 L 104.199219 9.191406 L 103.300781 9.191406 L 103.300781 14.238281 L 104.230469 14.238281 Z M 104.230469 10.863281 " fill-opacity="1" fill-rule="nonzero"/><path fill="#ffffff" d="M 109.667969 13.5 C 109.117188 13.5 108.835938 13.101562 108.734375 12.6875 L 107.804688 12.839844 C 107.941406 13.738281 108.707031 14.339844 109.667969 14.339844 C 110.636719 14.339844 111.421875 13.773438 111.421875 12.839844 C 111.421875 12.019531 110.949219 11.652344 110.339844 11.367188 C 109.855469 11.136719 108.933594 10.945312 108.933594 10.460938 C 108.933594 10.03125 109.285156 9.902344 109.664062 9.902344 C 110.046875 9.902344 110.242188 10.058594 110.34375 10.304688 L 111.289062 10.125 C 111.09375 9.539062 110.464844 9.066406 109.664062 9.066406 C 108.804688 9.066406 107.980469 9.515625 107.980469 10.460938 C 107.980469 11.203125 108.453125 11.496094 108.921875 11.722656 C 109.679688 12.082031 110.46875 12.171875 110.46875 12.835938 C 110.46875 13.21875 110.195312 13.5 109.667969 13.5 Z M 109.667969 13.5 " fill-opacity="1" fill-rule="nonzero"/><path fill="#ffffff" d="M 113.011719 12.210938 C 113.984375 12.210938 115.507812 12.1875 115.507812 10.699219 C 115.507812 9.207031 113.984375 9.191406 113.011719 9.191406 L 112.082031 9.191406 L 112.082031 14.238281 L 113.011719 14.238281 Z M 113.011719 10.023438 L 113.257812 10.023438 C 114.085938 10.023438 114.558594 10.09375 114.558594 10.699219 C 114.558594 11.308594 114.085938 11.378906 113.257812 11.378906 L 113.011719 11.378906 Z M 113.011719 10.023438 " fill-opacity="1" fill-rule="nonzero"/><path fill="#ffffff" d="M 116.320312 9.191406 L 117.25 9.191406 L 117.25 14.238281 L 116.320312 14.238281 Z M 116.320312 9.191406 " fill-opacity="1" fill-rule="nonzero"/><path fill="#ffffff" d="M 119.078125 12.222656 C 119.15625 12.222656 119.28125 12.226562 119.394531 12.226562 C 119.476562 12.226562 119.550781 12.222656 119.597656 12.21875 L 120.703125 14.242188 L 121.765625 14.242188 L 120.515625 12.066406 C 121.230469 11.878906 121.578125 11.402344 121.578125 10.703125 C 121.578125 9.214844 120.050781 9.191406 119.082031 9.191406 L 118.152344 9.191406 L 118.152344 14.242188 L 119.082031 14.242188 L 119.082031 12.222656 Z M 119.078125 10.023438 L 119.324219 10.023438 C 120.148438 10.023438 120.625 10.101562 120.625 10.703125 C 120.625 11.308594 120.148438 11.378906 119.324219 11.378906 L 119.078125 11.378906 Z M 119.078125 10.023438 " fill-opacity="1" fill-rule="nonzero"/><path fill="#ffffff" d="M 125.800781 13.40625 L 123.320312 13.40625 L 123.320312 12.070312 L 125.582031 12.070312 L 125.582031 11.234375 L 123.320312 11.234375 L 123.320312 10.023438 L 125.800781 10.023438 L 125.800781 9.191406 L 122.394531 9.191406 L 122.394531 14.238281 L 125.800781 14.238281 Z M 125.800781 13.40625 " fill-opacity="1" fill-rule="nonzero"/><path fill="#ffffff" d="M 55.976562 68.339844 C 55.820312 68.292969 55.675781 68.246094 55.53125 68.199219 C 55.390625 68.152344 55.25 68.105469 55.109375 68.054688 C 54.585938 67.878906 54.140625 67.679688 53.769531 67.453125 C 53.398438 67.230469 53.214844 66.886719 53.214844 66.429688 C 53.234375 66.050781 53.390625 65.746094 53.671875 65.515625 C 53.957031 65.285156 54.285156 65.171875 54.648438 65.171875 C 55.109375 65.171875 55.460938 65.328125 55.703125 65.648438 C 55.941406 65.96875 56.121094 66.316406 56.242188 66.691406 C 56.253906 66.714844 56.265625 66.746094 56.277344 66.78125 L 58.433594 66.414062 C 58.277344 65.382812 57.875 64.582031 57.214844 64.011719 C 56.554688 63.4375 55.699219 63.148438 54.648438 63.148438 C 53.65625 63.148438 52.78125 63.503906 52.027344 64.207031 C 51.273438 64.910156 50.894531 65.765625 50.894531 66.78125 C 50.894531 67.734375 51.183594 68.429688 51.761719 68.855469 C 52.339844 69.277344 52.976562 69.613281 53.671875 69.863281 C 53.789062 69.914062 53.910156 69.957031 54.027344 69.996094 C 54.144531 70.039062 54.265625 70.074219 54.382812 70.109375 C 54.9375 70.296875 55.417969 70.515625 55.824219 70.757812 C 56.234375 71 56.4375 71.363281 56.4375 71.847656 C 56.4375 72.285156 56.273438 72.636719 55.949219 72.910156 C 55.625 73.179688 55.257812 73.316406 54.84375 73.316406 C 54.242188 73.316406 53.796875 73.160156 53.515625 72.847656 C 53.234375 72.535156 53.023438 72.109375 52.894531 71.566406 L 50.523438 71.9375 C 50.59375 72.246094 50.675781 72.546875 50.773438 72.847656 C 50.867188 73.148438 51 73.433594 51.179688 73.707031 C 51.507812 74.191406 51.9375 74.558594 52.460938 74.804688 C 52.988281 75.054688 53.539062 75.207031 54.117188 75.265625 C 54.210938 75.277344 54.304688 75.289062 54.394531 75.292969 C 54.480469 75.296875 54.570312 75.304688 54.667969 75.304688 C 55.730469 75.304688 56.671875 74.992188 57.492188 74.371094 C 58.3125 73.753906 58.722656 72.871094 58.722656 71.726562 C 58.722656 70.652344 58.4375 69.878906 57.863281 69.414062 C 57.289062 68.945312 56.660156 68.585938 55.976562 68.339844 Z M 55.976562 68.339844 " fill-opacity="1" fill-rule="nonzero"/><path fill="#ffffff" d="M 58.4375 66.410156 L 58.433594 66.410156 C 58.433594 66.417969 58.4375 66.421875 58.4375 66.429688 Z M 58.4375 66.410156 " fill-opacity="1" fill-rule="nonzero"/><path fill="#ffffff" d="M 62.886719 69.84375 C 62.953125 69.40625 63.101562 69.007812 63.328125 68.640625 C 63.550781 68.277344 63.90625 68.09375 64.390625 68.09375 C 64.863281 68.09375 65.1875 68.25 65.363281 68.5625 C 65.542969 68.875 65.671875 69.21875 65.753906 69.597656 C 65.765625 69.621094 65.777344 69.644531 65.78125 69.667969 C 65.789062 69.691406 65.792969 69.710938 65.792969 69.722656 L 67.808594 69.386719 C 67.59375 68.511719 67.195312 67.808594 66.601562 67.269531 C 66.011719 66.730469 65.253906 66.464844 64.316406 66.464844 C 63.082031 66.464844 62.132812 66.917969 61.476562 67.828125 C 60.824219 68.738281 60.496094 69.757812 60.496094 70.890625 C 60.496094 72.070312 60.8125 73.101562 61.445312 73.980469 C 62.074219 74.863281 63.03125 75.300781 64.316406 75.300781 C 65.265625 75.300781 66.03125 75.035156 66.613281 74.503906 C 67.195312 73.972656 67.59375 73.265625 67.808594 72.378906 L 65.792969 72.023438 L 65.792969 72.042969 C 65.792969 72.066406 65.789062 72.089844 65.78125 72.113281 C 65.773438 72.136719 65.765625 72.160156 65.753906 72.183594 C 65.671875 72.5625 65.539062 72.90625 65.363281 73.222656 C 65.1875 73.53125 64.863281 73.6875 64.390625 73.6875 C 63.902344 73.6875 63.550781 73.503906 63.328125 73.140625 C 63.101562 72.773438 62.957031 72.371094 62.886719 71.933594 C 62.863281 71.746094 62.84375 71.566406 62.832031 71.386719 C 62.820312 71.207031 62.8125 71.042969 62.8125 70.890625 C 62.8125 70.734375 62.820312 70.570312 62.832031 70.390625 C 62.84375 70.21875 62.863281 70.035156 62.886719 69.84375 Z M 62.886719 69.84375 " fill-opacity="1" fill-rule="nonzero"/><path fill="#ffffff" d="M 73.8125 66.464844 C 73.375 66.5 72.960938 66.621094 72.570312 66.820312 C 72.183594 67.019531 71.816406 67.25 71.472656 67.511719 L 71.472656 63.3125 L 69.226562 63.3125 L 69.226562 75.125 L 71.472656 75.125 L 71.472656 69.191406 C 71.496094 69.15625 71.527344 69.125 71.5625 69.09375 C 71.597656 69.066406 71.628906 69.03125 71.652344 68.996094 C 71.839844 68.808594 72.046875 68.640625 72.273438 68.484375 C 72.496094 68.332031 72.742188 68.25 73.015625 68.25 C 73.371094 68.25 73.609375 68.371094 73.738281 68.605469 C 73.871094 68.84375 73.945312 69.109375 73.96875 69.402344 C 73.980469 69.472656 73.988281 69.550781 73.988281 69.625 C 73.988281 69.699219 73.988281 69.769531 73.988281 69.828125 L 73.988281 75.121094 L 76.21875 75.121094 L 76.21875 69.296875 C 76.21875 68.460938 76.046875 67.777344 75.699219 67.25 C 75.351562 66.726562 74.71875 66.464844 73.8125 66.464844 Z M 73.8125 66.464844 " fill-opacity="1" fill-rule="nonzero"/><path fill="#ffffff" d="M 91.226562 66.445312 L 91.226562 66.460938 C 90 66.460938 89.070312 66.917969 88.4375 67.835938 C 87.804688 68.75 87.488281 69.769531 87.488281 70.890625 C 87.488281 72.007812 87.804688 73.027344 88.4375 73.933594 C 89.070312 74.84375 90 75.300781 91.226562 75.300781 C 92.453125 75.300781 93.382812 74.847656 94.015625 73.945312 C 94.648438 73.042969 94.960938 72.023438 94.960938 70.890625 C 94.960938 69.765625 94.648438 68.75 94.015625 67.835938 C 93.382812 66.921875 92.453125 66.457031 91.226562 66.445312 Z M 92.589844 71.457031 C 92.578125 71.644531 92.554688 71.832031 92.519531 72.023438 C 92.457031 72.4375 92.328125 72.8125 92.128906 73.148438 C 91.929688 73.480469 91.617188 73.644531 91.191406 73.636719 L 91.191406 73.652344 C 90.765625 73.652344 90.453125 73.480469 90.253906 73.148438 C 90.054688 72.8125 89.921875 72.4375 89.863281 72.023438 C 89.828125 71.835938 89.804688 71.644531 89.796875 71.457031 C 89.78125 71.269531 89.777344 71.097656 89.777344 70.945312 C 89.777344 70.789062 89.785156 70.621094 89.796875 70.441406 C 89.804688 70.257812 89.824219 70.066406 89.847656 69.863281 C 89.917969 69.464844 90.054688 69.09375 90.253906 68.761719 C 90.457031 68.421875 90.769531 68.253906 91.191406 68.253906 C 91.617188 68.253906 91.929688 68.421875 92.132812 68.761719 C 92.328125 69.09375 92.464844 69.464844 92.539062 69.863281 C 92.5625 70.066406 92.578125 70.257812 92.589844 70.441406 C 92.605469 70.625 92.613281 70.792969 92.613281 70.945312 C 92.609375 71.097656 92.601562 71.265625 92.589844 71.457031 Z M 92.589844 71.457031 " fill-opacity="1" fill-rule="nonzero"/><path fill="#ffffff" d="M 96.984375 63.3125 L 99.234375 63.3125 L 99.234375 75.121094 L 96.984375 75.121094 Z M 96.984375 63.3125 " fill-opacity="1" fill-rule="nonzero"/><path fill="#ffffff" d="M 107.464844 67.550781 C 107.566406 66.867188 107.789062 66.238281 108.128906 65.667969 C 108.460938 65.09375 109.015625 64.804688 109.785156 64.804688 C 110.371094 64.804688 110.820312 65.015625 111.121094 65.4375 C 111.421875 65.851562 111.644531 66.3125 111.785156 66.808594 C 111.808594 66.878906 111.828125 66.945312 111.847656 67.011719 C 111.863281 67.074219 111.878906 67.136719 111.890625 67.195312 L 114.121094 66.914062 C 114.0625 66.59375 113.988281 66.28125 113.902344 65.976562 C 113.8125 65.667969 113.6875 65.367188 113.519531 65.074219 C 113.132812 64.378906 112.585938 63.859375 111.882812 63.523438 C 111.179688 63.1875 110.449219 63.019531 109.679688 63.019531 C 107.894531 63.019531 106.636719 63.644531 105.90625 64.890625 C 105.175781 66.132812 104.8125 67.542969 104.8125 69.113281 C 104.8125 70.679688 105.179688 72.082031 105.917969 73.316406 C 106.652344 74.554688 107.910156 75.167969 109.679688 75.167969 C 110.96875 75.167969 111.972656 74.820312 112.699219 74.132812 C 113.425781 73.4375 113.902344 72.488281 114.125 71.273438 L 111.894531 70.972656 L 111.894531 70.988281 C 111.878906 71.058594 111.867188 71.136719 111.847656 71.207031 C 111.832031 71.285156 111.808594 71.359375 111.785156 71.429688 C 111.644531 71.929688 111.421875 72.382812 111.121094 72.796875 C 110.820312 73.207031 110.375 73.414062 109.785156 73.414062 C 109.019531 73.414062 108.464844 73.128906 108.128906 72.554688 C 107.789062 71.984375 107.570312 71.355469 107.464844 70.667969 C 107.417969 70.398438 107.386719 70.128906 107.375 69.863281 C 107.363281 69.597656 107.355469 69.347656 107.355469 69.109375 C 107.355469 68.875 107.363281 68.625 107.375 68.359375 C 107.386719 68.089844 107.414062 67.824219 107.464844 67.550781 Z M 107.464844 67.550781 " fill-opacity="1" fill-rule="nonzero"/><path fill="#ffffff" d="M 129.984375 66.328125 C 129.949219 66.328125 129.914062 66.328125 129.878906 66.328125 C 129.84375 66.328125 129.808594 66.328125 129.773438 66.328125 C 129.203125 66.328125 128.726562 66.492188 128.339844 66.816406 C 127.949219 67.144531 127.585938 67.5 127.257812 67.886719 C 127.246094 67.910156 127.230469 67.933594 127.214844 67.949219 C 127.195312 67.96875 127.179688 67.976562 127.167969 67.976562 L 127.167969 66.488281 L 124.921875 66.488281 L 124.921875 74.988281 L 127.167969 74.988281 L 127.167969 71.625 C 127.167969 71.527344 127.171875 71.433594 127.179688 71.332031 C 127.183594 71.230469 127.195312 71.132812 127.207031 71.039062 C 127.285156 70.402344 127.511719 69.816406 127.875 69.285156 C 128.242188 68.757812 128.792969 68.488281 129.523438 68.488281 C 129.582031 68.488281 129.640625 68.492188 129.691406 68.496094 C 129.746094 68.503906 129.800781 68.507812 129.859375 68.507812 C 129.90625 68.519531 129.960938 68.527344 130.019531 68.535156 C 130.078125 68.539062 130.128906 68.539062 130.175781 68.539062 L 130.175781 66.367188 C 130.144531 66.355469 130.105469 66.34375 130.070312 66.339844 C 130.039062 66.332031 130.011719 66.328125 129.984375 66.328125 Z M 129.984375 66.328125 " fill-opacity="1" fill-rule="nonzero"/><g clip-path="url(#dab41f1cbe)"><path fill="#ffffff" d="M 138.660156 69.996094 C 138.625 69.582031 138.550781 69.175781 138.441406 68.773438 C 138.328125 68.375 138.15625 68.007812 137.917969 67.675781 C 137.621094 67.261719 137.261719 66.945312 136.832031 66.71875 C 136.398438 66.496094 135.921875 66.382812 135.402344 66.382812 C 135.074219 66.394531 134.785156 66.453125 134.535156 66.5625 C 134.289062 66.667969 134.050781 66.8125 133.828125 67.003906 C 133.765625 67.039062 133.710938 67.078125 133.660156 67.128906 C 133.609375 67.175781 133.550781 67.214844 133.492188 67.253906 L 133.492188 66.492188 L 131.242188 66.492188 L 131.242188 78.5 L 133.492188 78.5 L 133.492188 74.386719 C 133.796875 74.632812 134.121094 74.828125 134.457031 74.964844 C 134.792969 75.101562 135.160156 75.167969 135.5625 75.167969 C 136.035156 75.167969 136.476562 75.054688 136.882812 74.824219 C 137.292969 74.589844 137.636719 74.296875 137.921875 73.929688 C 138.132812 73.644531 138.296875 73.324219 138.414062 72.960938 C 138.53125 72.601562 138.609375 72.242188 138.648438 71.875 C 138.667969 71.730469 138.683594 71.589844 138.691406 71.449219 C 138.695312 71.304688 138.699219 71.164062 138.699219 71.027344 C 138.699219 70.859375 138.695312 70.6875 138.691406 70.511719 C 138.679688 70.335938 138.675781 70.164062 138.660156 69.996094 Z M 136.414062 71.128906 C 136.414062 71.222656 136.40625 71.324219 136.394531 71.429688 C 136.359375 71.914062 136.242188 72.359375 136.039062 72.757812 C 135.839844 73.15625 135.4375 73.359375 134.835938 73.359375 C 134.542969 73.359375 134.285156 73.277344 134.066406 73.109375 C 133.847656 72.949219 133.65625 72.753906 133.492188 72.527344 L 133.492188 69.269531 C 133.667969 68.996094 133.875 68.769531 134.109375 68.578125 C 134.347656 68.390625 134.632812 68.296875 134.976562 68.296875 C 135.402344 68.296875 135.714844 68.460938 135.914062 68.792969 C 136.117188 69.125 136.25 69.484375 136.324219 69.875 C 136.359375 70.050781 136.382812 70.222656 136.394531 70.386719 C 136.40625 70.550781 136.414062 70.707031 136.414062 70.847656 C 136.414062 70.941406 136.414062 71.03125 136.414062 71.128906 Z M 136.414062 71.128906 " fill-opacity="1" fill-rule="nonzero"/></g><path fill="#ffffff" d="M 144.242188 66.3125 L 144.242188 66.328125 C 143.015625 66.328125 142.085938 66.785156 141.457031 67.703125 C 140.824219 68.617188 140.507812 69.636719 140.507812 70.757812 C 140.507812 71.878906 140.824219 72.894531 141.457031 73.804688 C 142.085938 74.714844 143.015625 75.167969 144.242188 75.167969 C 145.472656 75.167969 146.402344 74.71875 147.035156 73.8125 C 147.664062 72.910156 147.980469 71.894531 147.980469 70.757812 C 147.980469 69.636719 147.664062 68.617188 147.035156 67.703125 C 146.402344 66.785156 145.472656 66.328125 144.242188 66.3125 Z M 145.609375 71.324219 C 145.597656 71.511719 145.574219 71.703125 145.539062 71.890625 C 145.476562 72.304688 145.347656 72.679688 145.148438 73.015625 C 144.945312 73.351562 144.632812 73.511719 144.210938 73.503906 L 144.210938 73.519531 C 143.785156 73.519531 143.472656 73.351562 143.273438 73.015625 C 143.074219 72.679688 142.941406 72.304688 142.882812 71.890625 C 142.847656 71.699219 142.820312 71.511719 142.8125 71.324219 C 142.800781 71.132812 142.792969 70.964844 142.792969 70.8125 C 142.792969 70.65625 142.800781 70.488281 142.8125 70.308594 C 142.824219 70.121094 142.84375 69.933594 142.863281 69.730469 C 142.933594 69.328125 143.074219 68.960938 143.273438 68.625 C 143.472656 68.289062 143.785156 68.117188 144.210938 68.117188 C 144.636719 68.117188 144.949219 68.289062 145.148438 68.625 C 145.351562 68.960938 145.484375 69.328125 145.554688 69.730469 C 145.582031 69.929688 145.597656 70.121094 145.613281 70.308594 C 145.625 70.492188 145.628906 70.660156 145.628906 70.8125 C 145.625 70.964844 145.621094 71.132812 145.609375 71.324219 Z M 145.609375 71.324219 " fill-opacity="1" fill-rule="nonzero"/><path fill="#ffffff" d="M 154.460938 66.328125 C 154.421875 66.328125 154.390625 66.328125 154.355469 66.328125 C 154.320312 66.328125 154.285156 66.328125 154.25 66.328125 C 153.683594 66.328125 153.203125 66.492188 152.8125 66.816406 C 152.425781 67.144531 152.0625 67.5 151.734375 67.886719 C 151.722656 67.910156 151.707031 67.933594 151.691406 67.949219 C 151.667969 67.96875 151.65625 67.976562 151.644531 67.976562 L 151.644531 66.488281 L 149.398438 66.488281 L 149.398438 74.988281 L 151.644531 74.988281 L 151.644531 71.625 C 151.644531 71.527344 151.648438 71.433594 151.652344 71.332031 C 151.660156 71.230469 151.667969 71.132812 151.679688 71.039062 C 151.761719 70.402344 151.988281 69.816406 152.351562 69.285156 C 152.71875 68.757812 153.265625 68.488281 153.996094 68.488281 C 154.054688 68.488281 154.113281 68.492188 154.167969 68.496094 C 154.222656 68.503906 154.273438 68.507812 154.335938 68.507812 C 154.382812 68.519531 154.433594 68.527344 154.496094 68.535156 C 154.554688 68.539062 154.605469 68.539062 154.652344 68.539062 L 154.652344 66.367188 C 154.617188 66.355469 154.582031 66.34375 154.542969 66.339844 C 154.511719 66.332031 154.484375 66.328125 154.460938 66.328125 Z M 154.460938 66.328125 " fill-opacity="1" fill-rule="nonzero"/><path fill="#ffffff" d="M 162.242188 74.351562 C 162.195312 74.136719 162.164062 73.925781 162.144531 73.707031 C 162.125 73.488281 162.117188 73.261719 162.117188 73.023438 L 162.117188 69.429688 C 162.117188 69.3125 162.113281 69.191406 162.105469 69.074219 C 162.101562 68.957031 162.097656 68.832031 162.097656 68.699219 C 162.078125 68.464844 162.027344 68.230469 161.957031 67.992188 C 161.886719 67.757812 161.773438 67.542969 161.621094 67.355469 C 161.386719 67.085938 161.09375 66.871094 160.753906 66.71875 C 160.414062 66.5625 160.058594 66.460938 159.691406 66.398438 C 159.546875 66.375 159.410156 66.355469 159.277344 66.34375 C 159.140625 66.332031 159.007812 66.328125 158.878906 66.328125 C 157.945312 66.328125 157.191406 66.488281 156.609375 66.8125 C 156.03125 67.140625 155.589844 67.761719 155.285156 68.683594 L 157.441406 69.039062 C 157.539062 68.660156 157.699219 68.398438 157.933594 68.25 C 158.160156 68.101562 158.460938 68.027344 158.824219 68.027344 C 159.308594 68.027344 159.605469 68.167969 159.71875 68.441406 C 159.832031 68.722656 159.890625 69.054688 159.890625 69.445312 C 159.628906 69.492188 159.355469 69.539062 159.066406 69.585938 C 158.773438 69.632812 158.480469 69.691406 158.171875 69.765625 C 157.355469 69.964844 156.609375 70.285156 155.933594 70.71875 C 155.253906 71.15625 154.914062 71.835938 154.914062 72.753906 C 154.914062 73.511719 155.203125 74.101562 155.78125 74.527344 C 156.359375 74.949219 156.996094 75.164062 157.691406 75.164062 C 158.058594 75.164062 158.382812 75.105469 158.667969 74.996094 C 158.949219 74.882812 159.234375 74.738281 159.515625 74.5625 C 159.585938 74.503906 159.664062 74.449219 159.75 74.390625 C 159.832031 74.339844 159.910156 74.285156 159.992188 74.226562 C 160.019531 74.296875 160.039062 74.363281 160.058594 74.429688 C 160.074219 74.496094 160.09375 74.558594 160.121094 74.613281 C 160.144531 74.6875 160.164062 74.753906 160.183594 74.820312 C 160.199219 74.882812 160.222656 74.941406 160.246094 74.988281 L 162.421875 74.988281 C 162.390625 74.890625 162.355469 74.792969 162.324219 74.6875 C 162.292969 74.582031 162.265625 74.46875 162.242188 74.351562 Z M 159.886719 72.421875 C 159.648438 72.71875 159.378906 72.957031 159.0625 73.148438 C 158.75 73.335938 158.398438 73.429688 158.007812 73.429688 C 157.785156 73.414062 157.609375 73.34375 157.488281 73.207031 C 157.363281 73.074219 157.300781 72.890625 157.300781 72.667969 C 157.300781 72.335938 157.453125 72.082031 157.761719 71.894531 C 158.066406 71.714844 158.40625 71.582031 158.769531 71.5 C 158.984375 71.453125 159.183594 71.414062 159.382812 71.382812 C 159.578125 71.351562 159.746094 71.320312 159.886719 71.285156 Z M 159.886719 72.421875 " fill-opacity="1" fill-rule="nonzero"/><path fill="#ffffff" d="M 166.296875 64.367188 L 164.046875 64.367188 L 164.046875 66.488281 L 163.003906 66.488281 L 163.003906 68.367188 L 164.046875 68.367188 L 164.046875 71.980469 C 164.046875 72.972656 164.238281 73.75 164.617188 74.320312 C 164.992188 74.882812 165.71875 75.167969 166.792969 75.167969 C 166.898438 75.167969 167.003906 75.15625 167.113281 75.140625 C 167.21875 75.121094 167.324219 75.105469 167.433594 75.097656 C 167.527344 75.074219 167.625 75.050781 167.730469 75.027344 C 167.839844 75.003906 167.945312 74.980469 168.050781 74.957031 L 168.050781 73.222656 C 168.003906 73.234375 167.953125 73.246094 167.898438 73.265625 C 167.847656 73.285156 167.792969 73.300781 167.730469 73.308594 C 167.625 73.332031 167.523438 73.351562 167.421875 73.371094 C 167.324219 73.390625 167.214844 73.398438 167.097656 73.398438 C 166.753906 73.375 166.539062 73.242188 166.449219 73.011719 C 166.359375 72.773438 166.3125 72.511719 166.300781 72.230469 C 166.300781 72.207031 166.300781 72.183594 166.300781 72.160156 C 166.300781 72.136719 166.300781 72.105469 166.300781 72.070312 L 166.300781 68.371094 L 168.050781 68.371094 L 168.050781 66.492188 L 166.300781 66.492188 L 166.300781 64.367188 Z M 166.296875 64.367188 " fill-opacity="1" fill-rule="nonzero"/><path fill="#ffffff" d="M 168.863281 66.488281 L 171.113281 66.488281 L 171.113281 74.988281 L 168.863281 74.988281 Z M 168.863281 66.488281 " fill-opacity="1" fill-rule="nonzero"/><path fill="#ffffff" d="M 168.863281 63.179688 L 171.113281 63.179688 L 171.113281 65.25 L 168.863281 65.25 Z M 168.863281 63.179688 " fill-opacity="1" fill-rule="nonzero"/><path fill="#ffffff" d="M 176.90625 66.3125 L 176.90625 66.328125 C 175.679688 66.328125 174.75 66.785156 174.117188 67.703125 C 173.484375 68.617188 173.167969 69.636719 173.167969 70.757812 C 173.167969 71.878906 173.484375 72.894531 174.117188 73.804688 C 174.75 74.714844 175.679688 75.167969 176.90625 75.167969 C 178.136719 75.167969 179.0625 74.71875 179.695312 73.8125 C 180.328125 72.910156 180.644531 71.894531 180.644531 70.757812 C 180.644531 69.636719 180.328125 68.617188 179.695312 67.703125 C 179.066406 66.785156 178.136719 66.328125 176.90625 66.3125 Z M 178.269531 71.324219 C 178.257812 71.511719 178.234375 71.703125 178.199219 71.890625 C 178.140625 72.304688 178.011719 72.679688 177.808594 73.015625 C 177.609375 73.351562 177.300781 73.511719 176.875 73.503906 L 176.875 73.519531 C 176.445312 73.519531 176.132812 73.351562 175.933594 73.015625 C 175.734375 72.679688 175.605469 72.304688 175.546875 71.890625 C 175.507812 71.699219 175.484375 71.511719 175.476562 71.324219 C 175.460938 71.132812 175.457031 70.964844 175.457031 70.8125 C 175.457031 70.65625 175.460938 70.488281 175.476562 70.308594 C 175.488281 70.125 175.503906 69.933594 175.527344 69.730469 C 175.597656 69.328125 175.734375 68.960938 175.933594 68.625 C 176.132812 68.289062 176.449219 68.117188 176.875 68.117188 C 177.300781 68.117188 177.609375 68.289062 177.808594 68.625 C 178.011719 68.960938 178.148438 69.328125 178.21875 69.730469 C 178.242188 69.929688 178.261719 70.121094 178.273438 70.308594 C 178.285156 70.492188 178.292969 70.660156 178.292969 70.8125 C 178.289062 70.964844 178.285156 71.132812 178.269531 71.324219 Z M 178.269531 71.324219 " fill-opacity="1" fill-rule="nonzero"/><path fill="#ffffff" d="M 187.273438 66.328125 C 186.835938 66.367188 186.421875 66.484375 186.035156 66.683594 C 185.640625 66.886719 185.277344 67.113281 184.933594 67.375 L 184.933594 66.488281 L 182.683594 66.488281 L 182.683594 74.988281 L 184.933594 74.988281 L 184.933594 69.074219 C 184.957031 69.050781 184.980469 69.03125 185 69.011719 C 185.015625 68.992188 185.035156 68.972656 185.0625 68.949219 C 185.25 68.75 185.464844 68.566406 185.699219 68.410156 C 185.933594 68.25 186.195312 68.167969 186.476562 68.167969 C 186.832031 68.167969 187.074219 68.289062 187.203125 68.535156 C 187.332031 68.773438 187.410156 69.035156 187.433594 69.320312 C 187.445312 69.390625 187.449219 69.460938 187.449219 69.523438 C 187.449219 69.589844 187.449219 69.644531 187.449219 69.691406 L 187.449219 74.988281 L 189.679688 74.988281 L 189.679688 69.160156 C 189.679688 68.320312 189.507812 67.640625 189.160156 67.117188 C 188.808594 66.59375 188.179688 66.328125 187.273438 66.328125 Z M 187.273438 66.328125 " fill-opacity="1" fill-rule="nonzero"/><g clip-path="url(#f3ef4ce315)"><path fill="#ffffff" d="M 192.835938 48.011719 C 192.832031 47.9375 192.773438 47.859375 192.738281 47.785156 C 192.671875 47.824219 192.613281 47.863281 192.550781 47.898438 C 192.472656 47.949219 192.390625 48 192.3125 48.046875 C 192.253906 47.949219 192.164062 47.855469 192.144531 47.75 C 192.109375 47.566406 192.128906 47.371094 192.101562 47.191406 C 192.085938 47.089844 192.023438 46.976562 191.949219 46.921875 C 191.914062 46.898438 191.78125 46.980469 191.707031 47.039062 C 191.511719 47.195312 191.339844 47.386719 191.136719 47.539062 C 189.949219 48.433594 188.859375 49.460938 187.550781 50.191406 C 186.9375 50.53125 186.332031 50.917969 185.675781 51.15625 C 184.878906 51.441406 184.058594 51.664062 183.183594 51.59375 C 182.542969 51.535156 181.640625 51 181.636719 50.226562 C 181.636719 50.003906 181.511719 49.785156 181.472656 49.558594 C 181.355469 48.890625 181.347656 48.53125 181.921875 48.3125 C 182.496094 48.09375 183.039062 47.816406 183.597656 47.5625 C 183.648438 47.542969 183.695312 47.511719 183.746094 47.488281 C 184.121094 47.28125 184.496094 47.074219 184.871094 46.875 C 185.246094 46.6875 185.628906 46.519531 185.996094 46.328125 C 186.273438 46.191406 186.546875 46.046875 186.800781 45.882812 C 187.378906 45.511719 187.941406 45.128906 188.503906 44.753906 C 188.734375 44.601562 188.976562 44.460938 189.179688 44.28125 C 189.734375 43.78125 190.269531 43.261719 190.808594 42.742188 C 190.96875 42.582031 191.128906 42.40625 191.253906 42.21875 C 191.445312 41.949219 191.601562 41.65625 191.78125 41.378906 C 192.121094 40.855469 192.390625 40.292969 192.453125 39.675781 C 192.511719 39.121094 192.46875 38.550781 192.449219 37.988281 C 192.445312 37.863281 192.394531 37.722656 192.320312 37.621094 C 192.074219 37.28125 191.804688 36.960938 191.542969 36.636719 C 191.40625 36.476562 191.285156 36.285156 191.113281 36.183594 C 190.636719 35.90625 190.15625 35.632812 189.5625 35.695312 C 189.234375 35.726562 188.894531 35.667969 188.566406 35.707031 C 188.109375 35.761719 187.648438 35.835938 187.207031 35.960938 C 186.773438 36.078125 186.367188 36.304688 185.933594 36.417969 C 185.1875 36.605469 184.574219 37.050781 183.9375 37.429688 C 183.261719 37.824219 182.628906 38.328125 182.039062 38.847656 C 181.207031 39.585938 180.425781 40.375 179.628906 41.152344 C 178.84375 41.917969 178.199219 42.792969 177.652344 43.738281 C 177.152344 44.59375 176.78125 45.496094 176.550781 46.453125 C 176.515625 46.597656 176.40625 46.75 176.289062 46.847656 C 175.734375 47.296875 175.164062 47.730469 174.59375 48.167969 C 173.972656 48.640625 173.367188 49.144531 172.71875 49.574219 C 172.03125 50.027344 171.300781 50.417969 170.523438 50.710938 C 169.714844 51.007812 169.273438 50.785156 169.265625 49.929688 C 169.253906 49.304688 169.320312 48.667969 169.421875 48.050781 C 169.503906 47.566406 169.675781 47.09375 169.851562 46.632812 C 170.035156 46.152344 170.261719 45.691406 170.480469 45.226562 C 170.785156 44.582031 171.089844 43.9375 171.410156 43.296875 C 171.558594 43.003906 171.742188 42.730469 171.910156 42.449219 C 172.109375 42.109375 172.3125 41.769531 172.511719 41.429688 C 172.808594 40.929688 173.09375 40.421875 173.421875 39.945312 C 173.515625 39.8125 173.742188 39.6875 173.898438 39.699219 C 174.65625 39.730469 175.417969 39.769531 176.171875 39.894531 C 176.625 39.96875 177.011719 39.890625 177.335938 39.488281 C 177.511719 39.277344 177.671875 39.058594 177.835938 38.835938 C 178.171875 38.386719 178.523438 37.949219 178.84375 37.488281 C 179.230469 36.929688 179.59375 36.351562 179.960938 35.78125 C 180.128906 35.519531 180.289062 35.257812 180.4375 34.988281 C 180.601562 34.675781 180.527344 34.558594 180.164062 34.519531 C 180.097656 34.511719 180.003906 34.527344 179.972656 34.492188 C 179.894531 34.40625 179.78125 34.289062 179.789062 34.195312 C 179.828125 33.746094 179.765625 33.664062 179.316406 33.636719 C 179.195312 33.628906 179.074219 33.621094 178.960938 33.578125 C 178.894531 33.554688 178.808594 33.449219 178.820312 33.394531 C 178.855469 33.214844 178.890625 33.015625 178.996094 32.871094 C 179.539062 32.125 180.101562 31.398438 180.660156 30.660156 C 180.945312 30.277344 180.882812 30.070312 180.476562 29.804688 C 180.335938 29.714844 180.1875 29.578125 180.136719 29.429688 C 180.011719 29.078125 179.769531 28.941406 179.429688 28.851562 C 178.902344 28.710938 178.390625 28.78125 177.855469 28.859375 C 177.234375 28.941406 176.714844 29.214844 176.273438 29.613281 C 175.847656 29.992188 175.453125 30.414062 175.113281 30.871094 C 174.644531 31.484375 174.1875 32.113281 173.832031 32.789062 C 173.625 33.1875 173.378906 33.3125 172.984375 33.308594 C 172.195312 33.300781 171.410156 33.296875 170.625 33.3125 C 170.238281 33.324219 169.839844 33.335938 169.476562 33.445312 C 168.765625 33.644531 168.074219 33.898438 167.476562 34.367188 C 167.34375 34.46875 167.128906 34.503906 166.949219 34.507812 C 166.65625 34.515625 166.582031 34.398438 166.648438 34.109375 C 166.707031 33.84375 166.613281 33.695312 166.335938 33.648438 C 166.191406 33.628906 166.050781 33.632812 165.90625 33.617188 C 165.710938 33.589844 165.597656 33.496094 165.675781 33.277344 C 165.726562 33.144531 165.75 32.992188 165.832031 32.882812 C 166.386719 32.128906 166.957031 31.386719 167.515625 30.644531 C 167.773438 30.300781 167.710938 30.074219 167.359375 29.824219 C 167.191406 29.707031 167.078125 29.511719 166.941406 29.347656 C 166.828125 29.21875 166.734375 29.015625 166.597656 28.976562 C 166.195312 28.867188 165.769531 28.734375 165.371094 28.773438 C 164.753906 28.835938 164.101562 28.851562 163.578125 29.285156 C 163.140625 29.652344 162.667969 29.988281 162.289062 30.410156 C 161.878906 30.875 161.546875 31.417969 161.191406 31.9375 C 160.996094 32.226562 160.773438 32.515625 160.648438 32.839844 C 160.511719 33.191406 160.277344 33.304688 159.9375 33.308594 C 159.507812 33.308594 159.074219 33.308594 158.644531 33.308594 C 157.640625 33.3125 156.640625 33.277344 155.667969 33.652344 C 155.203125 33.828125 154.785156 34.054688 154.402344 34.339844 C 153.796875 34.796875 153.417969 35.457031 152.984375 36.066406 C 152.792969 36.332031 152.628906 36.625 152.457031 36.90625 C 152.125 37.441406 151.835938 38 151.730469 38.628906 C 151.664062 39.011719 151.9375 39.25 152.296875 39.113281 C 152.476562 39.050781 152.546875 39.085938 152.570312 39.261719 C 152.582031 39.339844 152.585938 39.417969 152.605469 39.492188 C 152.695312 39.832031 152.777344 39.847656 153.113281 39.761719 C 153.867188 39.566406 154.636719 39.5 155.417969 39.566406 C 155.707031 39.59375 155.773438 39.792969 155.601562 40.03125 C 155.160156 40.640625 154.734375 41.257812 154.285156 41.855469 C 153.691406 42.636719 153.097656 43.414062 152.460938 44.160156 C 151.851562 44.875 151.1875 45.539062 150.546875 46.226562 C 150.253906 46.550781 150 46.929688 149.660156 47.203125 C 148.371094 48.234375 147.144531 49.355469 145.703125 50.179688 C 145.078125 50.535156 144.460938 50.917969 143.796875 51.160156 C 143.003906 51.449219 142.179688 51.667969 141.300781 51.59375 C 140.679688 51.535156 139.78125 50.996094 139.773438 50.246094 C 139.769531 50.007812 139.667969 49.777344 139.597656 49.546875 C 139.46875 49.152344 139.53125 48.609375 139.78125 48.472656 C 140.296875 48.183594 140.824219 47.917969 141.359375 47.664062 C 141.773438 47.46875 142.21875 47.324219 142.625 47.113281 C 143.246094 46.792969 143.859375 46.449219 144.464844 46.09375 C 145.21875 45.644531 145.964844 45.179688 146.703125 44.707031 C 146.941406 44.554688 147.167969 44.378906 147.386719 44.191406 C 147.746094 43.875 148.109375 43.554688 148.449219 43.210938 C 148.804688 42.855469 149.144531 42.480469 149.460938 42.089844 C 149.640625 41.875 149.792969 41.625 149.917969 41.367188 C 150.15625 40.875 150.441406 40.386719 150.558594 39.863281 C 150.675781 39.335938 150.613281 38.765625 150.617188 38.210938 C 150.621094 37.914062 150.523438 37.65625 150.308594 37.429688 C 150.097656 37.210938 149.917969 36.957031 149.730469 36.714844 C 149.203125 36.039062 148.539062 35.652344 147.65625 35.703125 C 147.46875 35.710938 147.28125 35.71875 147.09375 35.699219 C 146.214844 35.609375 145.410156 35.914062 144.601562 36.171875 C 144.226562 36.292969 143.839844 36.417969 143.5 36.613281 C 142.730469 37.058594 141.949219 37.5 141.242188 38.03125 C 140.328125 38.722656 139.441406 39.453125 138.617188 40.242188 C 137.699219 41.113281 136.882812 42.074219 136.164062 43.128906 C 135.550781 44.027344 135.144531 45.011719 134.796875 46.015625 C 134.667969 46.382812 134.449219 46.621094 134.183594 46.847656 C 133.59375 47.34375 132.980469 47.8125 132.40625 48.328125 C 131.601562 49.054688 130.828125 49.804688 130.039062 50.546875 C 129.457031 51.097656 128.875 51.652344 128.289062 52.195312 C 128.207031 52.273438 128.074219 52.296875 127.972656 52.34375 C 127.960938 52.234375 127.929688 52.121094 127.953125 52.015625 C 127.96875 51.921875 128.039062 51.84375 128.09375 51.757812 C 128.265625 51.480469 128.445312 51.203125 128.617188 50.921875 C 128.941406 50.386719 129.25 49.839844 129.589844 49.316406 C 129.90625 48.816406 130.265625 48.339844 130.585938 47.84375 C 131.183594 46.921875 131.765625 45.988281 132.363281 45.0625 C 132.882812 44.257812 133.414062 43.464844 133.941406 42.664062 C 134.136719 42.363281 134.359375 42.066406 134.519531 41.746094 C 134.714844 41.34375 134.925781 40.933594 135.011719 40.5 C 135.097656 40.097656 135.058594 39.65625 135.023438 39.238281 C 134.972656 38.664062 134.738281 38.164062 134.292969 37.765625 C 134.15625 37.640625 134.042969 37.488281 133.9375 37.335938 C 133.617188 36.839844 132.894531 36.699219 132.441406 37.085938 C 132.019531 37.449219 131.601562 37.832031 131.234375 38.246094 C 130.550781 39.023438 129.929688 39.855469 129.230469 40.621094 C 128.367188 41.5625 127.46875 42.472656 126.554688 43.371094 C 125.945312 43.980469 125.3125 44.558594 124.664062 45.121094 C 123.988281 45.703125 123.285156 46.261719 122.578125 46.800781 C 122.125 47.148438 121.632812 47.445312 121.15625 47.761719 C 120.917969 47.921875 120.679688 48.082031 120.429688 48.222656 C 120.011719 48.460938 119.59375 48.707031 119.15625 48.90625 C 118.851562 49.042969 118.683594 48.902344 118.726562 48.578125 C 118.742188 48.417969 118.8125 48.261719 118.871094 48.109375 C 118.9375 47.9375 119.011719 47.765625 119.09375 47.601562 C 119.167969 47.449219 119.238281 47.269531 119.355469 47.160156 C 120.113281 46.46875 120.867188 45.777344 121.652344 45.117188 C 122.464844 44.4375 123.210938 43.699219 123.886719 42.886719 C 124.449219 42.210938 125.023438 41.539062 125.5625 40.84375 C 125.945312 40.363281 126.304688 39.859375 126.367188 39.21875 C 126.410156 38.765625 126.347656 38.332031 126.054688 37.96875 C 125.710938 37.539062 125.382812 37.09375 124.996094 36.703125 C 124.65625 36.363281 124.28125 36.078125 123.726562 36.085938 C 123.167969 36.089844 122.753906 36.371094 122.355469 36.667969 C 121.742188 37.113281 121.15625 37.605469 120.589844 38.113281 C 120.097656 38.554688 119.636719 39.03125 119.1875 39.515625 C 118.808594 39.929688 118.46875 40.378906 118.109375 40.808594 C 117.8125 41.164062 117.492188 41.503906 117.222656 41.875 C 116.75 42.539062 116.320312 43.234375 115.84375 43.890625 C 115.195312 44.785156 114.722656 45.757812 114.484375 46.839844 C 114.40625 47.203125 114.207031 47.453125 113.917969 47.660156 C 113.8125 47.738281 113.722656 47.835938 113.613281 47.914062 C 112.945312 48.378906 112.285156 48.855469 111.605469 49.304688 C 111.292969 49.507812 110.9375 49.640625 110.613281 49.824219 C 110.007812 50.167969 109.367188 50.179688 108.714844 50.042969 C 108.59375 50.015625 108.4375 49.863281 108.40625 49.742188 C 108.183594 48.765625 108.386719 47.84375 108.894531 47.007812 C 109.308594 46.332031 109.839844 45.738281 110.269531 45.070312 C 110.765625 44.296875 111.367188 43.585938 111.722656 42.71875 C 111.859375 42.386719 111.898438 42.085938 111.78125 41.761719 C 111.53125 41.054688 111.273438 40.355469 111 39.660156 C 110.914062 39.445312 111.007812 39.351562 111.164062 39.261719 C 111.421875 39.113281 111.671875 38.949219 111.9375 38.816406 C 112.179688 38.691406 112.28125 38.492188 112.332031 38.238281 C 112.464844 37.5625 112.089844 37.046875 111.761719 36.535156 C 111.535156 36.191406 111.183594 35.929688 110.929688 35.597656 C 110.652344 35.242188 110.265625 35.027344 109.875 34.960938 C 109.160156 34.839844 108.429688 34.839844 107.722656 35.128906 C 107.171875 35.351562 106.59375 35.492188 106.03125 35.691406 C 105.542969 35.859375 105.054688 36.03125 104.589844 36.25 C 103.933594 36.558594 103.292969 36.902344 102.65625 37.25 C 102.074219 37.5625 101.488281 37.863281 100.9375 38.226562 C 100.289062 38.65625 99.671875 39.136719 99.054688 39.621094 C 98.144531 40.347656 97.226562 41.074219 96.355469 41.847656 C 95.714844 42.421875 95.128906 43.054688 94.542969 43.683594 C 93.796875 44.488281 93.214844 45.386719 93.070312 46.507812 C 93.039062 46.773438 92.953125 47.03125 92.867188 47.28125 C 92.828125 47.398438 92.757812 47.53125 92.660156 47.605469 C 91.628906 48.378906 90.59375 49.148438 89.558594 49.914062 C 89.230469 50.15625 88.726562 50.191406 88.542969 49.976562 C 88.351562 49.761719 88.199219 49.515625 88.015625 49.292969 C 87.695312 48.90625 87.378906 48.515625 87.035156 48.144531 C 86.730469 47.820312 86.367188 47.542969 86.078125 47.203125 C 85.90625 47 85.804688 46.726562 85.972656 46.4375 C 86.222656 46.011719 86.472656 45.582031 86.714844 45.152344 C 87.03125 44.585938 87.339844 44.019531 87.65625 43.453125 C 87.816406 43.164062 87.964844 42.871094 88.136719 42.59375 C 88.460938 42.058594 88.8125 41.539062 89.125 41 C 89.460938 40.433594 89.761719 39.84375 90.082031 39.269531 C 90.242188 38.984375 90.414062 38.699219 90.582031 38.417969 C 90.90625 37.875 91.246094 37.332031 91.5625 36.78125 C 91.882812 36.214844 92.179688 35.636719 92.492188 35.070312 C 92.644531 34.792969 92.816406 34.523438 92.984375 34.25 C 93.175781 33.929688 93.367188 33.613281 93.558594 33.289062 C 93.75 32.945312 93.9375 32.601562 94.132812 32.257812 C 94.339844 31.882812 94.570312 31.519531 94.75 31.136719 C 94.953125 30.710938 95.128906 30.273438 95.289062 29.828125 C 95.511719 29.1875 95.78125 28.550781 95.902344 27.886719 C 96.082031 26.917969 96.078125 25.925781 95.945312 24.945312 C 95.921875 24.796875 95.859375 24.644531 95.773438 24.523438 C 95.492188 24.15625 95.167969 23.824219 94.914062 23.445312 C 94.515625 22.855469 93.941406 22.753906 93.421875 23.246094 C 93.214844 23.441406 93.035156 23.671875 92.882812 23.914062 C 92.496094 24.53125 92.132812 25.152344 91.761719 25.78125 C 91.605469 26.046875 91.453125 26.316406 91.304688 26.582031 C 90.9375 27.246094 90.574219 27.910156 90.207031 28.578125 C 90.03125 28.902344 89.847656 29.230469 89.679688 29.558594 C 89.496094 29.921875 89.335938 30.296875 89.15625 30.664062 C 89.007812 30.96875 88.847656 31.273438 88.695312 31.574219 C 88.496094 31.953125 88.28125 32.324219 88.097656 32.714844 C 87.773438 33.421875 87.46875 34.144531 87.152344 34.855469 C 86.996094 35.210938 86.828125 35.554688 86.664062 35.90625 C 86.476562 36.304688 86.269531 36.691406 86.109375 37.097656 C 85.765625 37.949219 85.503906 38.832031 84.828125 39.527344 C 84.300781 40.070312 83.832031 40.675781 83.367188 41.273438 C 82.902344 41.871094 82.476562 42.503906 82.011719 43.101562 C 81.757812 43.429688 81.492188 43.769531 81.171875 44.019531 C 80.769531 44.339844 80.277344 44.546875 79.875 44.863281 C 79.277344 45.335938 78.929688 45.980469 78.90625 46.746094 C 78.894531 47.199219 78.726562 47.503906 78.359375 47.730469 C 78.285156 47.773438 78.226562 47.84375 78.152344 47.894531 C 77.480469 48.367188 76.8125 48.855469 76.125 49.308594 C 75.804688 49.519531 75.441406 49.667969 75.105469 49.847656 C 74.507812 50.167969 73.875 50.1875 73.238281 50.042969 C 73.109375 50.015625 72.949219 49.84375 72.917969 49.714844 C 72.703125 48.746094 72.925781 47.835938 73.417969 47.011719 C 73.824219 46.335938 74.363281 45.738281 74.789062 45.070312 C 75.285156 44.296875 75.890625 43.589844 76.246094 42.722656 C 76.378906 42.394531 76.417969 42.089844 76.300781 41.761719 C 76.050781 41.070312 75.800781 40.378906 75.53125 39.695312 C 75.441406 39.472656 75.507812 39.363281 75.6875 39.265625 C 75.9375 39.125 76.175781 38.964844 76.429688 38.839844 C 76.714844 38.699219 76.820312 38.46875 76.863281 38.175781 C 76.960938 37.527344 76.582031 37.039062 76.28125 36.542969 C 76.105469 36.257812 75.816406 36.042969 75.609375 35.769531 C 75.292969 35.359375 74.882812 35.046875 74.398438 34.96875 C 73.679688 34.84375 72.949219 34.84375 72.242188 35.136719 C 71.703125 35.355469 71.132812 35.5 70.582031 35.691406 C 70.085938 35.867188 69.582031 36.03125 69.105469 36.257812 C 68.460938 36.558594 67.832031 36.902344 67.207031 37.242188 C 66.625 37.554688 66.035156 37.851562 65.484375 38.214844 C 64.832031 38.644531 64.210938 39.121094 63.601562 39.609375 C 62.664062 40.359375 61.714844 41.101562 60.832031 41.90625 C 60.121094 42.550781 59.488281 43.277344 58.839844 43.984375 C 58.277344 44.589844 57.839844 45.269531 57.6875 46.097656 C 57.65625 46.273438 57.617188 46.449219 57.570312 46.617188 C 57.351562 47.402344 57.367188 48.199219 57.507812 48.988281 C 57.644531 49.742188 57.738281 50.515625 58.101562 51.21875 C 58.253906 51.511719 58.402344 51.808594 58.511719 52.113281 C 58.753906 52.773438 59.195312 53.289062 59.632812 53.8125 C 60.0625 54.328125 60.582031 54.75 61.078125 55.195312 C 61.363281 55.453125 61.660156 55.578125 62.058594 55.585938 C 62.632812 55.59375 63.089844 55.296875 63.511719 55.015625 C 64.117188 54.609375 64.675781 54.113281 65.199219 53.597656 C 66.203125 52.605469 67.167969 51.574219 68.148438 50.558594 C 68.203125 50.503906 68.304688 50.4375 68.359375 50.457031 C 68.425781 50.476562 68.503906 50.585938 68.5 50.652344 C 68.496094 50.921875 68.5 51.191406 68.429688 51.445312 C 68.117188 52.539062 68.078125 53.625 68.519531 54.695312 C 68.605469 54.898438 68.746094 55.089844 68.890625 55.253906 C 69.074219 55.457031 69.304688 55.617188 69.496094 55.808594 C 70.039062 56.351562 71.210938 56.578125 71.898438 56.253906 C 72.335938 56.050781 72.78125 55.855469 73.199219 55.609375 C 73.710938 55.3125 74.230469 55.011719 74.691406 54.640625 C 75.390625 54.078125 76.054688 53.460938 76.714844 52.847656 C 77.359375 52.25 77.988281 51.628906 78.617188 51.011719 C 78.867188 50.765625 79.089844 50.484375 79.339844 50.234375 C 79.597656 49.980469 80.003906 50.097656 80.035156 50.453125 C 80.054688 50.65625 79.964844 50.875 79.902344 51.078125 C 79.851562 51.234375 79.761719 51.378906 79.707031 51.53125 C 79.527344 52.019531 79.363281 52.511719 79.183594 52.996094 C 79.054688 53.355469 78.910156 53.714844 78.769531 54.070312 C 78.5625 54.609375 78.328125 55.140625 78.144531 55.691406 C 77.945312 56.300781 77.792969 58.171875 77.621094 58.789062 C 77.53125 59.109375 77.316406 59.265625 76.988281 59.273438 C 76.859375 59.277344 76.726562 59.277344 76.59375 59.277344 C 67.480469 59.277344 59.730469 59.277344 50.617188 59.273438 C 50.375 59.273438 50.128906 59.273438 49.886719 59.28125 C 49.6875 59.285156 49.570312 59.386719 49.566406 59.585938 C 49.5625 60.039062 49.5625 60.492188 49.566406 60.949219 C 49.566406 61.164062 49.695312 61.265625 49.90625 61.269531 C 50.027344 61.273438 50.148438 61.273438 50.273438 61.273438 C 57.492188 61.273438 63.351562 61.273438 70.570312 61.273438 C 72.527344 61.273438 74.488281 61.269531 76.449219 61.273438 C 76.878906 61.273438 76.96875 61.363281 76.957031 61.738281 C 76.933594 62.609375 76.925781 62.234375 76.902344 63.109375 C 76.878906 64.011719 77.203125 64.84375 77.390625 65.707031 C 77.40625 65.777344 78.292969 68.148438 78.34375 68.203125 C 78.417969 68.289062 78.511719 68.511719 78.636719 68.796875 C 78.359375 69.449219 78.207031 70.144531 78.207031 70.890625 C 78.207031 72.011719 78.519531 73.027344 79.152344 73.9375 C 79.78125 74.847656 80.710938 75.300781 81.9375 75.300781 C 83.167969 75.300781 84.097656 74.851562 84.730469 73.945312 C 85.359375 73.042969 85.675781 72.023438 85.675781 70.890625 C 85.675781 69.898438 85.414062 68.988281 84.917969 68.160156 C 85.417969 67.648438 85.847656 67.199219 85.949219 67.074219 C 86.484375 66.429688 87.066406 65.527344 87.582031 64.871094 C 87.910156 64.445312 88.183594 63.980469 88.476562 63.527344 C 88.714844 63.160156 89.019531 61.71875 89.34375 61.417969 C 89.675781 61.105469 90.53125 61.246094 90.800781 61.246094 C 97.929688 61.253906 103.519531 61.269531 110.648438 61.273438 C 113.253906 61.273438 114.214844 61.273438 116.816406 61.273438 C 116.914062 61.273438 117.933594 61.265625 118.035156 61.269531 C 118.425781 61.285156 118.898438 61.246094 118.785156 61.628906 C 118.695312 61.945312 118.429688 62.257812 118.257812 62.695312 C 117.84375 63.417969 117.605469 64.085938 117.652344 64.703125 C 117.667969 64.933594 117.957031 65.890625 118.214844 66.65625 C 117.734375 66.886719 117.328125 67.230469 117.007812 67.703125 C 116.375 68.617188 116.058594 69.632812 116.058594 70.757812 C 116.058594 71.878906 116.375 72.890625 117.007812 73.800781 C 117.640625 74.710938 118.566406 75.167969 119.796875 75.167969 C 121.023438 75.167969 121.953125 74.714844 122.585938 73.8125 C 123.21875 72.910156 123.53125 71.890625 123.53125 70.757812 C 123.53125 69.636719 123.21875 68.617188 122.585938 67.703125 C 122.363281 67.382812 122.105469 67.121094 121.8125 66.914062 C 121.988281 66.652344 122.128906 66.441406 122.171875 66.371094 C 122.308594 66.132812 122.484375 65.921875 122.652344 65.703125 C 123.089844 65.117188 124.332031 63.15625 124.773438 62.574219 C 125.132812 62.101562 125.730469 61.273438 125.941406 61.273438 C 147.335938 61.273438 167.871094 61.273438 189.261719 61.273438 C 189.363281 61.273438 189.460938 61.269531 189.558594 61.269531 C 189.792969 61.265625 189.90625 61.152344 189.90625 60.917969 C 189.90625 60.496094 189.90625 60.078125 189.910156 59.65625 C 189.914062 59.386719 189.78125 59.269531 189.523438 59.277344 C 189.421875 59.28125 189.320312 59.277344 189.222656 59.277344 C 173.152344 59.277344 159.289062 59.277344 143.222656 59.277344 C 138.394531 59.277344 133.566406 59.277344 128.738281 59.273438 C 128.519531 59.273438 128.292969 59.273438 128.078125 59.234375 C 127.90625 59.203125 127.25 59.070312 127.398438 58.882812 C 127.714844 58.488281 128.566406 56.859375 128.898438 56.480469 C 129.320312 55.988281 129.765625 55.515625 130.191406 55.023438 C 130.542969 54.613281 130.855469 54.171875 131.214844 53.765625 C 132.066406 52.796875 132.925781 51.84375 133.800781 50.894531 C 133.945312 50.734375 134.148438 50.628906 134.324219 50.503906 C 134.464844 50.402344 134.554688 50.460938 134.589844 50.609375 C 134.617188 50.714844 134.625 50.828125 134.648438 50.9375 C 134.71875 51.304688 134.757812 51.683594 134.886719 52.035156 C 135.039062 52.46875 135.234375 52.890625 135.46875 53.289062 C 135.679688 53.652344 135.929688 54.011719 136.222656 54.316406 C 136.609375 54.71875 137.054688 55.070312 137.472656 55.441406 C 138.003906 55.914062 138.640625 56.253906 139.320312 56.328125 C 140.734375 56.480469 142.125 56.355469 143.457031 55.710938 C 144.191406 55.355469 144.898438 54.972656 145.546875 54.476562 C 145.761719 54.304688 145.988281 54.148438 146.203125 53.976562 C 146.578125 53.671875 146.972656 53.382812 147.328125 53.050781 C 147.851562 52.554688 148.355469 52.039062 148.859375 51.523438 C 149.207031 51.160156 149.527344 50.769531 149.875 50.402344 C 150.234375 50.023438 150.617188 49.652344 151 49.289062 C 151.058594 49.230469 151.171875 49.234375 151.265625 49.210938 C 151.269531 49.328125 151.304688 49.449219 151.273438 49.558594 C 151.101562 50.171875 150.84375 50.773438 150.746094 51.398438 C 150.644531 52.09375 150.660156 52.808594 150.667969 53.515625 C 150.671875 54.160156 150.972656 54.710938 151.386719 55.179688 C 151.714844 55.554688 152.117188 55.871094 152.480469 56.214844 C 153.222656 56.914062 154.125 56.875 155.003906 56.675781 C 155.515625 56.566406 156.003906 56.285156 156.472656 56.035156 C 157.03125 55.730469 157.597656 55.417969 158.101562 55.035156 C 158.890625 54.4375 159.632812 53.777344 160.386719 53.140625 C 160.722656 52.855469 161.050781 52.558594 161.359375 52.25 C 161.96875 51.632812 162.554688 50.988281 163.164062 50.378906 C 163.511719 50.03125 163.890625 49.726562 164.261719 49.402344 C 164.308594 49.355469 164.367188 49.324219 164.421875 49.285156 C 164.425781 49.355469 164.453125 49.4375 164.433594 49.503906 C 164.25 50.148438 163.984375 50.78125 163.898438 51.4375 C 163.796875 52.222656 163.789062 53.03125 163.863281 53.820312 C 163.898438 54.230469 164.121094 54.679688 164.386719 55.011719 C 164.761719 55.480469 165.242188 55.863281 165.703125 56.253906 C 165.925781 56.445312 166.183594 56.660156 166.457031 56.714844 C 167.457031 56.929688 168.40625 56.675781 169.3125 56.25 C 169.675781 56.078125 170.019531 55.847656 170.347656 55.613281 C 171.046875 55.117188 171.75 54.625 172.421875 54.089844 C 172.941406 53.683594 173.414062 53.226562 173.898438 52.78125 C 174.253906 52.460938 174.59375 52.132812 174.9375 51.8125 C 175.320312 51.453125 175.6875 51.074219 176.097656 50.746094 C 176.410156 50.496094 176.433594 50.53125 176.507812 50.9375 C 176.574219 51.296875 176.617188 51.664062 176.738281 52.003906 C 176.894531 52.445312 177.097656 52.882812 177.332031 53.289062 C 177.542969 53.652344 177.792969 54.011719 178.085938 54.3125 C 178.453125 54.703125 178.878906 55.042969 179.289062 55.390625 C 180 55.984375 180.789062 56.394531 181.746094 56.359375 C 182.410156 56.335938 183.09375 56.386719 183.726562 56.242188 C 184.597656 56.039062 185.46875 55.769531 186.222656 55.246094 C 186.921875 54.765625 187.65625 54.335938 188.300781 53.792969 C 189.101562 53.121094 189.847656 52.367188 190.585938 51.621094 C 191.191406 51.007812 191.761719 50.367188 192.332031 49.726562 C 192.527344 49.496094 192.742188 49.242188 192.824219 48.964844 C 192.910156 48.671875 192.847656 48.332031 192.835938 48.011719 Z M 182.375 44.917969 C 182.488281 44.347656 182.808594 43.898438 183.164062 43.457031 C 183.617188 42.898438 184.011719 42.28125 184.515625 41.773438 C 185.03125 41.257812 185.640625 40.832031 186.222656 40.382812 C 186.46875 40.1875 186.738281 40.007812 187.015625 39.855469 C 187.273438 39.714844 187.554688 39.613281 187.828125 39.511719 C 187.863281 39.496094 187.933594 39.574219 188 39.621094 C 187.871094 39.929688 187.808594 40.230469 187.640625 40.453125 C 187.113281 41.167969 186.578125 41.886719 185.988281 42.542969 C 185.53125 43.046875 185.007812 43.496094 184.46875 43.910156 C 183.871094 44.367188 183.269531 44.855469 182.515625 45.054688 C 182.460938 45.070312 182.394531 45.0625 182.335938 45.070312 C 182.347656 45.019531 182.363281 44.96875 182.375 44.917969 Z M 140.492188 44.925781 C 140.859375 43.957031 141.410156 43.109375 142.132812 42.375 C 142.59375 41.90625 143.027344 41.410156 143.519531 40.976562 C 143.921875 40.625 144.382812 40.332031 144.839844 40.050781 C 145.171875 39.847656 145.546875 39.707031 145.898438 39.53125 C 146.070312 39.445312 146.121094 39.480469 146.113281 39.679688 C 146.007812 39.941406 145.945312 40.238281 145.785156 40.460938 C 145.269531 41.160156 144.753906 41.867188 144.175781 42.507812 C 143.707031 43.027344 143.164062 43.488281 142.605469 43.921875 C 142.003906 44.382812 141.398438 44.84375 140.652344 45.070312 C 140.597656 45.085938 140.53125 45.074219 140.472656 45.078125 C 140.476562 45.023438 140.472656 44.96875 140.492188 44.925781 Z M 71.175781 41.988281 C 71.113281 42.121094 70.992188 42.230469 70.890625 42.347656 C 69.945312 43.539062 69.03125 44.757812 68.046875 45.910156 C 67.308594 46.769531 66.5 47.578125 65.667969 48.347656 C 65.128906 48.855469 64.46875 49.238281 63.890625 49.714844 C 63.371094 50.136719 62.78125 50.417969 62.183594 50.703125 C 61.917969 50.828125 61.789062 50.800781 61.707031 50.511719 C 61.628906 50.238281 61.617188 49.949219 61.578125 49.667969 C 61.539062 48.558594 62.070312 47.691406 62.726562 46.875 C 63.429688 46 64.316406 45.335938 65.261719 44.738281 C 65.773438 44.414062 66.257812 44.050781 66.777344 43.742188 C 67.351562 43.398438 67.953125 43.097656 68.535156 42.773438 C 68.894531 42.582031 69.242188 42.367188 69.605469 42.1875 C 70.035156 41.972656 70.472656 41.777344 70.917969 41.585938 C 71.007812 41.546875 71.128906 41.582031 71.238281 41.585938 C 71.21875 41.71875 71.230469 41.867188 71.175781 41.988281 Z M 83.304688 71.457031 C 83.296875 71.644531 83.269531 71.832031 83.238281 72.023438 C 83.175781 72.4375 83.046875 72.8125 82.84375 73.148438 C 82.644531 73.480469 82.332031 73.644531 81.90625 73.636719 L 81.90625 73.652344 C 81.484375 73.652344 81.171875 73.480469 80.96875 73.148438 C 80.769531 72.8125 80.640625 72.4375 80.578125 72.023438 C 80.542969 71.835938 80.519531 71.644531 80.507812 71.457031 C 80.496094 71.269531 80.492188 71.097656 80.492188 70.945312 C 80.492188 70.890625 80.496094 70.820312 80.5 70.761719 C 80.796875 70.824219 81.167969 70.859375 81.578125 70.816406 C 82.515625 70.644531 82.671875 70.152344 83.117188 69.917969 C 83.136719 69.910156 83.179688 69.871094 83.242188 69.816406 C 83.246094 69.832031 83.253906 69.847656 83.253906 69.863281 C 83.28125 70.066406 83.296875 70.253906 83.308594 70.441406 C 83.320312 70.621094 83.328125 70.792969 83.328125 70.941406 C 83.324219 71.097656 83.316406 71.265625 83.304688 71.457031 Z M 85.152344 61.71875 C 84.925781 62.289062 84.382812 63.453125 84.101562 63.863281 C 83.558594 64.644531 83.410156 64.84375 82.457031 65.269531 C 82.230469 65.371094 81.839844 64.039062 81.742188 63.695312 C 81.589844 62.703125 81.664062 62.707031 81.628906 61.597656 C 81.65625 61.355469 82.167969 61.246094 82.371094 61.246094 C 82.90625 61.238281 82.691406 61.25 83.222656 61.25 C 83.222656 61.246094 83.222656 61.246094 83.222656 61.242188 C 83.730469 61.242188 84.242188 61.234375 84.75 61.246094 C 85.183594 61.257812 85.304688 61.328125 85.152344 61.71875 Z M 86.429688 54.429688 C 86.40625 54.511719 86.398438 54.601562 86.390625 54.6875 C 86.308594 55.570312 86.242188 56.449219 86.152344 57.328125 C 86.105469 57.800781 86.003906 59.136719 85.519531 59.148438 C 85 59.164062 83.960938 59.277344 83.441406 59.277344 C 83.441406 59.273438 83.441406 59.265625 83.441406 59.265625 C 82.878906 59.265625 81.300781 59.390625 81.945312 57.503906 C 82.054688 57.171875 82.128906 56.824219 82.234375 56.488281 C 82.449219 55.847656 82.671875 55.207031 82.894531 54.5625 C 82.9375 54.4375 82.953125 54.304688 83.007812 54.183594 C 83.164062 53.832031 83.324219 53.484375 83.511719 53.152344 C 83.546875 53.089844 85.019531 53.453125 85.722656 53.46875 C 85.746094 53.46875 85.769531 53.472656 85.789062 53.476562 C 86.519531 53.5625 86.621094 53.71875 86.429688 54.429688 Z M 98.203125 46.871094 C 98.765625 46.167969 99.453125 45.605469 100.203125 45.109375 C 100.902344 44.652344 101.578125 44.160156 102.289062 43.726562 C 102.859375 43.371094 103.46875 43.085938 104.054688 42.765625 C 104.683594 42.425781 105.308594 42.085938 105.9375 41.75 C 106.082031 41.675781 106.242188 41.625 106.402344 41.582031 C 106.5 41.558594 106.601562 41.566406 106.703125 41.5625 C 106.695312 41.699219 106.746094 41.875 106.675781 41.964844 C 106.109375 42.710938 105.523438 43.4375 104.9375 44.167969 C 104.507812 44.703125 104.097656 45.25 103.644531 45.757812 C 103.066406 46.414062 102.472656 47.046875 101.859375 47.660156 C 101.386719 48.136719 100.890625 48.597656 100.363281 49.003906 C 99.503906 49.660156 98.648438 50.316406 97.632812 50.730469 C 97.425781 50.8125 97.265625 50.777344 97.210938 50.570312 C 97.136719 50.273438 97.101562 49.96875 97.050781 49.667969 C 97.015625 48.550781 97.558594 47.6875 98.203125 46.871094 Z M 121.160156 71.324219 C 121.148438 71.511719 121.128906 71.703125 121.089844 71.890625 C 121.03125 72.304688 120.902344 72.679688 120.703125 73.015625 C 120.503906 73.351562 120.1875 73.511719 119.765625 73.503906 L 119.765625 73.519531 C 119.339844 73.519531 119.027344 73.351562 118.828125 73.015625 C 118.628906 72.679688 118.5 72.304688 118.4375 71.890625 C 118.402344 71.699219 118.378906 71.511719 118.367188 71.324219 C 118.355469 71.132812 118.351562 70.964844 118.351562 70.8125 C 118.351562 70.65625 118.355469 70.488281 118.367188 70.308594 C 118.382812 70.121094 118.394531 69.933594 118.421875 69.730469 C 118.492188 69.328125 118.628906 68.960938 118.828125 68.625 C 118.882812 68.53125 118.949219 68.457031 119.019531 68.386719 C 119.429688 68.855469 119.972656 69.066406 120.191406 68.855469 C 120.277344 68.769531 120.371094 68.6875 120.46875 68.613281 C 120.503906 68.582031 120.550781 68.535156 120.601562 68.488281 C 120.636719 68.53125 120.675781 68.570312 120.707031 68.625 C 120.90625 68.957031 121.042969 69.328125 121.113281 69.726562 C 121.136719 69.929688 121.152344 70.121094 121.167969 70.304688 C 121.179688 70.488281 121.183594 70.65625 121.183594 70.808594 C 121.179688 70.964844 121.175781 71.132812 121.160156 71.324219 Z M 123.886719 51.949219 C 123.78125 52.191406 123.648438 52.417969 123.511719 52.644531 C 123.195312 53.171875 122.875 53.695312 122.5625 54.222656 C 122.347656 54.582031 122.144531 54.949219 121.933594 55.3125 C 121.804688 55.527344 121.667969 55.738281 121.539062 55.957031 C 121.195312 56.542969 120.308594 58.40625 119.964844 58.992188 C 119.808594 59.257812 119.574219 59.308594 119.285156 59.308594 C 115.496094 59.300781 112.253906 59.277344 108.46875 59.277344 C 107.320312 59.277344 106.167969 59.277344 105.015625 59.277344 C 100.101562 59.277344 95.183594 59.277344 90.265625 59.277344 C 90.15625 59.277344 90.042969 59.28125 89.933594 59.273438 C 89.710938 59.253906 89.574219 59.140625 89.609375 58.90625 C 89.695312 58.320312 89.792969 56.480469 89.886719 55.894531 C 89.902344 55.765625 89.90625 55.632812 89.914062 55.5 C 89.945312 54.804688 89.972656 54.109375 90.003906 53.414062 C 90.015625 53.09375 90.144531 52.886719 90.464844 52.761719 C 90.75 52.648438 91.019531 52.488281 91.265625 52.300781 C 91.796875 51.894531 92.316406 51.46875 92.820312 51.035156 C 93.144531 50.75 93.410156 50.808594 93.589844 51.191406 C 93.890625 51.839844 94.179688 52.492188 94.546875 53.101562 C 94.777344 53.492188 95.121094 53.828125 95.449219 54.152344 C 95.902344 54.597656 96.363281 55.039062 96.867188 55.421875 C 97.246094 55.710938 97.726562 55.628906 98.140625 55.472656 C 98.515625 55.332031 98.871094 55.113281 99.1875 54.867188 C 99.710938 54.464844 100.21875 54.042969 100.695312 53.589844 C 101.347656 52.960938 101.96875 52.296875 102.597656 51.644531 C 102.949219 51.28125 103.285156 50.90625 103.636719 50.542969 C 103.6875 50.488281 103.816406 50.429688 103.851562 50.453125 C 103.917969 50.503906 103.996094 50.609375 103.988281 50.691406 C 103.964844 51.03125 103.945312 51.382812 103.851562 51.707031 C 103.527344 52.8125 103.671875 53.875 104.066406 54.925781 C 104.105469 55.019531 104.183594 55.109375 104.265625 55.179688 C 104.644531 55.503906 105.023438 55.820312 105.40625 56.132812 C 105.5 56.207031 105.605469 56.300781 105.714844 56.3125 C 106.339844 56.394531 106.964844 56.484375 107.5625 56.15625 C 107.925781 55.953125 108.332031 55.824219 108.683594 55.605469 C 109.234375 55.269531 109.785156 54.917969 110.285156 54.507812 C 111.058594 53.871094 111.800781 53.191406 112.527344 52.511719 C 113.164062 51.917969 113.773438 51.292969 114.378906 50.667969 C 114.542969 50.5 114.667969 50.488281 114.804688 50.667969 C 114.902344 50.792969 115.011719 50.910156 115.074219 51.046875 C 115.261719 51.480469 115.410156 51.933594 115.621094 52.359375 C 115.796875 52.707031 116.070312 53.007812 116.25 53.359375 C 116.609375 54.070312 117.300781 54.4375 117.855469 54.945312 C 118.132812 55.195312 118.828125 55.261719 119.132812 55.078125 C 119.484375 54.871094 119.839844 54.675781 120.167969 54.4375 C 120.816406 53.96875 121.460938 53.484375 122.085938 52.984375 C 122.597656 52.578125 123.074219 52.132812 123.574219 51.71875 C 123.636719 51.664062 123.746094 51.671875 123.839844 51.648438 C 123.855469 51.75 123.921875 51.871094 123.886719 51.949219 Z M 168.808594 39.976562 C 168.265625 40.726562 167.734375 41.484375 167.167969 42.214844 C 166.425781 43.171875 165.671875 44.121094 164.886719 45.042969 C 164.488281 45.515625 164.039062 45.945312 163.578125 46.359375 C 162.824219 47.039062 162.058594 47.695312 161.277344 48.339844 C 160.875 48.667969 160.441406 48.953125 160.011719 49.242188 C 159.460938 49.609375 158.925781 50.003906 158.335938 50.296875 C 157.8125 50.554688 157.273438 50.832031 156.640625 50.792969 C 156.390625 50.78125 156.230469 50.691406 156.191406 50.449219 C 156.144531 50.148438 156.097656 49.835938 156.105469 49.53125 C 156.113281 49.144531 156.117188 48.746094 156.214844 48.378906 C 156.398438 47.707031 156.652344 47.050781 156.871094 46.386719 C 156.894531 46.324219 156.933594 46.261719 156.941406 46.199219 C 157.0625 45.609375 157.363281 45.097656 157.65625 44.582031 C 157.84375 44.246094 157.980469 43.882812 158.160156 43.546875 C 158.367188 43.15625 158.585938 42.777344 158.804688 42.398438 C 158.980469 42.09375 159.160156 41.796875 159.335938 41.496094 C 159.578125 41.089844 159.847656 40.699219 160.046875 40.277344 C 160.289062 39.753906 160.6875 39.609375 161.21875 39.628906 C 161.859375 39.726562 162.503906 39.804688 163.144531 39.921875 C 163.554688 40 163.851562 39.835938 164.125 39.578125 C 164.304688 39.414062 164.460938 39.230469 164.652344 39.082031 C 164.722656 39.03125 164.886719 39.023438 164.953125 39.070312 C 165.121094 39.183594 165.269531 39.222656 165.445312 39.125 C 165.628906 39.023438 165.714844 39.085938 165.734375 39.28125 C 165.746094 39.367188 165.753906 39.457031 165.78125 39.539062 C 165.878906 39.847656 165.941406 39.851562 166.253906 39.769531 C 167.03125 39.558594 167.824219 39.5 168.621094 39.570312 C 168.859375 39.589844 168.941406 39.789062 168.808594 39.976562 Z M 168.808594 39.976562 " fill-opacity="1" fill-rule="nonzero"/></g></svg>